<?xml version="1.0" encoding="UTF-8"?>
<!-- Generator: visioncortex VTracer 0.6.2 -->
<svg version="1.1" xmlns="http://www.w3.org/2000/svg" width="1280" height="1280">
<path d="M0 0 C422.4 0 844.8 0 1280 0 C1280 422.4 1280 844.8 1280 1280 C857.6 1280 435.2 1280 0 1280 C0 857.6 0 435.2 0 0 Z " fill="#ECEFEA" transform="translate(0,0)"/>
<path d="M0 0 C0.73191576 -0.00380567 1.46383151 -0.00761134 2.21792653 -0.01153234 C4.67174227 -0.02184298 7.12532645 -0.01794295 9.57915783 -0.01409245 C11.35571318 -0.01854512 13.13226654 -0.02385926 14.90881699 -0.02996117 C19.79197898 -0.04414779 24.67507734 -0.04580434 29.55825698 -0.04536426 C34.82423494 -0.04701186 40.09018663 -0.06007721 45.35615063 -0.07155704 C56.87049485 -0.09440945 68.38482064 -0.10232772 79.89918447 -0.10738349 C87.08780171 -0.11063983 94.27641359 -0.11716188 101.46502781 -0.12438488 C121.36618693 -0.1439501 141.26734108 -0.16035511 161.16851044 -0.16326141 C162.4420761 -0.16344898 163.71564177 -0.16363655 165.02780033 -0.16382981 C167.60964437 -0.16419606 170.19148841 -0.16455976 172.77333245 -0.16492092 C174.05497062 -0.16510373 175.33660878 -0.16528654 176.65708447 -0.16547489 C178.58188621 -0.16574572 178.58188621 -0.16574572 180.54557284 -0.16602201 C201.34520662 -0.16956483 222.14473695 -0.19659433 242.94433484 -0.23397278 C264.29615811 -0.27203682 285.64793002 -0.29141875 306.99978799 -0.29172093 C318.98929186 -0.29230588 330.97867228 -0.30082245 342.96814442 -0.32971859 C353.17564961 -0.35420682 363.3829863 -0.36153252 373.59051291 -0.34647106 C378.7987532 -0.33929209 384.00666061 -0.34020242 389.21486378 -0.36288166 C393.98383377 -0.38344942 398.75221446 -0.38089178 403.52117791 -0.36000682 C405.2452432 -0.35650775 406.96935083 -0.36143958 408.6933606 -0.37571125 C419.09210416 -0.45623781 427.12454991 -0.03716016 434.93076611 7.57646847 C435.73514111 8.68828487 435.73514111 8.68828487 436.55576611 9.82256222 C437.39107861 10.93824581 437.39107861 10.93824581 438.24326611 12.07646847 C440.380819 15.63269486 440.68091011 18.84128036 440.68719387 22.94101048 C440.69103502 23.88332449 440.69487616 24.8256385 440.6988337 25.79650748 C440.69796722 26.82859095 440.69710074 27.86067443 440.696208 28.92403316 C440.70066468 30.57241493 440.70066468 30.57241493 440.7052114 32.25409734 C440.71390776 35.94961541 440.71540745 39.64510112 440.71689892 43.34062862 C440.72152647 45.98505971 440.72653044 48.62948784 440.73194408 51.2739172 C440.7455229 58.46833552 440.75155168 65.66274826 440.75595474 72.85717726 C440.75871843 77.35122864 440.76295607 81.84527788 440.76745892 86.33932781 C440.77965195 98.78666772 440.78995057 111.23400591 440.79333401 123.68135166 C440.79355357 124.47795059 440.79377314 125.27454953 440.79399936 126.09528782 C440.79421764 126.89377679 440.79443591 127.69226575 440.79466081 128.51495135 C440.79510427 130.13295055 440.79555083 131.75094974 440.79600048 133.36894894 C440.79622191 134.17152981 440.79644334 134.97411069 440.79667148 135.8010122 C440.80061731 148.79821289 440.81806462 161.79535744 440.84136 174.79253645 C440.86509443 188.14268011 440.87753684 201.49279562 440.87870193 214.84296072 C440.87961761 222.33604608 440.88534294 229.82905834 440.90352154 237.32212353 C440.91895091 243.70442417 440.92402638 250.08662911 440.91578344 256.46894486 C440.91188665 259.7228723 440.91440329 262.97656764 440.92684078 266.23047924 C440.93955748 269.76521414 440.93368436 273.29945771 440.92325878 276.83418941 C440.93534339 278.36223813 440.93534339 278.36223813 440.94767213 279.92115653 C440.89206324 288.0049771 439.97865519 296.62833967 434.11826611 302.69756222 C433.54205517 303.31502316 432.96584423 303.93248409 432.37217236 304.56865597 C419.34610888 316.69830217 381.75092949 310.29976213 364.76768017 310.28227901 C362.1103582 310.2807188 359.45303647 310.27928624 356.79571438 310.27802467 C351.06431776 310.27509585 345.33292273 310.27107044 339.60152721 310.26649761 C331.18284958 310.25990782 322.76417301 310.25708287 314.34549323 310.25496935 C274.63103093 310.24469946 234.91665775 310.20342479 195.20225565 310.13320659 C190.24489746 310.12445098 185.28753893 310.11589877 180.33018017 310.10747433 C178.85127937 310.10495573 178.85127937 310.10495573 177.34250179 310.10238626 C161.21847126 310.07545419 145.09447639 310.06659918 128.9704257 310.06402079 C112.29054864 310.06096295 95.61077367 310.03907761 78.93094277 309.99953765 C68.69983849 309.97586717 58.46893839 309.96669619 48.23781052 309.97654911 C41.26409619 309.98185887 34.29056658 309.96886448 27.31690487 309.94139931 C23.30115365 309.92611977 19.28581615 309.91888454 15.27005291 309.933465 C11.59307792 309.94663881 7.91690456 309.93668079 4.24001971 309.90862449 C2.28812377 309.89965216 0.33616211 309.91514579 -1.61568475 309.93164188 C-9.06860592 309.84615603 -14.43250324 308.83474656 -20.44423389 304.26006222 C-25.66459356 298.90232466 -27.80209049 293.45791889 -27.95004749 286.02675533 C-27.97635205 284.96241217 -27.97635205 284.96241217 -28.00318801 283.87656713 C-28.05737354 281.49582077 -28.0897585 279.11533113 -28.12123585 276.73418331 C-28.1538988 275.00473079 -28.18726927 273.27529151 -28.22128487 271.54586506 C-28.62733525 249.15410064 -28.60905261 226.75494633 -28.61149096 204.36032057 C-28.61221173 200.62708456 -28.6143644 196.89385201 -28.61698818 193.16061687 C-28.62662096 179.43095304 -28.63026261 165.70130033 -28.62941275 151.97163336 C-28.62900316 141.18431216 -28.63867102 130.39702532 -28.652675 119.60971411 C-28.66704637 108.44956279 -28.67376224 97.28942411 -28.67308122 86.12926233 C-28.67282703 79.89597693 -28.67563754 73.66273103 -28.68625927 67.42945385 C-28.69593646 61.59645098 -28.69602209 55.76352565 -28.68874264 49.93052006 C-28.68769791 47.79601522 -28.69005306 45.66150553 -28.6961031 43.52700901 C-28.70383833 40.60912925 -28.69916889 37.69151668 -28.69147205 34.77364254 C-28.69661562 33.93543362 -28.70175918 33.09722471 -28.70705861 32.23361552 C-28.65456681 23.19848661 -27.06950572 14.55732919 -21.44423389 7.26006222 C-15.12110641 1.90170058 -8.20707754 0.0122964 0 0 Z " fill="#EBEEE9" transform="translate(432.44423389434814,470.7399377822876)"/>
<path d="M0 0 C0.73191576 -0.00380567 1.46383151 -0.00761134 2.21792653 -0.01153234 C4.67174227 -0.02184298 7.12532645 -0.01794295 9.57915783 -0.01409245 C11.35571318 -0.01854512 13.13226654 -0.02385926 14.90881699 -0.02996117 C19.79197898 -0.04414779 24.67507734 -0.04580434 29.55825698 -0.04536426 C34.82423494 -0.04701186 40.09018663 -0.06007721 45.35615063 -0.07155704 C56.87049485 -0.09440945 68.38482064 -0.10232772 79.89918447 -0.10738349 C87.08780171 -0.11063983 94.27641359 -0.11716188 101.46502781 -0.12438488 C121.36618693 -0.1439501 141.26734108 -0.16035511 161.16851044 -0.16326141 C162.4420761 -0.16344898 163.71564177 -0.16363655 165.02780033 -0.16382981 C167.60964437 -0.16419606 170.19148841 -0.16455976 172.77333245 -0.16492092 C174.05497062 -0.16510373 175.33660878 -0.16528654 176.65708447 -0.16547489 C178.58188621 -0.16574572 178.58188621 -0.16574572 180.54557284 -0.16602201 C201.34520662 -0.16956483 222.14473695 -0.19659433 242.94433484 -0.23397278 C264.29615811 -0.27203682 285.64793002 -0.29141875 306.99978799 -0.29172093 C318.98929186 -0.29230588 330.97867228 -0.30082245 342.96814442 -0.32971859 C353.17564961 -0.35420682 363.3829863 -0.36153252 373.59051291 -0.34647106 C378.7987532 -0.33929209 384.00666061 -0.34020242 389.21486378 -0.36288166 C393.98383377 -0.38344942 398.75221446 -0.38089178 403.52117791 -0.36000682 C405.2452432 -0.35650775 406.96935083 -0.36143958 408.6933606 -0.37571125 C419.09210416 -0.45623781 427.12454991 -0.03716016 434.93076611 7.57646847 C435.73514111 8.68828487 435.73514111 8.68828487 436.55576611 9.82256222 C437.39107861 10.93824581 437.39107861 10.93824581 438.24326611 12.07646847 C440.380819 15.63269486 440.68091011 18.84128036 440.68719387 22.94101048 C440.69103502 23.88332449 440.69487616 24.8256385 440.6988337 25.79650748 C440.69796722 26.82859095 440.69710074 27.86067443 440.696208 28.92403316 C440.70066468 30.57241493 440.70066468 30.57241493 440.7052114 32.25409734 C440.71390776 35.94961541 440.71540745 39.64510112 440.71689892 43.34062862 C440.72152647 45.98505971 440.72653044 48.62948784 440.73194408 51.2739172 C440.7455229 58.46833552 440.75155168 65.66274826 440.75595474 72.85717726 C440.75871843 77.35122864 440.76295607 81.84527788 440.76745892 86.33932781 C440.77965195 98.78666772 440.78995057 111.23400591 440.79333401 123.68135166 C440.79355357 124.47795059 440.79377314 125.27454953 440.79399936 126.09528782 C440.79421764 126.89377679 440.79443591 127.69226575 440.79466081 128.51495135 C440.79510427 130.13295055 440.79555083 131.75094974 440.79600048 133.36894894 C440.79622191 134.17152981 440.79644334 134.97411069 440.79667148 135.8010122 C440.80061731 148.79821289 440.81806462 161.79535744 440.84136 174.79253645 C440.86509443 188.14268011 440.87753684 201.49279562 440.87870193 214.84296072 C440.87961761 222.33604608 440.88534294 229.82905834 440.90352154 237.32212353 C440.91895091 243.70442417 440.92402638 250.08662911 440.91578344 256.46894486 C440.91188665 259.7228723 440.91440329 262.97656764 440.92684078 266.23047924 C440.93955748 269.76521414 440.93368436 273.29945771 440.92325878 276.83418941 C440.93534339 278.36223813 440.93534339 278.36223813 440.94767213 279.92115653 C440.89206324 288.0049771 439.97865519 296.62833967 434.11826611 302.69756222 C433.54205517 303.31502316 432.96584423 303.93248409 432.37217236 304.56865597 C419.34610888 316.69830217 381.75092949 310.29976213 364.76768017 310.28227901 C362.1103582 310.2807188 359.45303647 310.27928624 356.79571438 310.27802467 C351.06431776 310.27509585 345.33292273 310.27107044 339.60152721 310.26649761 C331.18284958 310.25990782 322.76417301 310.25708287 314.34549323 310.25496935 C274.63103093 310.24469946 234.91665775 310.20342479 195.20225565 310.13320659 C190.24489746 310.12445098 185.28753893 310.11589877 180.33018017 310.10747433 C178.85127937 310.10495573 178.85127937 310.10495573 177.34250179 310.10238626 C161.21847126 310.07545419 145.09447639 310.06659918 128.9704257 310.06402079 C112.29054864 310.06096295 95.61077367 310.03907761 78.93094277 309.99953765 C68.69983849 309.97586717 58.46893839 309.96669619 48.23781052 309.97654911 C41.26409619 309.98185887 34.29056658 309.96886448 27.31690487 309.94139931 C23.30115365 309.92611977 19.28581615 309.91888454 15.27005291 309.933465 C11.59307792 309.94663881 7.91690456 309.93668079 4.24001971 309.90862449 C2.28812377 309.89965216 0.33616211 309.91514579 -1.61568475 309.93164188 C-9.06860592 309.84615603 -14.43250324 308.83474656 -20.44423389 304.26006222 C-25.66459356 298.90232466 -27.80209049 293.45791889 -27.95004749 286.02675533 C-27.97635205 284.96241217 -27.97635205 284.96241217 -28.00318801 283.87656713 C-28.05737354 281.49582077 -28.0897585 279.11533113 -28.12123585 276.73418331 C-28.1538988 275.00473079 -28.18726927 273.27529151 -28.22128487 271.54586506 C-28.62733525 249.15410064 -28.60905261 226.75494633 -28.61149096 204.36032057 C-28.61221173 200.62708456 -28.6143644 196.89385201 -28.61698818 193.16061687 C-28.62662096 179.43095304 -28.63026261 165.70130033 -28.62941275 151.97163336 C-28.62900316 141.18431216 -28.63867102 130.39702532 -28.652675 119.60971411 C-28.66704637 108.44956279 -28.67376224 97.28942411 -28.67308122 86.12926233 C-28.67282703 79.89597693 -28.67563754 73.66273103 -28.68625927 67.42945385 C-28.69593646 61.59645098 -28.69602209 55.76352565 -28.68874264 49.93052006 C-28.68769791 47.79601522 -28.69005306 45.66150553 -28.6961031 43.52700901 C-28.70383833 40.60912925 -28.69916889 37.69151668 -28.69147205 34.77364254 C-28.69661562 33.93543362 -28.70175918 33.09722471 -28.70705861 32.23361552 C-28.65456681 23.19848661 -27.06950572 14.55732919 -21.44423389 7.26006222 C-15.12110641 1.90170058 -8.20707754 0.0122964 0 0 Z M-6.44423389 23.26006222 C-10.21570062 28.23936197 -9.86697107 33.52284774 -9.82518482 39.51483822 C-9.82986479 40.54549213 -9.83454477 41.57614605 -9.83936656 42.6380319 C-9.85132927 46.09037941 -9.84185409 49.54233092 -9.83241749 52.99468136 C-9.83648258 55.47018319 -9.84182411 57.9456832 -9.84834766 60.42117977 C-9.86061239 66.44597715 -9.85881013 72.47061919 -9.85010974 78.49541051 C-9.84333185 83.39178263 -9.84241692 88.28812332 -9.84568119 93.18449879 C-9.84614089 93.88163327 -9.84660059 94.57876774 -9.84707422 95.29702751 C-9.8480334 96.71327366 -9.84900604 98.1295198 -9.84999199 99.54576593 C-9.85854396 112.82171551 -9.84871447 126.09760292 -9.83259089 139.3735423 C-9.81918492 150.76453904 -9.82151845 162.15544408 -9.83534718 173.54643917 C-9.85140134 186.77675382 -9.85772311 200.00701402 -9.84851038 213.23733705 C-9.84755474 214.6480385 -9.84661163 216.05873995 -9.84568119 217.46944141 C-9.84521836 218.16352371 -9.84475554 218.85760601 -9.84427869 219.57272111 C-9.84168852 224.46363769 -9.84606029 229.35451972 -9.85311985 234.24543095 C-9.86241152 240.82737878 -9.85579739 247.40918002 -9.83843708 253.99112034 C-9.83446366 256.4094708 -9.83562083 258.82783582 -9.84222507 261.24618053 C-9.85039653 264.54174216 -9.84017176 267.8367441 -9.82518482 271.13226986 C-9.83187699 272.0941319 -9.83856915 273.05599395 -9.84546411 274.04700333 C-9.80232348 278.92213937 -9.72163324 282.38108109 -6.44423389 286.26006222 C-2.43197647 290.14951312 0.12921987 290.76057614 5.66948223 290.76342678 C6.3778053 290.76924054 7.08612836 290.77505431 7.81591576 290.78104424 C10.19573034 290.79567316 12.57451817 290.78174636 14.95432568 290.76799679 C16.67512462 290.77260458 18.39591962 290.77895668 20.11670637 290.78690577 C24.85031958 290.803639 29.58361117 290.79533461 34.31722569 290.78296089 C39.4202347 290.77392904 44.5231875 290.78787085 49.62618542 290.79888058 C59.62491883 290.81669034 69.62353231 290.81281487 79.62227046 290.80123001 C87.74664253 290.79220563 95.87098092 290.79096738 103.99535656 290.79532528 C105.72816342 290.79624468 105.72816342 290.79624468 107.49597648 290.79718265 C109.84256916 290.79846152 112.18916184 290.79975837 114.5357545 290.80107301 C136.55267324 290.81248601 158.56952541 290.79935381 180.58643323 290.77787155 C199.48819081 290.75999993 218.38985014 290.76310383 237.29160595 290.78154659 C259.2283981 290.80294059 281.16513188 290.81138731 303.101933 290.79909754 C305.44001388 290.79782331 307.77809476 290.79656583 310.11617565 290.79532528 C311.26663113 290.79470818 312.41708662 290.79409108 313.60240439 290.79345527 C321.71936458 290.78999796 329.83628783 290.79583893 337.9532423 290.80524349 C347.84175147 290.81644851 357.73013358 290.81345496 367.61862814 290.79212052 C372.66631765 290.78158995 377.71379514 290.77752241 382.76148319 290.79071712 C387.37911612 290.80260534 391.9963398 290.79613767 396.61393541 290.77480692 C398.28748018 290.77032566 399.96105927 290.77264113 401.6345821 290.78231007 C403.90423417 290.79442088 406.17247252 290.78205498 408.44204998 290.76342678 C409.70418804 290.76277737 410.96632609 290.76212796 412.26671076 290.76145887 C416.14557373 290.1701496 417.79292135 288.99113783 420.55576611 286.26006222 C421.71645057 283.9386933 421.68502437 282.60181259 421.69278049 280.01706219 C421.69785504 279.12154762 421.70292958 278.22603305 421.7081579 277.30338168 C421.70865565 276.31332637 421.70915341 275.32327106 421.70966625 274.30321407 C421.71404851 273.25626566 421.71843076 272.20931725 421.72294581 271.13064313 C421.73637105 267.5992368 421.74252101 264.06785544 421.7486372 260.53642941 C421.75653519 258.01388084 421.76480395 255.49133342 421.77341747 252.96878719 C421.79740429 245.3818424 421.81257018 237.79489882 421.82547754 230.20792806 C421.82918873 228.0655274 421.83316202 225.9231274 421.83723021 223.78072739 C421.86246606 210.48074329 421.88452227 197.18075818 421.89695835 183.88075542 C421.89988812 180.79934593 421.90284977 177.71793647 421.90586376 174.63652706 C421.90698284 173.48770237 421.90698284 173.48770237 421.90812452 172.31566909 C421.92077964 159.90728203 421.95400409 147.49903821 421.99566559 135.09071812 C422.03807502 122.35538511 422.06165223 109.62012545 422.06687891 96.88472199 C422.07029419 89.73260497 422.08206273 82.58071178 422.11498165 75.42866421 C422.14589432 68.70141504 422.15140464 61.97462449 422.13959789 55.24729252 C422.13937644 52.77613337 422.14774003 50.30495655 422.16525173 47.83385944 C422.18783744 44.46371338 422.17969618 41.09499692 422.16376781 37.72484493 C422.1776499 36.74371251 422.19153199 35.76258008 422.20583475 34.75171638 C422.15486642 30.38406704 422.02765356 27.24304642 419.267766 23.7310133 C414.70433003 19.57318606 411.84871319 19.00980152 405.66718197 19.00279331 C404.97104178 18.99928724 404.27490159 18.99578116 403.55766624 18.99216884 C401.21350921 18.98282854 398.86959918 18.98778487 396.52543163 18.99263668 C394.83238594 18.98890173 393.13934197 18.98430084 391.44630075 18.97890604 C386.78471653 18.96664121 382.1232039 18.9669406 377.46160722 18.96929479 C372.43760804 18.96970208 367.41363209 18.95867214 362.38964367 18.94917965 C352.54287157 18.93254924 342.69612341 18.92706917 332.84933844 18.92595489 C324.84654232 18.92500532 316.84375412 18.92089955 308.8409605 18.91455364 C286.16139021 18.89693512 263.48183887 18.88771564 240.80226168 18.88921459 C239.5789699 18.8892945 238.35567812 18.88937441 237.09531689 18.88945675 C235.87053471 18.88953851 234.64575252 18.88962027 233.38385573 18.88970451 C213.53401246 18.89051743 193.68424507 18.87137993 173.83442375 18.84318002 C153.46238951 18.81446617 133.09039229 18.80063892 112.7183373 18.80236757 C101.27714889 18.80303202 89.83604001 18.79751555 78.3948698 18.77601147 C68.65319127 18.75781933 58.9116283 18.7534361 49.16994014 18.76703031 C44.19883624 18.77357009 39.22795417 18.77364076 34.25687122 18.75632381 C29.70566933 18.74063254 25.1548659 18.74341631 20.60367396 18.76089208 C18.95763072 18.7639707 17.31155802 18.76029719 15.66554949 18.74917193 C3.93605108 18.47773517 3.93605108 18.47773517 -6.44423389 23.26006222 Z " fill="#211F20" transform="translate(432.44423389434814,470.7399377822876)"/>
<path d="M0 0 C0.66 0.33 1.32 0.66 2 1 C2.31241371 3.54941373 2.51303421 6.00361513 2.625 8.5625 C2.66367187 9.27341797 2.70234375 9.98433594 2.7421875 10.71679688 C2.83671783 12.47742425 2.91945817 14.23867728 3 16 C4.39025391 16.09087891 4.39025391 16.09087891 5.80859375 16.18359375 C7.00613281 16.26738281 8.20367188 16.35117187 9.4375 16.4375 C10.63246094 16.51871094 11.82742188 16.59992187 13.05859375 16.68359375 C16 17 16 17 17 18 C17.14115161 20.67058851 17.04247107 23.32432238 17 26 C16.07316406 26.06058594 15.14632812 26.12117187 14.19140625 26.18359375 C12.39509766 26.30927734 12.39509766 26.30927734 10.5625 26.4375 C9.36753906 26.51871094 8.17257812 26.59992187 6.94140625 26.68359375 C4.11429756 26.67656114 4.11429756 26.67656114 3 28 C2.73309472 32.50499302 2.72871708 37.01563296 2.70483398 41.52758789 C2.68764718 43.7930997 2.64378163 46.05714214 2.59960938 48.32226562 C2.58948029 49.76301009 2.58096486 51.20376698 2.57421875 52.64453125 C2.55963623 53.95784424 2.54505371 55.27115723 2.5300293 56.62426758 C2.72137235 60.06121978 2.72137235 60.06121978 4.8972168 62.4309082 C8.37699822 65.02751278 10.7543385 64.41087047 15 64 C17.18619778 61.81380222 17.90899636 59.83118866 18.92578125 56.94921875 C22.11571296 51.16094266 27.27659627 48.52108498 33 45.8125 C33.69867187 45.47025391 34.39734375 45.12800781 35.1171875 44.77539062 C38.69402384 43.03758806 42.28110842 41.41637472 46 40 C46.5594116 34.07419345 46.5594116 34.07419345 43.875 28.9375 C41.17182491 26.72639466 41.17182491 26.72639466 38.0625 27 C34.84604997 28.0502694 31.99481279 29.43452968 29 31 C28.34 31 27.68 31 27 31 C26.67 31.99 26.34 32.98 26 34 C25.34 34 24.68 34 24 34 C21.84675929 30.77013894 21.48628216 29.74780514 22 26 C26.64047256 20.64370986 33.78858664 17.43255601 40.73828125 16.71875 C46.17741879 16.54210683 50.48514078 16.66760391 55 20 C59.90262038 25.65070414 61.14575599 30.2946113 61.31640625 37.73046875 C61.33718735 38.48088943 61.35796844 39.23131012 61.37937927 40.00447083 C61.44469926 42.39872184 61.50367792 44.79308139 61.5625 47.1875 C61.60570193 48.81186013 61.64931676 50.43620933 61.69335938 52.06054688 C61.80036263 56.04025371 61.90167937 60.02006958 62 64 C64.64 64.99 67.28 65.98 70 67 C70.4375 69.125 70.4375 69.125 70 72 C67.57864751 75.16182725 64.83077086 77.5788208 60.89453125 78.484375 C56.49483673 78.64946673 54.3282171 77.63962046 51 75 C47.55841878 75.46665508 44.3556243 76.48560153 41.0625 77.5625 C32.26506429 80.15761378 32.26506429 80.15761378 27.70703125 77.828125 C23.15894211 75.02262645 20.67340122 73.22492828 19 68 C18.34 68 17.68 68 17 68 C16.95875 68.721875 16.9175 69.44375 16.875 70.1875 C15.66372702 74.08087744 13.49918943 76.10460572 10 78 C5.56037054 79.3001772 2.13053856 79.39134027 -2.25 77.875 C-7.04232423 74.60750621 -10.26829984 71.58593231 -12 66 C-12.38088608 62.99961851 -12.51076478 60.00115909 -12.6328125 56.98046875 C-12.67437469 56.12189774 -12.71593689 55.26332672 -12.75875854 54.3787384 C-12.88903933 51.6486366 -13.00718491 48.91816533 -13.125 46.1875 C-13.2114383 44.33134272 -13.29866903 42.47522216 -13.38671875 40.61914062 C-13.60032802 36.07980121 -13.80305899 31.54009187 -14 27 C-16.97 26.67 -19.94 26.34 -23 26 C-23 23 -23 23 -20.5078125 20.46875 C-19.386024 19.47257888 -18.25799455 18.48340718 -17.125 17.5 C-10.97125875 12.0100388 -5.41931417 6.21447313 0 0 Z " fill="#211F20" transform="translate(723,590)"/>
<path d="M0 0 C0.72693904 1.97888961 1.39816251 3.97954558 2 6 C2.66 5.731875 3.32 5.46375 4 5.1875 C4.99 4.795625 5.98 4.40375 7 4 C7.58136719 3.73574219 8.16273438 3.47148438 8.76171875 3.19921875 C15.27863623 0.41003095 21.54257787 -0.17421884 28.3125 2.125 C34.05640293 6.13237414 36.46025332 10.27086415 38 17 C38.24707277 19.79848702 38.25406101 22.57486019 38.23828125 25.3828125 C38.25368772 26.97787322 38.26999036 28.57292549 38.28710938 30.16796875 C38.30359976 32.65432556 38.31245738 35.14005742 38.30541992 37.62646484 C38.30279885 40.04595165 38.33090137 42.46357519 38.36328125 44.8828125 C38.35307449 45.62250275 38.34286774 46.36219299 38.33235168 47.1242981 C38.4086918 51.16353247 38.75839566 52.73770264 41.53979492 55.75732422 C42.75759644 56.86744873 42.75759644 56.86744873 44 58 C44 59.32 44 60.64 44 62 C40.04180389 62.08678303 36.08385066 62.14031733 32.125 62.1875 C30.99707031 62.21263672 29.86914062 62.23777344 28.70703125 62.26367188 C27.09248047 62.27817383 27.09248047 62.27817383 25.4453125 62.29296875 C23.95281982 62.31653442 23.95281982 62.31653442 22.43017578 62.34057617 C21.22723877 62.17199097 21.22723877 62.17199097 20 62 C19.34 61.01 18.68 60.02 18 59 C19.63412443 57.29159719 20.86906094 56.06546953 23 55 C23.10787549 46.31002991 23.05650969 37.62307962 22.75 28.9375 C22.73590088 28.15334717 22.72180176 27.36919434 22.70727539 26.5612793 C22.46901347 21.00282469 21.21547721 17.57154403 18 13 C14.7732619 11.574232 12.97998244 11.63973664 9.68359375 12.8515625 C8.0905722 13.56241321 6.51232603 14.30759153 4.953125 15.08984375 C3 16 3 16 1 16 C1 28.21 1 40.42 1 53 C2.32 53.66 3.64 54.32 5 55 C7.35127433 57.60319658 8 58.42129926 8 62 C-0.58 62 -9.16 62 -18 62 C-18.33 60.68 -18.66 59.36 -19 58 C-17.6875 56.25 -17.6875 56.25 -16 55 C-15.34 55 -14.68 55 -14 55 C-14.33 39.82 -14.66 24.64 -15 9 C-16.32 9 -17.64 9 -19 9 C-19 8.01 -19 7.02 -19 6 C-16.2120519 4.80303299 -13.42025583 3.61716986 -10.625 2.4375 C-9.8309375 2.09525391 -9.036875 1.75300781 -8.21875 1.40039062 C-7.45820312 1.08134766 -6.69765625 0.76230469 -5.9140625 0.43359375 C-4.8614624 -0.01415405 -4.8614624 -0.01415405 -3.78759766 -0.47094727 C-2 -1 -2 -1 0 0 Z " fill="#211F20" transform="translate(529,606)"/>
<path d="M0 0 C5.20554406 4.11831017 9.59160003 9.88503973 10.8515625 16.46484375 C10.92354106 19.13380874 10.87616359 21.79425909 10.8515625 24.46484375 C9.367771 24.48671753 9.367771 24.48671753 7.85400391 24.5090332 C4.18973331 24.56693345 0.52608265 24.64416527 -3.13769531 24.72729492 C-4.72450715 24.76058355 -6.31143853 24.78860322 -7.8984375 24.8112793 C-10.17760234 24.84475453 -12.45566791 24.89706235 -14.734375 24.953125 C-15.44588715 24.95951492 -16.15739929 24.96590485 -16.89047241 24.9724884 C-19.1084831 25.00494023 -19.1084831 25.00494023 -22.1484375 25.46484375 C-24.3949754 28.18594873 -24.3949754 28.18594873 -24.0234375 30.77734375 C-21.52042149 38.46517865 -16.13695163 42.69929343 -9.1484375 46.46484375 C-4.1829996 47.24886026 0.22038341 46.05225121 5.03125 44.8046875 C5.63195312 44.69253906 6.23265625 44.58039062 6.8515625 44.46484375 C7.8515625 45.46484375 7.8515625 45.46484375 7.9765625 48.65234375 C6.5316276 53.54906759 4.46412183 54.67105652 0.2734375 57.30078125 C-5.81648779 60.22787437 -13.88034951 60.71661514 -20.359375 58.81640625 C-22.44338845 57.852653 -24.25732226 56.76692309 -26.1484375 55.46484375 C-26.839375 54.99046875 -27.5303125 54.51609375 -28.2421875 54.02734375 C-34.88498272 48.87174149 -37.54494331 42.27532633 -40.1484375 34.46484375 C-41.10002507 23.80706295 -36.36638594 13.938468 -30.1484375 5.46484375 C-22.43620338 -2.94375463 -10.27774824 -5.94248407 0 0 Z " fill="#211F20" transform="translate(691.1484375,609.53515625)"/>
<path d="M0 0 C1.21171875 0.00322266 2.4234375 0.00644531 3.671875 0.00976562 C4.94289063 0.01814453 6.21390625 0.02652344 7.5234375 0.03515625 C8.8021875 0.03966797 10.0809375 0.04417969 11.3984375 0.04882812 C14.56515042 0.06064422 17.73177106 0.0771181 20.8984375 0.09765625 C21.5584375 1.41765625 22.2184375 2.73765625 22.8984375 4.09765625 C21.60878574 5.47328479 20.27154457 6.80532018 18.8984375 8.09765625 C18.2384375 8.09765625 17.5784375 8.09765625 16.8984375 8.09765625 C17.81365417 10.55653837 18.73026136 13.01487887 19.6484375 15.47265625 C19.91994629 16.19984863 20.19145508 16.92704102 20.47119141 17.67626953 C22.30902496 22.57897039 24.21924219 27.44430164 26.234375 32.27734375 C26.8984375 34.09765625 26.8984375 34.09765625 26.8984375 36.09765625 C28.2184375 36.09765625 29.5384375 36.09765625 30.8984375 36.09765625 C32.77189146 32.3569917 34.61876158 28.60381031 36.4609375 24.84765625 C36.99396484 23.78417969 37.52699219 22.72070312 38.07617188 21.625 C38.57568359 20.60019531 39.07519531 19.57539062 39.58984375 18.51953125 C40.05592041 17.5769043 40.52199707 16.63427734 41.00219727 15.66308594 C41.97376779 12.88202818 42.01059795 11.78167014 40.8984375 9.09765625 C39.51673022 7.35582564 39.51673022 7.35582564 37.8359375 5.84765625 C37.28808594 5.326875 36.74023438 4.80609375 36.17578125 4.26953125 C35.54349609 3.68945312 35.54349609 3.68945312 34.8984375 3.09765625 C35.2284375 2.10765625 35.5584375 1.11765625 35.8984375 0.09765625 C39.3566135 0.01082335 42.81451094 -0.04267657 46.2734375 -0.08984375 C47.75070312 -0.12754883 47.75070312 -0.12754883 49.2578125 -0.16601562 C50.66933594 -0.18051758 50.66933594 -0.18051758 52.109375 -0.1953125 C52.97868652 -0.21102295 53.84799805 -0.2267334 54.74365234 -0.24291992 C55.810271 -0.07433472 55.810271 -0.07433472 56.8984375 0.09765625 C57.8884375 1.58265625 57.8884375 1.58265625 58.8984375 3.09765625 C57.46614583 4.26953125 56.03385417 5.44140625 54.6015625 6.61328125 C50.40368554 10.27198136 47.95297487 13.53326849 45.5234375 18.59765625 C44.91859724 19.85446932 44.31311723 21.11097469 43.70703125 22.3671875 C43.40651855 22.99447754 43.10600586 23.62176758 42.79638672 24.26806641 C41.96410495 25.96385749 41.07602478 27.63195242 40.18359375 29.296875 C37.04196742 35.17302205 35.38384715 40.11515091 34.44921875 46.6953125 C33.56847404 50.53685856 31.63470732 52.29623715 28.8984375 55.09765625 C27.49139841 57.05665279 26.20328797 59.06788885 24.8984375 61.09765625 C21.42106501 60.09127739 20.78212987 58.88962803 18.97900391 55.66455078 C18.30638007 54.19237422 17.6475879 52.71382864 17 51.23046875 C16.64255707 50.44050507 16.28511414 49.65054138 15.9168396 48.8366394 C14.77359201 46.30388758 13.64799604 43.76375383 12.5234375 41.22265625 C11.04069394 37.91085359 9.55193464 34.60176692 8.0625 31.29296875 C7.70316376 30.49393127 7.34382751 29.6948938 6.97360229 28.87164307 C1.41721542 15.53993496 1.41721542 15.53993496 -8.1015625 5.09765625 C-8.1015625 3.77765625 -8.1015625 2.45765625 -8.1015625 1.09765625 C-5.33538687 -0.28543156 -3.0913825 -0.01444571 0 0 Z " fill="#211F20" transform="translate(600.1015625,606.90234375)"/>
<path d="M0 0 C0 17.82 0 35.64 0 54 C1.32 54.66 2.64 55.32 4 56 C4.75 59.125 4.75 59.125 5 62 C1.06256167 62.05797565 -2.87476719 62.09358789 -6.8125 62.125 C-7.93205078 62.14175781 -9.05160156 62.15851562 -10.20507812 62.17578125 C-11.27822266 62.18222656 -12.35136719 62.18867187 -13.45703125 62.1953125 C-14.9416687 62.21102295 -14.9416687 62.21102295 -16.45629883 62.22705078 C-19 62 -19 62 -22 60 C-21.67 59.01 -21.34 58.02 -21 57 C-18.5 55.875 -18.5 55.875 -16 55 C-14.54657855 53.77512072 -14.54657855 53.77512072 -14.88305664 50.09448242 C-14.8871416 45.46261267 -14.94817474 40.83118695 -15.0222168 36.19995117 C-15.04899873 34.19714933 -15.06339032 32.1941422 -15.06518555 30.19116211 C-15.06827902 27.30733074 -15.10999558 24.42631996 -15.16015625 21.54296875 C-15.15419937 20.64805222 -15.14824249 19.75313568 -15.1421051 18.83110046 C-15.14669799 14.27134488 -15.14669799 14.27134488 -17.3913269 10.52114868 C-19.20266479 9.24330551 -19.20266479 9.24330551 -22 8 C-18.64018976 5.2113575 -14.97952371 3.46502486 -11 1.75 C-10.38382812 1.46898437 -9.76765625 1.18796875 -9.1328125 0.8984375 C-5.34912136 -0.74170329 -4.15734272 -1.03933568 0 0 Z " fill="#211F20" transform="translate(498,606)"/>
<path d="M0 0 C-0.11361602 2.79256219 -0.2403589 5.58344118 -0.375 8.375 C-0.42140625 9.56609375 -0.42140625 9.56609375 -0.46875 10.78125 C-0.7734375 16.7734375 -0.7734375 16.7734375 -3 19 C-7.50969701 19.44357676 -9.94084495 19.52957752 -14 17.5 C-16.29233053 14.63458684 -16.73254017 12.62619218 -16.48046875 8.9609375 C-15.63585047 5.51379624 -13.78447473 4.07354501 -11 2 C-7.16831384 -0.19808782 -4.33239262 -1.38409042 0 0 Z " fill="#ECEFEA" transform="translate(771,638)"/>
<path d="M0 0 C2.6138411 2.18997498 3.82372096 3.86397951 4.3515625 7.265625 C4.43546255 9.63008098 4.50478587 11.68526118 4 14 C0.2626144 16.4915904 -1.57331583 16.45793285 -6 16 C-9.13713064 14.15864071 -10.61652232 12.93472684 -12 9.5625 C-12 6.17591988 -11.07481829 4.64718196 -9 2 C-6.0630474 -0.05586682 -3.54017836 -0.61953121 0 0 Z " fill="#211F20" transform="translate(494,574)"/>
<path d="M0 0 C2.6875 2.4375 2.6875 2.4375 4.6875 9.4375 C-2.2425 9.4375 -9.1725 9.4375 -16.3125 9.4375 C-17.3125 5.4375 -17.3125 5.4375 -16.125 2.8125 C-11.89482136 -2.7304927 -6.15644083 -2.90398152 0 0 Z " fill="#ECEFEA" transform="translate(682.3125,616.5625)"/>
<path d="M0 0 C4.42690311 1.44355536 4.42690311 1.44355536 5.875 3.9375 C6.41258847 7.51395664 6.5317088 10.70134227 4.8125 13.9375 C1.68522887 15.55157542 -0.66939901 15.35455529 -4.125 14.9375 C-7.125 13.375 -7.125 13.375 -9.125 10.9375 C-9.27861797 6.6361969 -8.78141007 4.68768294 -5.9375 1.4375 C-3.125 -0.0625 -3.125 -0.0625 0 0 Z " fill="#211F20" transform="translate(809.125,654.0625)"/>
</svg>
