<svg version="1.1" id="Layer_1" xmlns="http://www.w3.org/2000/svg" xmlns:xlink="http://www.w3.org/1999/xlink" x="0px" y="0px"
	 width="100%" viewBox="0 0 1024 1024" enable-background="new 0 0 1024 1024" xml:space="preserve">
<path fill="#000000" opacity="1.000000" stroke="none" 
	d="
M848.691772,436.790466 
	C833.286926,444.786224 818.250549,452.693512 803.085022,460.344604 
	C799.450012,462.178497 798.205872,464.511475 798.212952,468.551880 
	C798.319031,529.373413 798.344604,590.195435 798.214966,651.016907 
	C798.178528,668.114258 790.559753,680.585510 774.546082,687.594727 
	C768.451965,690.262024 762.548889,693.375916 756.612732,696.392395 
	C698.114014,726.118469 639.632507,755.878174 581.132141,785.600891 
	C566.582397,792.993286 551.971375,800.264954 537.409912,807.634399 
	C530.444702,811.159424 523.890259,810.805847 517.009827,806.887329 
	C473.157776,781.913635 427.821655,759.725586 383.338745,735.932861 
	C351.035645,718.654785 318.824432,701.197571 285.817688,685.278687 
	C271.169464,678.213989 264.554199,666.640625 264.601898,650.467407 
	C264.769440,593.645325 264.444000,536.820740 264.869781,480.001343 
	C264.951294,469.127441 262.249725,462.248108 251.547668,457.748169 
	C237.148178,451.693634 223.483109,443.888824 209.523331,436.794861 
	C206.408188,435.211853 203.233292,433.678101 200.337769,431.744537 
	C192.956772,426.815826 190.875931,418.887573 195.397156,411.315521 
	C211.280228,384.714874 227.385941,358.247223 243.374405,331.709381 
	C246.239380,326.954071 250.435974,324.009094 255.328049,321.527008 
	C309.100739,294.244690 362.811279,266.839966 416.537781,239.466629 
	C445.329193,224.797531 474.122894,210.132782 502.904633,195.444656 
	C506.761292,193.476486 510.660034,191.557419 514.355103,189.312439 
	C523.916931,183.503082 533.254028,183.402542 543.175354,188.840942 
	C555.730896,195.723282 568.666992,201.909836 581.417542,208.438278 
	C645.466980,241.232590 709.508423,274.042511 773.555542,306.841400 
	C782.600220,311.473175 791.560791,316.286102 800.748535,320.615784 
	C806.903015,323.516083 811.476379,327.825928 814.844238,333.577057 
	C829.069336,357.868958 843.194763,382.219940 858.085388,406.115448 
	C859.140930,407.809387 860.071533,409.587952 860.965332,411.374695 
	C865.135742,419.711639 863.163086,427.426666 855.437317,432.750305 
	C853.384460,434.164825 851.159058,435.328918 848.691772,436.790466 
M833.682373,419.267700 
	C835.207336,418.314178 837.097778,417.872711 838.263916,415.865143 
	C824.739441,393.946899 811.147766,371.919769 797.497864,349.798248 
	C796.318726,350.269806 795.534424,350.518494 794.808289,350.883209 
	C757.305603,369.718475 719.821411,388.590637 682.306152,407.400818 
	C635.852234,430.692841 589.370178,453.928741 542.908020,477.204407 
	C536.811890,480.258362 536.675110,480.397736 540.352905,486.410767 
	C549.739563,501.757233 559.107361,517.120178 568.806885,532.268982 
	C579.645508,549.196899 575.653259,550.970459 596.907532,540.241699 
	C640.474060,518.250000 683.684875,495.552826 727.273376,473.605347 
	C759.557434,457.349884 791.565979,440.583191 823.498657,423.660492 
	C826.563049,422.036469 828.746765,418.360077 833.682373,419.267700 
M315.875305,466.534546 
	C318.239838,467.764648 320.593384,469.016327 322.970490,470.221649 
	C372.575867,495.373444 422.202087,520.484314 471.753021,545.742920 
	C475.287445,547.544617 476.919128,546.770691 478.911255,543.657654 
	C491.214142,524.432434 503.229218,505.033020 514.787109,485.351685 
	C518.341309,479.299286 518.290039,479.244324 511.908539,476.038574 
	C470.231750,455.102386 428.554108,434.167786 386.869476,413.247284 
	C347.562714,393.520142 308.248108,373.808594 268.932343,354.099426 
	C266.252777,352.756165 263.541687,351.474823 260.831055,350.194794 
	C259.562073,349.595490 258.569153,349.958527 257.931793,351.216858 
	C257.372589,352.320892 257.907104,353.013092 258.724823,353.768494 
	C259.996765,354.943481 262.023224,355.361267 262.785980,358.095795 
	C256.875610,357.049683 252.991989,359.722931 250.136887,364.275452 
	C241.821381,377.534821 233.445068,390.756348 225.194595,404.056000 
	C222.296600,408.727570 222.798035,413.100891 226.646957,417.271515 
	C229.059830,419.886078 231.618652,422.197327 234.738007,423.840302 
	C261.559998,437.967896 288.397339,452.066345 315.875305,466.534546 
M776.111755,651.825012 
	C776.096924,645.369995 776.070190,638.914917 776.069092,632.459900 
	C776.060486,582.633911 776.064514,532.807922 776.021362,482.981995 
	C776.019714,481.083282 776.602661,479.005341 775.167847,477.305725 
	C767.342285,479.473297 707.753357,511.043579 704.990662,514.459167 
	C708.635986,517.233398 710.632568,517.966492 715.071106,517.405884 
	C717.909363,517.047363 720.326355,517.769043 722.677124,519.160156 
	C727.846252,522.218994 727.942139,524.062012 723.435791,527.963562 
	C715.488525,534.844238 710.619385,543.691345 710.539856,554.085449 
	C710.342224,579.902527 710.718506,605.729126 711.238892,631.544312 
	C711.482849,643.645569 718.741516,647.721008 729.813477,642.572693 
	C735.098511,640.115112 740.097961,636.775085 745.613281,635.131104 
	C762.403564,630.126221 764.959534,606.505005 761.470276,593.532776 
	C758.374634,593.868774 756.221252,596.396179 753.368164,597.151062 
	C747.000427,598.835815 744.948730,602.983643 746.085510,609.133240 
	C747.296997,615.687378 744.386292,619.580322 738.237122,621.445374 
	C737.447144,621.685059 736.711609,622.110168 735.959229,622.466980 
	C729.672119,625.448975 728.778809,624.920532 728.769226,618.073059 
	C728.739563,596.742676 729.124939,575.400940 728.510742,554.087830 
	C728.282898,546.180603 730.953369,541.414307 737.865723,538.449036 
	C738.931641,537.991760 739.884705,537.278503 740.929688,536.764221 
	C744.926575,534.797363 745.875366,535.371460 746.137024,539.784302 
	C746.397034,544.171143 745.558899,548.642151 746.834534,553.403381 
	C750.242676,551.845215 753.201050,550.386780 756.242554,549.129517 
	C759.896790,547.618896 762.369934,545.629944 763.910645,541.452759 
	C765.655396,536.722351 769.296814,532.691589 772.105652,528.368774 
	C774.141357,529.526550 774.100342,530.911987 774.176392,532.223083 
	C774.475464,537.375793 774.993347,542.529358 775.001099,547.683228 
	C775.045166,576.843628 774.912781,606.004395 774.993835,635.164612 
	C775.003967,638.809875 773.788086,641.112366 770.572510,642.728149 
	C765.367615,645.343628 760.270996,648.174377 755.126404,650.910095 
	C689.838928,685.626953 623.526611,718.359314 558.031067,752.673645 
	C556.610046,753.418091 555.239502,754.622192 552.323242,753.473572 
	C552.323242,748.110962 552.565796,742.313782 552.218079,736.552307 
	C552.051331,733.788391 552.734863,732.135254 555.116211,730.906860 
	C558.964355,728.921997 562.687500,726.687622 566.579468,724.797546 
	C569.696594,723.283691 570.754822,721.038147 570.734192,717.622437 
	C570.655701,704.625549 570.719421,691.625610 570.936584,678.630249 
	C571.031006,672.984680 571.626282,667.347534 572.021362,661.287781 
	C574.038452,662.341736 574.175903,663.525208 574.466919,664.624329 
	C578.087097,678.298828 581.819336,691.944946 585.291870,705.656799 
	C587.439087,714.135620 587.258911,714.173584 594.909790,710.527893 
	C595.808044,710.099792 596.763367,709.789551 597.697693,709.439270 
	C600.723511,708.304993 602.267334,706.380188 603.002869,702.963501 
	C607.133545,683.775757 611.584900,664.656677 616.021729,645.536133 
	C616.394287,643.930603 616.300842,641.742065 620.071350,640.907349 
	C620.071350,659.614929 620.071350,678.016663 620.071350,696.695251 
	C633.779053,693.354248 636.692078,689.772522 636.693054,677.627625 
	C636.695801,644.298889 636.717957,610.970154 636.685059,577.641418 
	C636.679565,572.062683 635.487610,571.339233 630.475464,573.685486 
	C625.798584,575.874756 621.193726,578.217529 616.524536,580.423706 
	C614.114685,581.562317 612.695312,583.164368 612.069153,585.942200 
	C606.981445,608.510620 601.747009,631.046143 596.496033,653.577393 
	C596.048889,655.496094 596.850769,657.918945 594.628479,659.393555 
	C593.224792,657.956970 593.130188,656.245361 592.728943,654.664856 
	C588.430847,637.732849 584.203186,620.782715 579.818237,603.873291 
	C578.447815,598.588867 577.415527,598.225037 572.431030,600.455933 
	C567.567505,602.632507 562.748962,604.909546 557.885132,607.085449 
	C556.845825,607.550415 555.652100,608.061890 554.645752,606.986511 
	C553.710693,605.987244 553.953369,604.755920 554.419617,603.694336 
	C555.287659,601.717834 556.661438,599.908997 557.224304,597.865051 
	C558.197632,594.330566 560.484253,589.819641 556.062805,587.638733 
	C552.759705,586.009338 552.755432,583.984619 552.726807,581.348083 
	C552.653137,574.563416 553.520142,567.670593 549.433838,561.502625 
	C546.103943,556.476440 544.159302,550.561829 538.963013,546.258972 
	C538.963013,624.606567 538.963013,702.954163 538.963013,781.162231 
	C540.471008,781.662231 541.336975,781.083862 542.190918,780.601074 
	C561.050537,769.935852 580.689880,760.783325 599.923035,750.842896 
	C655.712708,722.008850 711.534058,693.236023 767.356934,664.466309 
	C772.266174,661.936096 775.742737,658.482300 776.111755,651.825012 
M509.991608,437.488190 
	C515.290771,434.603668 520.955505,432.291779 526.849731,427.593414 
	C491.524872,409.080383 457.282654,391.441406 422.298676,374.741913 
	C424.463593,371.617950 426.772369,370.928589 428.807495,369.878754 
	C439.759308,364.229248 450.861450,358.855377 461.645050,352.903259 
	C465.997040,350.501160 469.415497,350.679199 473.651550,352.995361 
	C494.697784,364.502686 516.295349,374.941345 537.747620,385.662201 
	C541.360107,387.467560 544.321289,387.572083 548.011658,385.685394 
	C583.592285,367.495026 619.266968,349.488586 654.901428,331.403198 
	C656.781555,330.448975 658.945862,329.800354 660.042297,327.678345 
	C659.187744,325.799438 657.405090,325.108948 655.831665,324.302063 
	C623.972168,307.964996 592.086121,291.679749 560.224548,275.346771 
	C558.127441,274.271698 556.365906,274.169006 554.151306,275.329865 
	C548.108032,278.497589 541.834900,281.226410 535.787415,284.386566 
	C533.131226,285.774567 529.952942,286.783630 528.328369,290.667114 
	C552.461609,302.904999 576.383118,315.035492 600.365295,327.196777 
	C599.022095,330.351257 596.915771,330.795959 595.214478,331.649811 
	C580.036621,339.267334 564.769470,346.709991 549.675537,354.489227 
	C546.302063,356.227875 543.733765,356.132385 540.410278,354.469208 
	C517.333862,342.920837 494.131897,331.623596 471.041351,320.103210 
	C468.304138,318.737579 466.233795,318.952759 463.623932,320.321320 
	C431.478455,337.177338 399.275696,353.924133 367.094879,370.712799 
	C365.400513,371.596710 363.770050,372.603149 361.472595,373.916992 
	C364.188202,375.330902 366.074036,376.340515 367.983643,377.303009 
	C407.838257,397.390076 447.815094,417.240875 487.451233,437.750122 
	C495.345978,441.835175 501.996643,443.281525 509.991608,437.488190 
M522.519958,228.957520 
	C526.567688,225.691269 530.403870,226.239029 534.916077,228.600006 
	C555.283875,239.257141 575.821960,249.588943 596.309937,260.015900 
	C597.763245,260.755524 599.214600,262.005493 600.967773,261.316986 
	C603.710876,260.239746 605.043335,261.151947 606.468628,263.696686 
	C608.619568,267.536896 617.761841,268.169189 621.140625,265.083588 
	C617.602539,258.563843 609.691467,257.465607 605.010376,252.238419 
	C614.792908,254.542969 624.105164,257.553864 631.468506,264.262787 
	C630.192932,267.268860 626.849670,266.494263 626.396851,269.145691 
	C633.761169,271.577209 634.228210,271.367157 634.814758,265.060059 
	C665.056763,280.244446 694.928467,295.807526 724.947021,312.544250 
	C717.758606,317.217133 717.837341,317.155701 722.054810,322.558990 
	C727.059204,328.970367 734.987366,330.313812 741.551208,334.006653 
	C743.766113,335.252777 745.293030,333.459930 746.460999,331.747284 
	C747.621948,330.044983 747.793884,328.433838 745.957214,326.916870 
	C744.756836,325.925476 743.186646,324.919708 744.166016,322.612518 
	C750.393555,323.825043 755.401367,327.271881 760.373962,330.827515 
	C764.355957,333.674805 768.969177,334.100586 773.753174,334.124268 
	C769.981934,331.292938 766.045105,328.915222 761.959473,326.828979 
	C728.578552,309.784332 695.120300,292.890717 661.782288,275.762848 
	C619.403931,253.990402 577.100586,232.071472 534.814941,210.119308 
	C530.847900,208.059875 527.541870,208.268951 523.570618,210.310608 
	C457.946350,244.048935 392.248505,277.644104 326.579407,311.295197 
	C314.276886,317.599457 302.031219,324.014496 289.750183,330.360779 
	C287.546478,331.499573 285.333374,332.547119 287.582245,335.540436 
	C290.809143,339.835571 300.286682,342.278931 305.093292,339.952179 
	C332.834412,326.523560 360.209381,312.374847 387.585907,298.221344 
	C432.277130,275.116241 477.104736,252.274841 522.519958,228.957520 
M492.730438,736.990295 
	C491.138916,737.445190 488.907288,737.387878 488.064270,738.441589 
	C483.933044,743.605103 479.920227,740.877808 475.784576,738.739990 
	C459.070801,730.099915 442.488129,721.191284 425.589996,712.928040 
	C413.895203,707.209229 403.272827,698.699036 389.396545,698.134094 
	C387.939362,698.074768 386.365814,696.762573 385.146271,695.690430 
	C379.903381,691.081360 374.654694,686.504150 368.503754,683.097778 
	C358.745728,677.693787 349.169525,671.897034 338.588165,668.186096 
	C334.067688,666.600769 329.870209,668.452148 327.960632,672.283813 
	C326.037903,676.141907 327.145721,679.471252 331.421753,682.481506 
	C332.645294,683.342834 333.950195,684.092224 335.240143,684.855164 
	C357.459503,697.997681 381.077026,708.490112 403.477386,721.375244 
	C428.275635,735.639648 454.209991,747.925171 479.608032,761.152283 
	C490.910553,767.038452 501.904236,773.555664 514.406860,777.960693 
	C514.406860,700.512512 514.406860,623.494324 514.406860,546.476074 
	C514.001648,546.310791 513.596375,546.145569 513.191162,545.980286 
	C508.923615,554.005981 502.676819,561.106018 501.317444,570.508728 
	C500.392853,576.904175 500.408722,583.466858 500.383728,589.956177 
	C500.211273,634.783386 500.146240,679.610901 500.013489,724.438293 
	C500.006104,726.928162 499.764893,729.422974 499.524750,731.905090 
	C499.179596,735.472900 497.322479,737.366455 492.730438,736.990295 
M432.351593,608.499939 
	C432.361420,635.318848 432.363068,662.137695 432.396759,688.956604 
	C432.399414,691.072571 431.813965,693.582092 433.951111,694.956299 
	C437.663300,697.343262 441.417572,699.788696 446.860260,700.676880 
	C448.756805,679.428650 446.687408,658.510864 448.291229,637.672058 
	C449.690002,640.299683 450.656006,642.936340 451.297852,645.649719 
	C455.965088,665.380737 459.887421,685.290039 465.451080,704.805481 
	C466.080841,707.014343 466.038788,709.839844 468.107025,711.115784 
	C473.134460,714.217041 478.223297,717.299805 483.536011,719.360168 
	C485.074463,718.136658 484.801270,716.884827 484.800507,715.772278 
	C484.775299,678.958862 484.727661,642.145447 484.671082,605.332031 
	C484.668823,603.853638 484.931976,602.154480 483.436951,601.227905 
	C479.549744,598.818787 475.714905,596.230530 469.820404,595.079468 
	C468.949585,618.844238 470.806610,641.942627 469.743896,665.414917 
	C466.783905,663.924561 467.031677,661.700073 466.612427,659.873840 
	C461.550842,637.826477 456.177307,615.840759 451.702454,593.673950 
	C450.088684,585.679871 446.262329,581.053345 438.869965,578.421936 
	C433.828064,576.627136 432.438385,577.176819 432.374878,582.513794 
	C432.275848,590.841431 432.350586,599.171082 432.351593,608.499939 
M302.139954,522.567383 
	C302.156586,555.722351 302.160919,588.877258 302.217407,622.032166 
	C302.221161,624.251709 301.572571,626.764038 304.333954,628.176392 
	C314.855957,633.558044 325.135986,639.465637 336.217590,643.652527 
	C342.220673,645.920593 346.523499,643.919006 349.331329,638.158813 
	C350.727112,635.295410 351.648590,632.222229 351.650269,629.028992 
	C351.662933,605.038208 351.932831,581.040527 351.433502,557.059326 
	C351.164917,544.161255 345.945801,533.532349 333.607788,527.453552 
	C324.644287,523.037292 315.816315,518.346558 306.902222,513.828918 
	C305.629761,513.184021 304.299133,512.208313 302.634796,513.250366 
	C301.675079,515.952087 302.337280,518.806519 302.139954,522.567383 
M687.354370,365.219666 
	C683.058960,363.027527 678.748718,360.863800 674.473145,358.633636 
	C671.435974,357.049469 668.655212,357.134491 665.502930,358.759064 
	C635.639404,374.149658 605.702942,389.398682 575.812073,404.736481 
	C573.970032,405.681671 571.643677,406.162933 570.795776,408.830536 
	C571.254028,409.363922 571.658264,410.192291 572.317566,410.547363 
	C580.221680,414.804535 588.157959,419.002289 596.099304,423.190155 
	C598.364441,424.384644 600.264771,423.192474 602.174622,422.137970 
	C630.289062,406.614990 659.483765,393.187683 687.760193,377.984283 
	C690.944214,376.272339 696.471375,376.073059 696.402039,371.675964 
	C696.340088,367.753998 690.885742,367.639221 687.354370,365.219666 
M401.207855,572.608154 
	C398.321564,579.865356 396.890289,587.726135 392.808136,594.571777 
	C390.327209,593.372986 390.715607,591.433777 390.350555,589.928101 
	C387.726074,579.103821 385.234558,568.247375 382.632172,557.417664 
	C380.813477,549.849182 375.201996,545.171265 367.007843,544.270203 
	C365.797394,546.169006 366.493439,548.096130 366.956848,550.020081 
	C371.197601,567.627380 375.300446,585.269470 379.725647,602.830322 
	C382.747650,614.822754 384.917267,626.826050 384.348267,639.293030 
	C383.946472,648.095947 384.268188,656.932495 384.300934,665.753906 
	C384.307648,667.559692 383.983154,669.628662 385.756927,670.802490 
	C390.001740,673.611633 394.365936,676.231445 399.074738,677.554260 
	C401.129059,675.650391 400.597015,673.703857 400.606415,671.947693 
	C400.666077,660.796143 400.818817,649.640747 400.591248,638.493774 
	C400.466858,632.400452 401.490356,626.643127 403.368011,620.886902 
	C408.318451,605.710266 413.068939,590.468323 417.902527,575.253540 
	C418.603699,573.046570 419.889191,570.592529 417.789093,568.718933 
	C414.405731,565.700562 410.191101,562.961243 405.894897,563.084106 
	C402.676270,563.176086 403.335815,568.287537 401.809937,570.936462 
	C401.645447,571.221985 401.557434,571.551514 401.207855,572.608154 
M672.344482,588.503174 
	C672.344482,615.560547 672.344482,642.617859 672.344482,670.136169 
	C677.910095,669.135559 681.406677,666.364319 685.468872,665.057556 
	C689.276367,663.832703 690.776855,661.464722 690.758911,657.234802 
	C690.607666,621.581970 690.701538,585.928040 690.671936,550.274475 
	C690.670532,548.532288 691.264954,546.619446 689.870911,544.962646 
	C689.376465,545.000122 688.834778,544.899109 688.435059,545.092224 
	C676.293274,550.957642 664.162354,556.845581 652.039185,562.749512 
	C650.428223,563.533997 649.412781,564.831116 649.387512,566.677002 
	C649.337463,570.340454 649.256165,574.008789 649.389038,577.667786 
	C649.486023,580.338623 651.028137,581.183105 653.470093,580.106262 
	C655.144409,579.367859 656.725464,578.416199 658.405273,577.692444 
	C662.718628,575.834167 666.752441,573.137451 672.342896,572.441040 
	C672.342896,577.915771 672.342896,582.710876 672.344482,588.503174 
M541.845642,268.567871 
	C540.921387,267.633362 540.000610,266.695404 539.072327,265.764893 
	C535.837158,262.522156 531.721924,260.656433 527.414124,261.702484 
	C521.124207,263.229889 515.596497,266.808655 510.071930,270.172943 
	C508.105133,271.370667 508.301788,273.373260 508.702240,275.042206 
	C509.218170,277.192291 511.214722,276.897308 512.834534,276.509583 
	C521.920471,274.334808 531.123840,273.611176 540.441101,274.030334 
	C541.755859,274.089478 543.242859,274.045074 543.983948,272.714203 
	C544.980469,270.924500 543.411621,270.050415 541.845642,268.567871 
M640.021973,275.541656 
	C639.403625,277.796265 638.723694,280.062347 641.208862,281.856323 
	C643.172974,281.172760 644.941650,280.185913 647.294556,281.214020 
	C649.686951,282.259399 650.661072,280.480835 650.241211,278.268494 
	C649.658081,275.195160 643.266235,273.097534 640.021973,275.541656 
M708.747864,307.945404 
	C706.932678,307.204437 705.354614,307.495544 704.677185,309.440430 
	C703.943787,311.546021 705.929810,311.676636 707.131409,312.443298 
	C708.221619,313.138947 709.199585,314.083191 710.044006,315.073853 
	C711.205627,316.436493 712.448853,316.726990 713.988037,315.863678 
	C715.022034,315.283752 716.098999,314.612610 716.209656,313.355713 
	C716.358459,311.666107 714.869080,311.307800 713.694336,310.702942 
	C712.223877,309.945923 710.807556,309.083801 708.747864,307.945404 
M677.517456,296.546387 
	C678.670105,296.830841 679.684265,298.267212 681.291809,296.768890 
	C680.253601,294.745056 678.556030,293.245514 676.823364,291.833191 
	C675.720398,290.934143 674.376099,290.925842 673.137207,291.716583 
	C672.265015,292.273254 671.601990,293.048523 671.824463,294.153442 
	C672.158020,295.809967 673.573914,295.887329 674.885864,296.062347 
	C675.537109,296.149231 676.187500,296.242279 677.517456,296.546387 
M754.104065,334.945679 
	C755.796326,334.723389 757.776917,335.633148 759.121216,333.678833 
	C758.174500,330.909729 756.128296,330.818878 753.951965,331.690826 
	C752.376648,332.321991 750.575256,333.313629 754.104065,334.945679 
z"/>
<path fill="#000000" opacity="1.000000" stroke="none" 
	d="
M387.358582,428.237274 
	C388.910675,427.785706 390.472015,428.313202 391.192841,426.686035 
	C390.803864,424.200897 387.903198,423.497620 386.998718,420.600922 
	C393.130310,423.360382 398.808960,425.921570 404.689178,429.988495 
	C400.646027,431.349823 398.342285,428.097809 395.063141,428.785339 
	C394.398590,430.167114 393.689789,431.821472 392.826233,433.390656 
	C391.744507,435.356323 391.146240,438.060333 388.044525,437.629700 
	C385.975494,437.342468 384.132050,436.244904 383.527924,434.164764 
	C382.657043,431.166290 384.673126,429.586884 387.358582,428.237274 
z"/>
<path fill="#000000" opacity="1.000000" stroke="none" 
	d="
M318.665710,562.000000 
	C318.665161,554.084717 318.665161,546.669434 318.665161,539.275635 
	C328.142975,539.303711 334.324799,545.102478 334.338348,553.289429 
	C334.373230,574.383728 334.378601,595.478027 334.374908,616.572327 
	C334.374603,618.229187 334.408569,619.926208 334.079956,621.533630 
	C333.564850,624.053345 332.211212,625.374268 329.444092,623.995789 
	C327.214264,622.884827 324.970734,621.758240 322.632965,620.917419 
	C319.444794,619.770813 318.578308,617.605286 318.600372,614.373474 
	C318.718292,597.083008 318.662201,579.791260 318.665710,562.000000 
z"/>
</svg>