<svg version="1.1" id="Layer_1" xmlns="http://www.w3.org/2000/svg" xmlns:xlink="http://www.w3.org/1999/xlink" x="0px" y="0px"
	 width="100%" viewBox="0 0 496 336" enable-background="new 0 0 496 336" xml:space="preserve">
<path fill="#000000" opacity="1.000000" stroke="none" 
	d="
M497.000000,265.533142 
	C487.100769,264.213959 478.026978,259.869598 468.540222,256.805084 
	C461.891418,254.657303 455.283844,252.382050 448.642242,250.211548 
	C447.559692,249.857788 446.289703,249.339188 445.286438,249.597137 
	C436.584290,251.834503 429.176605,248.241180 423.006561,243.218872 
	C413.720764,235.660461 402.416748,234.159851 391.269135,229.721573 
	C392.466888,232.335709 394.935028,231.647888 395.593231,233.548508 
	C394.159485,235.574127 392.473999,234.539780 390.770233,233.971832 
	C385.088165,232.077621 379.373108,230.281601 373.701172,228.358063 
	C370.888947,227.404373 368.609894,227.689819 366.608002,230.151703 
	C364.063171,233.281174 360.846893,235.687317 357.330048,237.648895 
	C350.841003,241.268265 347.340942,247.794373 342.557190,253.025894 
	C327.395874,269.606232 308.720642,280.215271 287.505676,286.811005 
	C284.803284,287.651184 282.059052,288.415009 279.457672,289.508087 
	C275.710175,291.082703 273.541656,293.737579 274.487793,298.138977 
	C275.476471,302.738342 272.921082,305.540680 269.197144,307.221558 
	C265.879456,308.719025 262.350677,310.160492 258.784271,310.627045 
	C238.782791,313.243622 220.968719,307.915192 205.347397,295.173706 
	C204.280579,294.303589 203.530594,293.326904 203.137741,291.963654 
	C201.203262,285.250854 196.604996,280.454010 191.272003,276.388062 
	C178.950150,266.993652 166.567902,257.786224 157.069260,245.207977 
	C123.278160,200.461411 123.714828,142.827499 158.528976,99.062943 
	C183.219315,68.024948 216.257904,52.994488 255.639771,52.875526 
	C309.550171,52.712685 355.138062,88.832840 369.237213,141.808929 
	C371.991760,152.158905 373.706696,162.630890 373.322052,173.371109 
	C373.010925,182.057755 377.974915,189.600983 378.591095,198.112854 
	C378.745483,200.245285 381.361816,200.200623 383.030151,200.729141 
	C417.626862,211.689087 452.236633,222.607758 486.837372,233.554977 
	C490.009399,234.558563 493.137878,235.699814 496.643280,236.888565 
	C497.000000,239.370560 497.000000,241.741104 496.696045,244.433807 
	C493.663879,244.100159 491.671143,245.497650 489.267517,246.797440 
	C490.023499,247.321457 490.264923,247.570892 490.558441,247.679138 
	C492.699768,248.468689 494.851532,249.229874 497.000000,250.000000 
	C497.000000,255.022095 497.000000,260.044189 497.000000,265.533142 
M353.782013,228.270081 
	C368.784332,199.198837 371.166748,168.833115 362.116547,137.681015 
	C357.870911,123.067009 348.421051,111.345299 337.824738,100.659187 
	C330.719452,93.493698 322.049316,89.131287 312.219849,86.928947 
	C296.301758,83.362427 280.345337,79.938675 264.008575,79.115776 
	C250.096817,78.415009 236.085052,77.449615 222.576935,82.200699 
	C215.937729,84.535858 209.149200,86.137329 202.187210,86.943810 
	C194.548752,87.828636 187.814514,90.805183 181.429962,94.948723 
	C177.161530,97.718910 173.870270,101.491562 170.434418,105.075172 
	C165.373474,110.353767 159.055878,114.363869 154.947006,120.592682 
	C144.938049,135.765610 140.467178,152.471680 140.206238,170.596237 
	C139.915161,190.813980 145.490341,209.445602 154.995743,226.914139 
	C160.092316,236.280350 164.526825,246.570099 172.150955,253.937531 
	C197.465591,278.399780 227.685822,290.751953 263.356018,286.704041 
	C302.760193,282.232330 333.048340,263.204285 353.782013,228.270081 
M383.965942,212.750748 
	C393.595917,215.604645 402.882355,219.697174 413.772095,221.696045 
	C411.665283,217.655899 408.847809,216.283661 405.935516,215.251282 
	C399.083862,212.822418 392.174622,210.553909 385.266205,208.288986 
	C383.504486,207.711426 381.198578,206.110046 380.143921,208.836227 
	C379.256409,211.130432 381.735016,211.681488 383.965942,212.750748 
z"/>
<path fill="#000000" opacity="1.000000" stroke="none" 
	d="
M300.306213,178.606567 
	C298.253845,188.729431 292.974030,196.137161 284.392456,200.957367 
	C278.067810,204.509857 273.648865,203.095306 269.855621,196.611450 
	C262.552917,184.128845 263.841217,171.126083 267.868164,158.049362 
	C268.695770,155.361847 269.977692,152.842926 271.554321,150.445587 
	C278.070648,140.537155 288.022217,140.794266 294.610809,150.821762 
	C300.161224,159.269226 300.497833,168.612396 300.306213,178.606567 
M274.938354,195.566391 
	C279.755463,199.937790 283.206360,200.005417 287.895782,195.590286 
	C298.509521,185.597290 299.973572,174.607025 294.338135,159.134476 
	C292.949371,155.321533 290.824921,152.031403 287.589905,149.440201 
	C281.591797,144.635757 277.043243,145.162628 273.404663,152.035492 
	C265.769470,166.457596 265.811554,180.897858 274.938354,195.566391 
z"/>
<path fill="#000000" opacity="1.000000" stroke="none" 
	d="
M319.257843,176.851501 
	C323.069946,183.834534 324.583710,191.468887 329.128693,198.018845 
	C326.172729,200.834839 324.294495,200.870316 323.225433,196.353638 
	C321.368469,188.507874 317.513947,181.479889 313.811340,174.403763 
	C313.269043,173.367416 312.789032,172.286423 311.392578,172.065582 
	C308.716980,172.881592 309.417053,175.167816 309.365387,177.039169 
	C309.200104,183.025803 309.255066,189.021347 308.959198,195.000320 
	C308.821198,197.788956 308.341858,200.719910 304.714478,201.686981 
	C304.495209,201.227722 304.068054,200.770950 304.151642,200.445312 
	C307.909637,185.807724 305.107513,171.094803 304.686890,156.412430 
	C304.672760,155.919418 304.575348,155.416534 304.437714,154.941147 
	C302.283295,147.500549 302.280273,147.501144 310.200897,147.648895 
	C310.700226,147.658203 311.199738,147.669006 311.698547,147.692276 
	C316.089020,147.897156 320.778870,148.042374 322.739746,152.810074 
	C324.577728,157.278976 322.074310,161.238113 318.912140,163.903778 
	C313.452606,168.506119 317.106720,172.369949 319.257843,176.851501 
M317.532227,161.886246 
	C319.506470,159.232056 321.101807,156.312561 318.678680,153.312927 
	C316.147614,150.179657 312.349243,150.135696 308.643158,150.360611 
	C306.958923,150.462830 306.247192,151.534119 306.478027,153.040298 
	C307.264221,158.169449 308.167358,163.280685 309.063904,168.625778 
	C313.016479,167.677353 314.593750,164.489258 317.532227,161.886246 
z"/>
<path fill="#000000" opacity="1.000000" stroke="none" 
	d="
M224.008270,184.263031 
	C225.271988,172.513168 224.337540,172.027237 214.830490,170.411438 
	C212.437668,170.004776 210.381516,168.802307 207.386810,169.636673 
	C204.517166,170.436188 202.215683,167.214401 201.787918,163.857208 
	C201.245407,159.599380 202.686874,155.855927 205.593384,152.902328 
	C210.082993,148.339981 215.016754,144.330063 221.972275,144.518875 
	C223.375183,144.556976 225.401077,144.504013 224.889679,146.802963 
	C224.500854,148.550964 222.976913,148.112091 221.604370,147.816467 
	C216.427261,146.701340 206.874237,152.589493 205.474518,157.689392 
	C204.449295,161.424789 206.350784,164.196518 210.339417,164.678635 
	C213.637680,165.077347 216.945190,165.400375 220.249939,165.744202 
	C224.663254,166.203339 227.471634,168.836075 227.988068,172.980347 
	C229.128586,182.132843 227.884460,190.949722 222.182526,198.601196 
	C218.636841,203.359177 213.521835,204.116730 208.243683,202.871170 
	C202.450272,201.503967 198.086975,197.962463 195.949371,192.215500 
	C195.434555,190.831421 195.577209,189.229202 197.385696,187.989273 
	C199.402435,190.551758 199.561310,194.128983 201.932281,196.441956 
	C209.865555,204.181198 220.074173,201.342026 222.895035,190.544861 
	C223.395477,188.629410 223.590134,186.634094 224.008270,184.263031 
z"/>
<path fill="#000000" opacity="1.000000" stroke="none" 
	d="
M157.315582,177.289597 
	C156.247971,185.052963 159.433960,192.403870 157.955002,200.750290 
	C150.332153,191.885681 155.159622,152.503235 163.993317,147.362259 
	C162.851151,151.135941 161.914520,154.482468 160.819550,157.776337 
	C159.756073,160.975494 161.271683,162.236343 164.155228,162.168930 
	C166.800201,162.107086 169.458389,161.773300 172.071243,161.327652 
	C180.866394,159.827576 180.884155,159.792984 182.660934,150.961441 
	C183.161545,148.473175 183.454071,145.932617 187.145187,145.540466 
	C187.531540,149.291443 185.670441,152.577759 184.872849,155.863098 
	C181.647690,169.147629 181.953964,182.525787 182.753265,195.947998 
	C182.876038,198.009674 183.214554,199.514206 180.160126,200.278427 
	C178.943359,188.071732 177.806274,176.057068 180.337677,163.198547 
	C173.331635,163.950058 167.123474,164.595062 160.921448,165.294357 
	C159.125626,165.496841 158.490326,166.746170 158.321671,168.422226 
	C158.039291,171.228378 157.661469,174.024902 157.315582,177.289597 
z"/>
<path fill="#000000" opacity="1.000000" stroke="none" 
	d="
M343.333893,195.911926 
	C348.643616,181.260498 340.512390,170.697037 333.408722,159.860184 
	C331.310730,156.659607 329.133789,153.508560 326.915955,150.389587 
	C325.682068,148.654266 325.300720,147.130295 327.763763,145.468338 
	C334.316589,153.704941 338.870483,163.413773 346.276489,171.505447 
	C351.409454,164.146057 348.951141,155.706802 350.159424,147.833603 
	C352.913727,148.900375 352.347015,150.419250 352.371948,151.629272 
	C352.512970,158.475327 352.158875,165.254440 349.475677,171.703766 
	C348.025299,175.189880 348.250092,178.886673 348.349060,182.538254 
	C348.467041,186.888382 347.975311,191.172913 347.377350,195.468140 
	C347.044037,197.862366 345.988159,199.467224 343.601868,200.242722 
	C341.897003,199.047775 342.871979,197.617447 343.333893,195.911926 
z"/>
<path fill="#000000" opacity="1.000000" stroke="none" 
	d="
M243.377762,192.459534 
	C243.395767,179.194839 243.268707,166.278305 243.509796,153.368652 
	C243.570389,150.123688 242.392227,149.380066 239.559906,149.186829 
	C236.936447,149.007843 234.234482,149.835236 231.482056,148.633713 
	C231.371399,146.124710 232.753479,144.750336 235.025864,145.254654 
	C243.432755,147.120544 251.838318,146.934708 260.294067,145.880371 
	C260.728333,145.826233 261.210999,146.160599 261.794067,146.355087 
	C261.824219,149.350647 259.724335,149.211960 257.734985,149.312134 
	C246.187012,149.893661 246.419022,149.903320 246.319885,161.702682 
	C246.222565,173.284256 246.673874,184.835373 247.201584,196.392776 
	C247.326004,199.117538 247.186249,201.741074 243.613861,202.634674 
	C241.785187,199.265518 243.577194,196.002304 243.377762,192.459534 
z"/>
<path fill="#000000" opacity="1.000000" stroke="none" 
	d="
M195.307465,151.165192 
	C191.390701,166.043320 191.249008,180.728943 192.827621,195.491287 
	C193.101944,198.056763 193.534821,200.408615 190.311234,201.406799 
	C185.686905,191.826416 189.887772,148.310928 195.603043,145.570435 
	C196.983139,147.368835 195.460480,149.036240 195.307465,151.165192 
z"/>
</svg>