<svg version="1.1" id="Layer_1" xmlns="http://www.w3.org/2000/svg" xmlns:xlink="http://www.w3.org/1999/xlink" x="0px" y="0px"
	 width="100%" viewBox="0 0 1000 1000" enable-background="new 0 0 1000 1000" xml:space="preserve">
<path fill="#FEFEFE" opacity="1.000000" stroke="none" 
	d="
M466.000000,1001.000000 
	C312.166656,1001.000000 158.833313,1000.984070 5.500067,1001.093933 
	C1.750629,1001.096619 0.905755,1000.249084 0.906896,996.500000 
	C1.007416,666.166687 1.007416,335.833344 0.906896,5.500028 
	C0.905755,1.750898 1.750897,0.905753 5.500028,0.906894 
	C335.833344,1.007430 666.166687,1.007430 996.500000,0.906894 
	C1000.249084,0.905753 1001.094238,1.750897 1001.093140,5.500028 
	C1000.992615,335.833344 1000.992615,666.166687 1001.093140,996.500000 
	C1001.094299,1000.249084 1000.249329,1001.096008 996.499939,1001.093750 
	C819.833313,1000.986145 643.166687,1001.000000 466.000000,1001.000000 
z"/>
<path fill="#000000" opacity="1.000000" stroke="none" 
	d="
M537.213867,541.412415 
	C507.142822,541.698059 477.340790,541.762512 447.538788,541.825134 
	C444.707886,541.831055 441.876862,541.806030 439.046143,541.827698 
	C425.636475,541.930420 417.217926,550.273499 417.200378,563.668396 
	C417.158325,595.807312 417.192078,627.946289 417.193695,660.085266 
	C417.193756,661.417358 417.178528,662.749451 417.062683,664.539124 
	C416.829193,665.105652 416.720978,665.255920 416.575226,665.317505 
	C409.576202,668.278503 409.575836,668.277649 409.533691,676.479614 
	C405.691101,676.854309 402.006775,676.531189 398.571289,678.602722 
	C396.725739,679.715454 394.943176,677.291687 392.611572,677.741821 
	C392.637390,680.260925 394.819946,681.251526 396.059357,682.816467 
	C397.166382,684.214233 399.080231,685.464844 398.210022,687.473083 
	C397.349487,689.459045 395.304535,688.437561 393.744049,688.359375 
	C391.448639,688.244324 389.380554,688.586243 388.222198,690.835205 
	C387.001373,693.205505 386.877930,695.636841 388.470642,697.900085 
	C390.050720,700.145386 392.278503,701.196838 394.965973,700.411377 
	C397.990082,699.527466 399.815552,697.414917 399.531342,694.152283 
	C399.225189,690.638428 399.405640,688.522400 403.958740,690.285034 
	C406.613220,691.312683 409.986664,688.025513 410.624969,684.446167 
	C410.942139,682.667725 410.596649,680.774719 411.819092,678.838074 
	C413.726868,677.846191 415.152191,678.186707 416.676910,679.724976 
	C417.021484,704.480408 417.201874,728.959045 417.059204,753.435852 
	C417.018524,760.414795 411.145172,766.062378 404.083191,766.090576 
	C370.936096,766.222778 337.787842,766.217163 304.640686,766.089966 
	C297.741699,766.063477 292.510742,760.795593 291.698090,753.895142 
	C291.562317,752.741882 291.550934,751.569275 291.550842,750.405579 
	C291.547791,712.926880 291.553192,675.448242 291.642731,637.510864 
	C292.077148,635.747437 293.023926,634.847900 293.874207,633.882080 
	C295.968567,631.503296 294.215210,630.972595 291.976288,630.349121 
	C291.658142,629.685730 291.629242,629.210815 291.678040,628.385742 
	C292.067444,627.239014 292.595947,626.463989 291.880737,625.271484 
	C291.689758,621.894043 291.619232,618.822083 291.621643,615.290771 
	C296.183380,614.456848 300.680878,615.340210 305.216217,614.288879 
	C307.175659,613.834656 307.922913,615.763489 307.081940,617.740051 
	C306.509369,619.085815 305.281006,620.076904 304.732300,621.744202 
	C307.181091,621.164673 308.385773,619.569702 309.163605,617.748718 
	C310.516785,614.580994 308.356689,611.602295 304.941132,611.733765 
	C304.108917,611.765747 303.323547,612.072815 302.521088,612.276794 
	C300.613312,612.761841 298.626709,613.633240 296.922089,611.901917 
	C295.857178,610.820251 296.214539,609.709900 298.762177,605.684753 
	C296.287689,606.086182 294.707001,608.699463 292.009705,607.323730 
	C291.642212,577.854065 291.469971,548.534912 291.661560,519.218201 
	C291.691162,514.686768 290.449341,513.819153 286.170715,513.869019 
	C265.349060,514.111633 244.523087,513.987061 223.698639,513.987976 
	C216.209930,513.988281 211.308609,511.050232 208.935425,505.156616 
	C206.497589,499.102448 208.132019,493.623047 214.027985,488.319214 
	C290.064972,419.918640 366.106903,351.523590 442.456238,283.012939 
	C445.388275,281.652161 446.748108,283.696594 448.288971,285.094208 
	C451.594452,288.092255 454.419922,291.605438 458.759369,294.971680 
	C457.322723,288.650024 461.335236,289.096588 465.261902,289.103760 
	C462.131958,286.463562 455.976807,287.493683 457.850128,280.955566 
	C456.076813,281.525879 456.366547,282.518036 456.146667,283.252472 
	C455.043793,286.936218 453.912811,287.416748 451.053009,285.091248 
	C449.278687,283.648438 447.374237,282.187592 446.922729,279.396423 
	C461.442474,266.011292 475.749084,252.834244 490.328949,239.966812 
	C496.085602,234.886322 503.191864,235.685532 509.664276,241.436371 
	C535.406799,264.309235 561.120605,287.214417 587.004578,310.393677 
	C587.899597,315.282288 592.362854,317.802734 593.465820,322.491028 
	C591.960388,324.344757 590.223267,323.333527 588.638306,323.455200 
	C584.892883,323.742828 582.219543,326.537079 582.485107,329.918579 
	C582.753601,333.336487 586.475281,336.728607 589.549011,336.356903 
	C593.081726,335.929688 595.920044,331.896057 595.132568,328.316467 
	C594.814819,326.871918 593.960876,325.539001 594.397583,323.647064 
	C596.399536,321.782532 597.455139,323.567413 598.538574,324.483124 
	C600.010071,325.726868 601.555908,326.189667 603.733398,325.816833 
	C626.126953,345.291809 648.215881,364.786896 670.241211,384.353577 
	C705.097961,415.319275 739.912109,446.332947 774.889648,477.626526 
	C775.555176,478.721527 775.885437,479.619293 776.490173,480.763794 
	C776.664429,482.186157 776.216248,483.618622 775.273499,483.365753 
	C769.852905,481.911957 765.107239,487.092834 759.057678,484.033478 
	C760.260437,487.432861 762.873779,488.286530 764.348755,490.137787 
	C765.836731,492.005493 768.346130,493.343414 767.257874,496.664185 
	C765.107422,497.758850 764.061096,496.028381 762.653809,495.367065 
	C758.979553,493.640533 755.453003,494.783356 753.972229,498.249359 
	C752.563660,501.546173 754.943848,506.210449 758.625977,507.369049 
	C762.064819,508.451050 765.432373,506.207764 766.319275,502.328705 
	C766.692871,500.694733 766.005676,499.025055 766.849976,497.167114 
	C767.640198,496.491547 768.252380,496.381927 768.938171,496.433716 
	C774.651001,496.865173 776.102051,495.581940 776.751770,489.801422 
	C776.990234,487.680145 776.242737,484.856232 780.155090,484.639008 
	C781.545959,484.771912 782.468750,485.187103 783.727234,485.773560 
	C787.301086,488.295715 790.393677,490.761536 792.026428,494.578674 
	C795.930176,503.704712 789.525391,513.605408 779.348389,513.909668 
	C772.550354,514.112915 765.741333,513.947205 758.476196,513.863281 
	C753.175293,509.709869 749.011414,504.867737 743.760681,500.956543 
	C746.292603,505.907104 742.587830,509.344696 741.229858,513.523438 
	C732.499268,513.841675 724.001099,514.210571 715.533020,513.857117 
	C710.895935,513.663574 709.504761,514.640930 709.521179,519.638367 
	C709.719666,580.075867 709.636475,640.514343 709.539795,701.403687 
	C708.848450,703.044067 708.395020,704.244568 709.300842,705.838379 
	C709.481750,707.451477 709.537109,708.764282 709.504700,710.463196 
	C708.280701,713.372131 707.654358,715.915039 709.264587,718.842163 
	C709.487061,719.990784 709.560791,720.836914 709.571899,721.996948 
	C705.945129,724.229248 703.156311,721.651245 700.108398,720.656616 
	C698.551453,720.148376 696.943787,718.959045 695.502380,720.516602 
	C694.083191,722.050171 695.200500,723.675476 695.938293,725.126526 
	C697.593079,728.381042 699.026855,731.749146 701.265381,735.717834 
	C701.757202,733.036194 701.005981,730.595642 703.159302,729.211182 
	C704.979492,728.040833 706.641174,726.513245 709.266846,727.857788 
	C709.531982,736.121338 709.815186,744.115540 709.578613,752.094299 
	C709.318970,760.853821 703.620422,766.138733 694.780334,766.151062 
	C662.811829,766.195679 630.843201,766.195801 598.874634,766.161072 
	C589.271667,766.150635 583.897888,760.640259 583.887329,750.859314 
	C583.862549,727.882080 583.893860,704.904846 583.987061,681.465942 
	C585.047791,679.954468 586.377808,679.949036 587.661560,679.722717 
	C594.425354,678.530701 595.660095,675.994873 592.331726,670.217407 
	C592.000366,669.642090 591.785156,669.041199 591.984497,668.088013 
	C593.430481,666.846436 594.659973,667.408264 595.936523,667.738403 
	C601.652344,669.216431 604.149780,667.396729 604.697266,661.387573 
	C604.801453,660.244080 604.775879,659.087830 605.302368,657.658264 
	C605.773438,656.907349 606.224792,656.644409 606.724731,656.754578 
	C612.788452,658.090820 614.807495,656.908875 615.691956,650.852356 
	C616.141724,647.772339 617.006775,646.000427 620.568909,646.006714 
	C624.104126,646.012939 624.104675,645.717163 626.938232,642.055664 
	C625.954102,641.527405 625.576782,642.498047 625.012268,642.830200 
	C623.641968,643.636719 622.184814,644.305115 620.975525,642.865662 
	C619.908203,641.595215 620.889465,640.374573 621.665894,639.279358 
	C622.849854,637.609436 625.205688,635.962036 621.963928,634.105286 
	C619.634888,632.771240 615.795593,634.055237 615.650452,636.893738 
	C615.351074,642.749329 613.121582,644.819397 607.155701,645.112915 
	C604.497070,645.243652 601.745972,646.669006 598.416260,645.114136 
	C599.260376,650.146606 604.649841,651.348755 605.126953,655.959839 
	C603.720215,657.124634 602.456116,656.678833 601.141479,656.401428 
	C594.974548,655.099915 592.037537,657.774841 592.610596,664.133911 
	C592.699951,665.125549 592.944824,666.104736 592.481812,667.408691 
	C588.025330,668.521851 587.240906,664.154846 584.360107,662.258423 
	C584.032776,641.840759 583.939087,621.687622 583.882446,601.534424 
	C583.849182,589.704895 583.351318,577.846008 584.011108,566.053406 
	C584.780273,552.306763 575.826294,540.423401 559.439392,541.739136 
	C554.595337,540.721069 557.799011,538.931824 558.676086,537.720154 
	C562.077576,533.021179 560.357361,528.238403 554.857910,527.417114 
	C550.604919,526.781982 548.283142,529.122925 548.382874,533.927795 
	C548.412598,535.360291 549.308350,537.103577 547.740662,538.081726 
	C545.938599,539.206177 544.695679,537.556641 543.377197,536.639099 
	C541.897583,535.609558 540.690247,534.147217 538.326172,533.627197 
	C538.513123,536.276917 539.607544,539.019409 537.213867,541.412415 
z"/>
<path fill="#E2E2E2" opacity="1.000000" stroke="none" 
	d="
M17.353916,912.314331 
	C16.135092,909.360840 19.430811,909.247070 20.112606,907.062439 
	C21.605551,906.423340 22.667683,907.513184 23.974726,907.603455 
	C25.464352,907.706238 26.973326,907.821960 27.976942,906.402710 
	C28.812536,905.221191 28.818642,903.934387 28.063147,902.724548 
	C27.138323,901.243469 25.626225,901.293091 24.125286,901.377075 
	C22.954855,901.442566 21.994324,902.205505 20.505829,902.294922 
	C20.131960,900.745850 20.098743,899.237854 20.083138,897.277039 
	C22.597544,895.297241 26.116846,898.870056 28.392675,894.678589 
	C26.648943,896.090881 25.187122,897.168152 23.268684,895.996765 
	C21.551390,894.948242 21.217754,893.125122 20.257393,891.257812 
	C19.694101,890.584167 19.361530,890.162537 18.996197,889.459778 
	C20.594418,887.154236 22.916761,888.072815 24.952868,887.754761 
	C25.854853,887.613892 26.432434,888.077820 26.546612,886.095825 
	C26.717224,883.134155 26.098457,883.895813 24.176338,884.064758 
	C22.491823,884.212891 21.373365,882.544312 20.119003,880.979431 
	C19.989237,879.728333 20.527258,877.947021 21.016171,878.347229 
	C24.850653,881.485779 28.883865,876.066956 32.492199,878.798218 
	C33.273533,879.389648 32.747444,880.640015 32.676086,881.632812 
	C32.294720,886.938904 33.341240,892.136047 31.621374,897.663757 
	C30.831020,900.203979 32.402382,904.753357 32.311794,908.470032 
	C32.203987,912.893127 31.669235,917.303528 32.836102,921.737549 
	C33.179146,923.041016 33.058475,925.558716 30.043364,924.916748 
	C29.511974,924.281921 29.236288,923.876038 29.100302,923.400146 
	C27.364923,917.327332 26.922646,917.205994 22.263489,921.543457 
	C19.233812,924.363953 18.146086,923.765808 16.281868,918.203186 
	C14.295565,916.498230 15.198958,915.350830 16.819469,914.119141 
	C20.534954,913.889648 23.996368,914.463318 28.405117,912.794373 
	C24.068048,913.321167 20.902634,912.243347 17.353916,912.314331 
z"/>
<path fill="#E2E2E2" opacity="1.000000" stroke="none" 
	d="
M17.380867,794.377197 
	C16.989750,792.664368 17.737415,791.668884 19.379883,790.852661 
	C21.300161,789.485901 23.207319,789.945740 24.942173,789.596558 
	C26.767746,789.229065 28.639837,788.694580 28.465162,786.314453 
	C28.295744,784.005920 26.376915,783.670654 24.554943,783.377686 
	C22.589773,783.061646 20.657190,783.847107 18.393120,783.372559 
	C18.059902,782.407471 18.025478,781.629272 17.987652,780.461304 
	C18.077751,778.120544 17.659813,775.104858 19.905991,775.036072 
	C22.784622,774.947937 26.440517,772.534851 28.764954,776.507996 
	C26.741264,773.019409 25.852507,772.846375 17.466871,774.258850 
	C17.099543,773.341003 17.078831,772.486511 17.092928,771.205322 
	C18.051264,769.883118 17.947491,768.706360 18.034611,767.568115 
	C18.293076,764.191467 19.950674,763.700378 22.856340,765.629761 
	C23.589705,766.500244 23.262442,768.037964 25.137012,767.408936 
	C25.590614,767.318359 25.754345,767.266113 25.908659,767.286194 
	C26.313417,767.338928 26.693130,766.935120 26.595791,766.882874 
	C23.640751,765.295715 20.426142,764.243042 17.281679,762.264771 
	C17.284220,759.340149 18.711617,758.587280 21.144310,759.612000 
	C23.591770,760.642944 26.031431,761.693481 28.458416,762.771606 
	C31.716810,764.219055 34.772858,765.636719 31.658522,770.067810 
	C30.276499,772.034058 33.631672,773.454712 32.960888,775.544067 
	C31.550625,779.936768 33.835636,784.714722 31.521061,789.007996 
	C30.892494,790.173950 31.175491,791.096619 32.044994,792.150452 
	C33.675255,794.126221 33.148121,795.812134 30.209370,796.930786 
	C28.047075,795.048706 26.053011,794.829041 23.855932,795.038940 
	C21.780138,795.237244 19.667965,795.551331 17.380867,794.377197 
z"/>
<path fill="#E2E2E2" opacity="1.000000" stroke="none" 
	d="
M18.259344,856.227173 
	C17.981625,855.605164 17.961239,855.203613 17.941719,854.500305 
	C18.404924,852.094360 17.631262,849.420166 20.488447,848.401855 
	C23.091419,847.474121 24.887629,848.868591 26.592625,850.591370 
	C27.068356,851.072083 27.566742,852.098511 28.531090,851.233948 
	C28.759809,851.028870 28.874542,850.610779 28.799112,850.306335 
	C28.417316,848.765259 27.604851,850.550354 26.956987,850.072876 
	C24.208633,848.047363 21.275370,846.793335 17.500132,848.318054 
	C16.714680,846.636108 17.532238,845.234497 17.955242,843.377441 
	C20.259487,842.351257 22.977831,842.831238 24.231909,839.903198 
	C24.900440,838.342163 26.252024,838.917419 27.586927,839.872742 
	C24.999781,835.647888 21.536196,836.202087 17.571291,837.373901 
	C17.175852,836.438049 17.123375,835.547302 17.104582,834.210449 
	C19.472042,826.278748 20.372168,825.987183 27.360630,830.445374 
	C28.067823,830.896484 28.707954,831.420471 29.492130,832.347168 
	C35.137684,841.623413 32.453735,851.254517 31.805117,860.695374 
	C31.599947,863.681702 29.233294,864.604858 26.257904,864.389832 
	C26.415693,858.481323 26.415693,858.481323 18.259344,856.227173 
z"/>
<path fill="#0D0D0D" opacity="1.000000" stroke="none" 
	d="
M767.356567,497.033997 
	C766.928040,492.487854 762.986816,490.853943 760.390137,488.252838 
	C759.103760,486.964233 756.313965,486.495270 757.833557,483.853424 
	C759.309326,481.287842 761.005676,482.368896 762.605774,483.998352 
	C763.005432,484.405457 764.189270,484.773438 764.309143,484.617767 
	C767.418884,480.578278 772.121216,482.968933 775.946106,481.332916 
	C776.456787,480.617584 776.968506,480.461243 777.922729,480.687988 
	C778.753723,481.172668 779.207031,481.486115 779.812866,482.035828 
	C780.747986,483.162628 780.988403,484.153076 780.289246,485.610107 
	C778.649963,485.443176 777.903259,485.718201 777.977783,487.437408 
	C778.056091,489.241882 778.186218,491.108215 777.834045,492.854858 
	C776.908508,497.446228 772.652649,499.141357 767.356567,497.033997 
z"/>
<path fill="#222222" opacity="1.000000" stroke="none" 
	d="
M537.396484,541.745300 
	C537.343384,539.104431 538.685608,536.563660 536.646240,534.090027 
	C536.086609,533.411133 536.183350,532.529907 536.895081,531.850647 
	C537.851807,530.937561 538.674255,531.401062 539.510010,532.071838 
	C541.930786,534.014771 544.365112,535.940796 546.773193,537.856750 
	C548.621521,536.531982 547.110352,535.280396 547.015686,534.160583 
	C546.723938,530.709106 547.340515,527.520142 550.858154,526.383301 
	C554.783447,525.114624 558.721619,526.110840 560.960266,529.761475 
	C562.764709,532.704163 562.977844,536.001343 559.524109,538.524170 
	C559.121887,538.817993 556.249146,539.556519 558.833862,541.448120 
	C556.289978,541.740601 553.587646,541.817444 550.451111,541.768921 
	C549.683228,540.992126 549.203430,540.841858 548.308960,541.418091 
	C544.648560,541.695129 541.248352,541.775818 537.396484,541.745300 
z"/>
<path fill="#3F3F3F" opacity="1.000000" stroke="none" 
	d="
M709.625000,727.783203 
	C703.889160,728.109863 702.315613,729.828979 703.318237,735.067078 
	C703.498535,736.009521 703.488281,736.732788 702.725708,737.228699 
	C701.597168,737.962708 700.668213,737.176025 700.252563,736.342896 
	C697.889099,731.605652 695.359314,726.915649 693.495117,721.979553 
	C692.521301,719.400879 696.004150,717.438293 698.923401,718.861572 
	C702.040955,720.381531 705.013245,722.227295 709.071777,722.298950 
	C709.596802,724.018005 709.684509,725.725159 709.625000,727.783203 
z"/>
<path fill="#0E0E0E" opacity="1.000000" stroke="none" 
	d="
M446.714935,279.155090 
	C448.119476,280.309784 449.109497,281.670349 450.335327,282.767487 
	C451.501923,283.811584 452.326233,286.051849 454.168671,285.360809 
	C455.797455,284.749878 454.794617,282.690979 454.992249,281.285522 
	C455.184937,279.914978 455.313873,278.381866 457.069214,278.452362 
	C458.791534,278.521576 459.024475,280.078552 458.957428,281.437317 
	C458.818695,284.248779 459.134460,286.266418 462.861755,286.149811 
	C464.465332,286.099609 467.638855,285.998138 467.306793,288.591675 
	C466.993774,291.036163 464.272980,291.253357 461.965027,290.848206 
	C461.192841,290.712646 460.474701,290.001007 459.634003,290.611481 
	C458.947083,291.823486 460.099884,292.393036 460.518982,293.204590 
	C461.138245,294.403687 461.025177,295.510864 459.952209,296.321930 
	C458.664612,297.295197 457.793304,296.269836 456.973389,295.458771 
	C453.894135,292.412537 450.865723,289.314423 447.761719,286.293854 
	C446.472229,285.039062 445.453400,283.389130 443.123413,282.952576 
	C443.977753,281.681061 445.190613,280.463440 446.714935,279.155090 
z"/>
<path fill="#3F3F3F" opacity="1.000000" stroke="none" 
	d="
M291.524261,607.570862 
	C293.971252,607.651978 295.448334,606.362244 296.909027,604.908997 
	C297.800629,604.021912 298.788879,602.601013 300.160553,604.209290 
	C301.305786,605.552124 300.607422,606.705383 299.338684,607.520752 
	C297.903229,608.443237 296.069580,609.452454 297.295166,611.334595 
	C298.412170,613.049927 300.328796,612.035889 301.827271,611.369263 
	C305.486633,609.741150 308.699402,609.763062 310.548340,613.909241 
	C311.776703,616.663818 308.946808,621.847656 305.681519,623.338684 
	C304.667419,623.801697 303.744385,623.851624 302.965637,622.994934 
	C302.028870,621.964417 302.659210,621.195190 303.499573,620.515015 
	C303.757324,620.306335 304.135773,620.195190 304.305695,619.938049 
	C305.245605,618.516113 307.665131,617.339661 306.438293,615.465759 
	C305.392609,613.868591 303.225311,614.929260 301.887054,615.750671 
	C298.407074,617.886658 295.591095,615.417664 292.104553,614.787659 
	C290.906189,612.577637 291.408539,610.259644 291.524261,607.570862 
z"/>
<path fill="#0C0C0C" opacity="1.000000" stroke="none" 
	d="
M591.696899,667.851807 
	C593.487366,670.706482 597.645935,672.482727 595.584778,676.445251 
	C593.376892,680.690002 589.299561,681.401917 584.495361,681.003906 
	C584.016846,674.973511 583.962097,668.942688 584.009155,662.452881 
	C587.895691,662.167969 588.708191,666.132996 591.696899,667.851807 
z"/>
<path fill="#0E0E0E" opacity="1.000000" stroke="none" 
	d="
M741.446167,513.862000 
	C740.942810,511.628510 740.908691,509.559235 742.506226,507.743256 
	C743.972229,506.076813 744.199707,504.269562 742.189026,502.625061 
	C741.202881,501.818481 740.807251,500.725311 742.007019,499.695068 
	C743.044495,498.804260 744.244141,498.826355 745.123535,499.762573 
	C749.352905,504.265625 754.456055,507.924805 758.008911,513.432251 
	C752.645935,513.836609 747.276672,513.893311 741.446167,513.862000 
z"/>
<path fill="#E2E2E2" opacity="1.000000" stroke="none" 
	d="
M18.362507,805.426025 
	C18.081900,802.646240 19.912201,802.041138 22.362963,801.453857 
	C24.223082,801.008789 25.655319,800.930603 25.964352,798.983704 
	C26.238403,797.257141 27.165371,795.963928 29.563004,796.655090 
	C29.839252,796.837830 30.014250,797.008850 30.104832,797.093506 
	C29.856827,799.345276 29.876160,801.289673 31.513542,803.175659 
	C33.837551,805.852478 33.874882,809.055054 31.605682,811.720886 
	C29.832014,813.804565 30.000933,815.240662 31.498611,817.321899 
	C33.056183,819.486389 33.838959,821.960205 30.129368,823.080261 
	C29.472660,822.364441 28.936380,821.962036 28.542191,821.421997 
	C24.469484,815.842285 24.234322,815.752747 17.566183,817.370361 
	C16.702915,815.688904 17.497301,814.254944 17.961254,812.375366 
	C20.391907,811.162109 22.825212,811.233154 25.300434,811.463867 
	C27.285172,811.648804 28.493559,810.599060 28.497154,808.585266 
	C28.501230,806.302917 27.191803,805.272400 24.955254,805.617920 
	C22.837999,805.944885 20.743406,806.543640 18.362507,805.426025 
z"/>
<path fill="#585858" opacity="1.000000" stroke="none" 
	d="
M20.079367,945.775208 
	C20.558271,943.533997 21.861448,941.944519 25.481720,941.471497 
	C21.627901,939.468506 18.930250,937.677917 20.275099,933.914612 
	C20.912874,932.129761 22.613829,931.274719 24.290716,931.536499 
	C27.454828,932.030518 25.027977,935.272156 26.472866,936.815308 
	C29.112471,936.066467 26.644377,933.358032 28.275803,932.306641 
	C31.613754,935.868652 30.607599,938.559753 24.637726,941.111633 
	C26.025610,941.880981 27.366936,942.353943 28.350645,943.229004 
	C30.113178,944.796753 30.430002,946.984741 29.989334,949.198975 
	C29.438667,951.965942 27.124338,950.820435 25.495783,950.955994 
	C23.510866,951.121155 21.474535,951.203796 19.512541,950.937805 
	C17.976923,950.729553 15.204583,952.220703 15.185980,949.389648 
	C15.170461,947.027893 17.907742,948.477783 19.517710,947.465454 
	C21.391624,946.935608 23.054092,947.077271 24.671663,946.335144 
	C23.226864,946.318176 21.649546,947.178101 20.079367,945.775208 
z"/>
<path fill="#0E0E0E" opacity="1.000000" stroke="none" 
	d="
M409.161865,677.271851 
	C408.793762,675.887390 408.608856,674.766357 408.364441,673.658447 
	C407.115448,667.997070 409.700714,665.105652 416.541748,664.995117 
	C417.027496,669.694519 417.100159,674.392334 417.068268,679.546265 
	C415.552429,679.670471 414.141144,679.338440 412.362793,678.997070 
	C410.888062,678.903503 410.082733,678.259583 409.161865,677.271851 
z"/>
<path fill="#222222" opacity="1.000000" stroke="none" 
	d="
M593.450378,323.164520 
	C592.928528,320.579803 591.015076,319.374268 589.498596,317.997681 
	C587.507751,316.190460 586.631531,314.146729 587.140137,311.097107 
	C592.714417,315.506439 598.264709,320.333099 603.940796,325.462158 
	C599.496399,330.753510 598.352600,324.257111 595.268799,323.090698 
	C594.630798,323.322662 594.220459,323.465607 593.450378,323.164520 
z"/>
<path fill="#585858" opacity="1.000000" stroke="none" 
	d="
M27.281235,974.361633 
	C28.238476,974.451111 29.552916,973.537842 29.954180,974.856384 
	C30.284306,975.941162 29.682352,976.582642 28.648621,977.130310 
	C25.076881,979.022949 24.886890,981.089294 28.666819,982.967468 
	C29.726147,983.493896 30.356897,984.187256 29.896448,985.225342 
	C29.449965,986.231995 28.514605,985.633362 27.764772,985.387085 
	C24.474186,984.306335 21.200483,983.167725 17.880175,982.187195 
	C16.588005,981.805603 15.837268,981.261841 15.924235,979.834167 
	C15.996291,978.651428 16.701782,978.154968 17.741856,977.820312 
	C20.881649,976.809692 24.001038,975.735718 27.281235,974.361633 
z"/>
<path fill="#5D5D5D" opacity="1.000000" stroke="none" 
	d="
M27.427656,973.619873 
	C27.434095,974.036865 27.471395,973.981140 27.503830,973.987915 
	C24.192930,973.086121 20.288677,973.025269 19.807444,968.175110 
	C19.643244,966.520264 17.992706,967.183899 16.961994,967.055969 
	C15.909486,966.925415 14.887776,966.798584 15.012171,965.458984 
	C15.132674,964.161255 16.250015,964.084473 17.250132,964.080017 
	C20.551712,964.065125 23.853750,964.117432 27.155025,964.084656 
	C28.700293,964.069214 29.679321,964.695496 29.997742,966.223083 
	C30.593306,969.080078 29.782871,971.431030 27.427656,973.619873 
z"/>
<path fill="#585858" opacity="1.000000" stroke="none" 
	d="
M17.950146,805.523071 
	C20.551645,804.406799 23.084692,805.272766 25.701729,804.395325 
	C28.237314,803.545166 29.836010,805.881226 29.976681,808.502808 
	C30.103271,810.862061 29.153994,812.948853 26.549345,813.025146 
	C23.940189,813.101501 21.311365,812.506409 18.348694,812.096191 
	C16.809948,809.979797 16.352718,807.948120 17.950146,805.523071 
z"/>
<path fill="#5D5D5D" opacity="1.000000" stroke="none" 
	d="
M19.904692,881.094971 
	C23.203226,883.180969 26.448544,884.600525 29.331297,879.615295 
	C31.081678,883.212463 27.753723,883.742065 26.853596,885.515686 
	C27.356234,886.942993 30.149754,885.262451 29.889872,887.593567 
	C29.659451,889.660522 27.901377,888.827393 26.767029,888.897034 
	C24.474524,889.037842 22.169447,888.973938 19.416496,889.086548 
	C17.652744,888.548889 14.484026,889.785645 15.195748,887.474915 
	C16.203524,884.202759 19.895407,886.970215 22.321110,885.516968 
	C22.497446,883.851379 19.497128,883.543396 19.904692,881.094971 
z"/>
<path fill="#5D5D5D" opacity="1.000000" stroke="none" 
	d="
M29.896835,796.458862 
	C27.860558,796.696045 26.855753,797.425110 27.053846,799.595825 
	C27.383862,803.211914 25.624912,802.915039 23.091488,801.383423 
	C21.000345,799.078735 16.561729,799.215515 17.039299,794.541138 
	C21.011021,795.120178 24.913073,792.280640 28.865433,794.165100 
	C29.815645,794.618225 30.024641,795.195251 29.896835,796.458862 
z"/>
<path fill="#5D5D5D" opacity="1.000000" stroke="none" 
	d="
M17.786243,856.207397 
	C22.129595,855.387390 25.668566,856.696350 29.374205,859.304810 
	C27.995333,859.736694 27.130066,860.007690 26.292549,860.270020 
	C26.342014,861.824036 28.933475,861.175598 28.433239,862.852051 
	C28.315439,863.246887 26.984890,863.279907 26.115559,863.827148 
	C25.581215,864.187988 25.143564,864.201172 24.393726,864.086792 
	C23.504387,863.366150 22.866430,863.122131 21.825600,863.675049 
	C19.441078,861.817322 19.490274,861.820557 19.675005,858.986450 
	C19.767126,857.573181 16.932150,858.377563 17.786243,856.207397 
z"/>
<path fill="#585858" opacity="1.000000" stroke="none" 
	d="
M17.162510,837.692139 
	C23.188862,833.020996 27.972862,835.022400 29.558556,842.686646 
	C26.896870,843.142212 27.447937,840.091309 25.494690,839.385315 
	C24.532187,842.606628 23.072338,845.702026 18.348167,843.144287 
	C17.128113,841.453735 16.638134,839.841614 17.162510,837.692139 
z"/>
<path fill="#E2E2E2" opacity="1.000000" stroke="none" 
	d="
M17.317926,825.250732 
	C15.755138,824.221558 16.398617,823.288452 16.994297,822.082581 
	C19.729633,822.030518 22.087894,823.138794 24.377935,819.974487 
	C26.444960,817.118286 27.394928,819.853821 27.666504,822.266113 
	C24.530987,825.701904 27.713263,825.439392 29.416765,826.086426 
	C33.372242,827.588806 33.822033,829.519653 30.485394,832.011475 
	C26.201168,829.338379 21.662384,827.853210 17.317926,825.250732 
z"/>
<path fill="#585858" opacity="1.000000" stroke="none" 
	d="
M27.844595,822.715332 
	C27.213070,821.322876 26.852390,820.061523 25.678118,819.144287 
	C23.493088,824.781067 21.986067,825.333679 17.427731,822.009094 
	C17.119350,820.551697 17.109913,819.306824 17.162636,817.692261 
	C23.028963,813.178223 26.990990,814.685059 29.907873,822.476929 
	C29.342226,822.829041 28.734554,822.834351 27.844595,822.715332 
z"/>
<path fill="#585858" opacity="1.000000" stroke="none" 
	d="
M15.980376,918.418274 
	C17.612858,917.311951 19.031502,916.816345 18.306740,919.590881 
	C18.005432,920.744385 18.047499,922.107422 19.340216,922.560974 
	C20.865206,923.096130 21.223301,921.511780 21.661377,920.598389 
	C22.821428,918.179932 24.291639,916.068359 27.264008,917.137878 
	C30.387754,918.261719 30.184935,921.132202 29.876265,924.228577 
	C28.982517,925.065796 28.091795,925.637024 27.041985,924.352478 
	C26.742462,922.479736 26.104643,921.762817 24.254316,922.758911 
	C22.513395,924.505554 20.894657,925.963074 18.544712,925.007385 
	C15.740351,923.866882 15.785031,921.330994 15.980376,918.418274 
z"/>
<path fill="#585858" opacity="1.000000" stroke="none" 
	d="
M17.928959,783.511108 
	C20.105627,782.348999 22.140978,781.679932 24.379442,781.963928 
	C27.188791,782.320312 29.936995,783.061829 29.952318,786.463135 
	C29.967306,789.790161 27.414684,790.880554 24.500389,791.056946 
	C23.182819,791.136658 21.847103,790.916382 20.137936,790.776855 
	C17.347256,788.931580 15.838271,786.881042 17.928959,783.511108 
z"/>
<path fill="#5D5D5D" opacity="1.000000" stroke="none" 
	d="
M15.793320,873.877563 
	C13.879367,872.883972 14.045294,871.654541 15.628631,871.584961 
	C21.225208,871.338867 26.837034,871.426025 32.443096,871.423523 
	C33.329571,871.423096 34.081181,871.829285 33.941368,872.883850 
	C33.796253,873.978455 32.841362,873.954590 32.046410,873.955872 
	C26.767361,873.964478 21.488258,873.940796 15.793320,873.877563 
z"/>
<path fill="#585858" opacity="1.000000" stroke="none" 
	d="
M17.074570,774.579346 
	C20.009689,771.599182 23.747946,772.635376 27.033827,772.258423 
	C29.528749,771.972168 31.224154,777.745972 29.403610,779.584290 
	C29.107529,779.883179 28.474737,780.035645 28.055744,779.954773 
	C27.808559,779.906982 27.460394,779.222229 27.527538,778.901245 
	C27.877594,777.227600 28.378775,775.297668 26.196470,774.780334 
	C23.930037,774.243164 24.546810,777.175232 23.543972,777.959106 
	C21.267113,778.014160 22.401711,774.698914 20.463842,775.222717 
	C18.058186,775.872864 20.135475,778.582092 18.379063,779.970703 
	C16.688030,778.551636 16.860136,776.757080 17.074570,774.579346 
z"/>
<path fill="#585858" opacity="1.000000" stroke="none" 
	d="
M17.108261,848.630005 
	C20.987352,844.647522 24.070734,846.636536 26.986355,849.631470 
	C29.029411,849.122375 27.025925,846.701416 28.940451,846.062622 
	C29.179575,846.244446 29.795221,846.481445 29.819803,846.768982 
	C29.974945,848.583496 30.042507,850.409180 30.045551,852.231323 
	C30.046825,852.994507 30.310709,854.007019 29.224073,854.318054 
	C28.240747,854.599426 27.765114,853.759399 27.216803,853.171997 
	C26.877319,852.808228 26.610540,852.376526 26.270176,852.013733 
	C24.795366,850.441833 23.408571,848.531433 20.875408,849.108276 
	C18.093237,849.741821 20.286983,852.700928 18.362562,854.098389 
	C16.836348,852.608276 16.773098,850.839661 17.108261,848.630005 
z"/>
<path fill="#585858" opacity="1.000000" stroke="none" 
	d="
M25.026266,962.369263 
	C21.207430,961.988220 19.636351,959.911438 20.043039,956.621521 
	C20.375463,953.932312 22.315666,952.769348 24.985920,952.786377 
	C27.649199,952.803406 29.582554,954.037170 29.977047,956.647034 
	C30.478937,959.967407 28.856554,962.009094 25.026266,962.369263 
z"/>
<path fill="#585858" opacity="1.000000" stroke="none" 
	d="
M20.107597,902.622437 
	C20.529863,901.926514 20.871828,901.568665 21.262852,901.276611 
	C23.880770,899.320923 26.595945,899.249634 28.855238,901.605347 
	C30.711645,903.541077 30.607794,906.060730 28.593842,907.809387 
	C25.977427,910.081116 23.186176,910.005615 20.516842,906.919312 
	C20.159092,905.459412 20.104536,904.225159 20.107597,902.622437 
z"/>
<path fill="#585858" opacity="1.000000" stroke="none" 
	d="
M16.979820,825.448853 
	C21.816080,826.206482 26.475044,827.614746 30.077847,831.654419 
	C30.112675,832.025940 29.869482,832.280090 29.812162,832.446289 
	C26.464113,831.088867 23.173384,829.565247 19.999521,828.095703 
	C17.938295,829.727356 20.621729,832.669556 17.523201,833.774170 
	C17.060795,831.138062 16.983322,828.511780 16.979820,825.448853 
z"/>
<path fill="#585858" opacity="1.000000" stroke="none" 
	d="
M23.317356,767.138733 
	C22.217978,765.913208 21.079554,765.375427 19.752726,765.302124 
	C18.021000,766.806335 20.573832,769.674744 17.511673,770.787537 
	C17.052517,768.156067 16.977297,765.533569 16.959660,762.473389 
	C20.765858,762.210815 23.756987,764.421936 27.045797,765.816162 
	C28.274702,766.337097 30.669151,766.659729 29.707039,768.486389 
	C28.821171,770.168274 27.246191,767.910278 25.520115,767.822144 
	C24.534058,767.897095 23.974850,767.768494 23.317356,767.138733 
z"/>
<path fill="#585858" opacity="1.000000" stroke="none" 
	d="
M17.048813,912.434937 
	C19.401581,911.982239 21.607832,909.403076 24.148050,911.925293 
	C24.610825,912.384827 26.046177,911.836060 27.034279,911.803223 
	C28.036091,911.769775 28.519823,908.599060 29.767452,911.114685 
	C30.695335,912.985535 29.298904,914.544983 27.374765,914.446289 
	C24.188351,914.282776 20.899380,917.057007 17.471182,914.074951 
	C17.091993,913.567078 17.060574,913.155579 17.048813,912.434937 
z"/>
<path fill="#585858" opacity="1.000000" stroke="none" 
	d="
M19.978327,891.419983 
	C20.631056,891.146790 21.638224,891.124756 21.772396,891.456116 
	C22.477850,893.198547 22.280474,895.699646 24.985344,895.725952 
	C27.937506,895.754639 27.326817,892.663879 28.631088,890.816895 
	C30.792206,892.726501 30.274937,894.701843 28.938000,896.366821 
	C26.563320,899.324219 23.682550,898.204956 20.497231,896.871033 
	C20.043827,895.160889 19.986906,893.497559 19.978327,891.419983 
z"/>
<path fill="#3F3F3F" opacity="1.000000" stroke="none" 
	d="
M291.504578,630.464966 
	C293.239746,630.756592 295.544434,628.011841 296.365387,630.677185 
	C297.337433,633.833130 293.890106,634.808533 292.035706,636.885498 
	C291.592804,634.957825 291.457489,632.863525 291.504578,630.464966 
z"/>
<path fill="#E2E2E2" opacity="1.000000" stroke="none" 
	d="
M19.737408,945.785339 
	C20.554152,947.145020 21.376816,946.949036 22.368187,945.782288 
	C23.767664,944.135254 25.355373,943.728699 27.042112,945.409485 
	C27.667118,946.032288 28.168329,947.122620 27.508013,947.596985 
	C26.100222,948.608276 24.343269,948.266785 22.753868,947.865662 
	C22.015348,947.679321 21.384184,947.067444 20.235069,946.880371 
	C19.746531,946.719116 19.727266,946.325989 19.737408,945.785339 
z"/>
<path fill="#3F3F3F" opacity="1.000000" stroke="none" 
	d="
M709.585693,718.709717 
	C705.467163,716.758301 706.951721,713.945740 709.099609,710.977600 
	C710.203308,713.293518 709.695190,715.797241 709.585693,718.709717 
z"/>
<path fill="#E2E2E2" opacity="1.000000" stroke="none" 
	d="
M24.125475,923.150513 
	C24.208176,921.237183 24.695511,919.312805 26.648178,919.789124 
	C28.316164,920.195923 27.964596,922.038513 27.178566,923.725952 
	C26.055696,923.809814 25.178904,923.626343 24.125475,923.150513 
z"/>
<path fill="#222222" opacity="1.000000" stroke="none" 
	d="
M780.458130,485.952087 
	C780.024963,484.966888 779.990173,483.987976 779.960449,482.640564 
	C781.251160,483.310425 782.536865,484.348816 783.938110,485.680542 
	C782.987976,485.968689 781.922302,485.963501 780.458130,485.952087 
z"/>
<path fill="#3F3F3F" opacity="1.000000" stroke="none" 
	d="
M709.595337,705.731140 
	C707.040588,705.042175 706.769043,703.676819 709.176819,701.930359 
	C709.556824,703.011169 709.660583,704.167419 709.595337,705.731140 
z"/>
<path fill="#3F3F3F" opacity="1.000000" stroke="none" 
	d="
M291.582428,625.179321 
	C293.543152,625.575684 294.739288,626.314758 292.074524,627.935425 
	C291.638702,627.154602 291.521637,626.273621 291.582428,625.179321 
z"/>
<path fill="#000000" opacity="1.000000" stroke="none" 
	d="
M548.372742,541.693298 
	C548.250305,540.482178 547.622314,538.540955 550.021545,539.516785 
	C550.910828,539.878479 552.158203,540.299866 550.176880,541.431763 
	C549.576843,541.686462 549.136780,541.729370 548.372742,541.693298 
z"/>
<path fill="#222222" opacity="1.000000" stroke="none" 
	d="
M778.179443,480.560394 
	C777.791687,480.893707 777.282837,480.928162 776.391907,480.974152 
	C775.103394,480.435822 775.032654,479.534729 775.023560,478.269592 
	C776.042786,478.705017 777.050537,479.483276 778.179443,480.560394 
z"/>
<path fill="#E2E2E2" opacity="1.000000" stroke="none" 
	d="
M21.969669,863.804199 
	C22.171665,862.341553 22.846231,861.265015 24.065754,863.635925 
	C23.517166,863.930298 22.952793,863.901367 21.969669,863.804199 
z"/>
<path fill="#0C0C0C" opacity="1.000000" stroke="none" 
	d="
M408.680969,676.836487 
	C410.157227,676.995850 411.074921,677.437439 411.855042,678.700439 
	C411.734955,682.069519 413.129517,685.652405 410.698212,688.088074 
	C408.101715,690.689148 405.471741,695.492310 400.797241,689.804932 
	C401.056213,698.820679 398.990265,702.042725 393.422668,702.003540 
	C388.746216,701.970581 385.612000,698.376343 386.003845,693.495789 
	C386.457428,687.846375 389.281738,686.333191 397.698761,687.464111 
	C396.711670,684.133423 393.743530,682.659912 391.844818,680.357910 
	C390.912750,679.227844 389.495422,678.324890 390.948578,676.599792 
	C392.346893,674.939819 393.672943,674.943542 395.055664,676.552795 
	C396.982391,678.795227 399.007080,677.833496 400.767120,676.490845 
	C403.436493,674.454285 405.876831,674.443115 408.680969,676.836487 
z"/>
<path fill="#0D0D0D" opacity="1.000000" stroke="none" 
	d="
M421.808044,497.678284 
	C426.398346,503.694122 424.304535,508.736542 416.993408,510.007172 
	C415.695038,510.232819 413.869873,509.393066 415.118195,512.392883 
	C416.211853,515.020996 414.211548,516.065186 411.424927,515.228516 
	C408.052094,514.215881 404.847626,517.057739 405.434174,520.646667 
	C405.687805,522.198730 406.378784,523.843872 404.559265,524.459045 
	C402.527557,525.145752 401.914093,523.200806 401.044495,521.790039 
	C398.791534,518.135071 397.876221,513.816956 395.223145,510.356781 
	C394.137268,508.940582 393.911407,507.493378 395.463531,505.958771 
	C396.957611,504.481537 398.189789,504.020935 400.229065,505.032959 
	C404.014526,506.911652 407.966949,508.453918 412.257355,509.853027 
	C408.540558,505.717255 407.788879,501.466858 410.556488,496.773590 
	C411.367004,495.399109 410.610840,494.256165 409.760498,493.156677 
	C408.804779,491.921051 408.830597,490.640564 410.069977,489.644318 
	C411.347260,488.617615 412.556702,489.130981 413.612854,490.148834 
	C415.882111,492.335846 418.144012,494.530548 420.708099,496.871063 
	C421.216980,497.134613 421.426636,497.249176 421.808044,497.678284 
z"/>
<path fill="#0D0D0D" opacity="1.000000" stroke="none" 
	d="
M360.746033,712.457886 
	C360.930634,708.326111 362.028503,706.114319 366.436584,708.551208 
	C369.532471,710.262817 372.951935,711.389160 377.067871,713.133179 
	C374.706879,708.143127 373.836578,703.960144 376.491943,699.761292 
	C377.528290,698.122498 376.389435,696.976929 375.358582,695.838806 
	C374.577362,694.976257 373.591003,694.055725 375.153656,693.010559 
	C376.164490,692.334351 377.231873,691.807373 378.300629,692.874329 
	C382.303741,696.870483 386.491547,700.708008 390.199127,704.963135 
	C392.184540,707.241760 390.061493,709.452515 388.388977,710.940369 
	C386.000732,713.064819 383.012360,713.993225 379.673370,713.430237 
	C381.558167,718.204956 381.239075,718.641479 376.328705,718.234070 
	C372.365936,717.905273 370.392548,720.392395 371.645996,724.385620 
	C372.221619,726.219482 371.478821,727.454468 370.129211,728.147827 
	C368.476227,728.997009 367.725250,727.349060 367.194550,726.265259 
	C365.014221,721.812317 362.988892,717.283508 360.746033,712.457886 
z"/>
<path fill="#0D0D0D" opacity="1.000000" stroke="none" 
	d="
M441.583374,471.999420 
	C441.785187,469.633728 442.166901,467.346497 443.096649,465.186646 
	C444.631592,461.620941 448.401245,460.197815 451.692352,461.867767 
	C454.612183,463.349304 455.907776,465.020813 452.821106,467.801239 
	C451.808563,468.713348 449.209229,469.738037 450.927826,471.530457 
	C452.182678,472.839233 453.517639,470.929504 454.479736,469.849579 
	C455.227417,469.010376 455.740814,467.625824 457.153839,468.894867 
	C458.192230,469.827454 457.947205,470.940674 457.432648,472.088684 
	C455.758728,475.823486 451.033020,477.219879 445.592682,475.258362 
	C445.985413,479.044830 446.632446,482.707123 443.740936,485.847198 
	C441.065125,488.753082 438.732819,490.225006 435.767242,486.345123 
	C435.307312,485.743347 434.399231,485.484070 433.351074,485.034424 
	C432.343719,481.412872 429.037140,479.934692 426.929199,477.517212 
	C425.601501,475.994598 424.573364,474.683746 426.191986,472.885406 
	C427.653442,471.261627 428.904510,472.385864 429.916931,473.472961 
	C431.362915,475.025574 432.592316,474.861847 434.124634,473.563995 
	C436.148132,471.850189 438.671844,471.881073 441.583374,471.999420 
z"/>
<path fill="#0D0D0D" opacity="1.000000" stroke="none" 
	d="
M580.048035,518.312256 
	C576.834290,520.018066 574.868530,517.386108 571.936707,516.608398 
	C573.676147,521.750061 573.665344,526.223328 568.965027,529.622986 
	C567.202820,530.897583 565.873962,531.388000 564.222290,529.720642 
	C560.598511,526.062317 556.941040,522.437500 553.308411,518.787964 
	C552.148193,517.622375 551.459778,516.302185 552.838806,514.891113 
	C554.212524,513.485535 555.540222,514.116882 556.736572,515.266296 
	C557.850159,516.336182 558.918579,517.430481 560.531860,515.982239 
	C563.347717,513.454590 566.547241,513.678345 570.562012,515.368591 
	C569.395752,511.653381 568.069763,508.460388 570.864502,505.687500 
	C572.279907,504.283234 573.543335,502.474274 575.878784,503.178253 
	C577.892212,503.785065 580.412415,503.918579 581.366455,506.156281 
	C582.427124,508.644135 579.640381,509.345520 578.613892,510.867981 
	C578.008789,511.765350 577.245239,512.555908 576.428040,513.545715 
	C579.015747,514.400024 580.017700,512.386230 581.452942,511.509857 
	C582.433228,510.911285 583.127625,509.692108 584.310974,511.050598 
	C585.224060,512.098877 585.070129,513.234070 584.194702,514.193481 
	C582.964966,515.541138 581.634460,516.796875 580.048035,518.312256 
z"/>
<path fill="#0D0D0D" opacity="1.000000" stroke="none" 
	d="
M605.189697,656.321655 
	C602.643799,653.469482 600.287842,650.916138 597.889771,648.403015 
	C596.699341,647.155518 595.437805,646.054993 597.224976,644.270996 
	C598.666016,642.832458 599.838074,643.180603 600.992981,644.507690 
	C602.442749,646.173706 603.773315,645.910706 605.138245,644.389465 
	C607.598145,641.647949 611.786255,644.729370 613.207886,643.045715 
	C614.705139,641.272461 612.930847,637.279358 614.865051,634.857727 
	C616.851929,632.370239 619.472717,631.107300 622.752930,632.875549 
	C625.694397,634.461243 626.823669,636.111694 623.789124,638.831421 
	C622.785095,639.731262 620.163757,640.750366 621.958923,642.550537 
	C623.218994,643.814148 624.567200,641.925232 625.499023,640.818420 
	C626.241211,639.936951 626.867676,638.528503 628.186707,639.424805 
	C629.496033,640.314697 629.279724,641.933899 628.322571,642.946777 
	C626.141663,645.254517 624.413452,648.526550 620.221252,647.249146 
	C617.765198,646.500732 616.851685,647.828979 617.013245,650.138733 
	C617.183716,652.576904 616.436462,654.661133 614.919739,656.584412 
	C612.354614,659.837219 609.734131,661.214844 606.300049,657.137024 
	C605.782959,656.867126 605.572632,656.752136 605.189697,656.321655 
z"/>
<path fill="#0D0D0D" opacity="1.000000" stroke="none" 
	d="
M403.380371,347.181946 
	C401.119232,350.840973 402.062714,355.465240 398.273102,358.372223 
	C396.122650,360.021820 394.689087,360.313995 392.771881,358.311371 
	C389.552307,354.948303 386.184570,351.727509 382.923309,348.403564 
	C381.933807,347.395050 380.300934,346.354156 381.985474,344.727386 
	C383.151093,343.601715 384.374237,343.128906 385.662292,344.920166 
	C386.758820,346.445129 388.054504,345.625946 389.579681,345.011322 
	C394.418854,343.061157 399.186096,341.541412 399.848846,335.020203 
	C400.039612,333.143158 402.899139,331.986298 405.187164,332.104309 
	C407.425873,332.219696 409.514923,333.275726 410.459473,335.357361 
	C411.361877,337.346191 409.103790,338.095123 408.151276,339.318695 
	C407.361877,340.332764 406.410492,341.220703 405.427795,342.275116 
	C408.080811,343.899353 408.834534,341.853729 409.974274,340.607361 
	C410.757385,339.751038 411.644562,338.734528 412.924957,339.685516 
	C414.235626,340.658966 414.065338,341.964600 413.330963,343.246796 
	C411.159698,347.037720 407.529907,347.202728 403.380371,347.181946 
z"/>
<path fill="#0D0D0D" opacity="1.000000" stroke="none" 
	d="
M296.046051,457.616028 
	C295.522797,462.647766 293.088623,465.112946 288.232605,465.028473 
	C285.951660,464.988739 283.424744,464.380280 284.590302,468.595947 
	C285.520569,471.960541 281.130127,476.764252 277.775543,476.978546 
	C273.708740,477.238312 269.205566,472.864563 269.004486,468.459534 
	C268.837799,464.808197 272.351562,460.517212 276.095184,461.212860 
	C281.384125,462.195618 280.957092,459.501007 281.092438,455.979553 
	C281.231323,452.364838 282.599365,449.363617 287.858704,451.246521 
	C289.200684,454.092621 284.494202,456.388641 287.644592,458.650818 
	C290.095367,460.410645 291.778168,456.486786 294.628662,456.469421 
	C295.451660,456.599457 295.820374,456.870941 296.046051,457.616028 
z"/>
<path fill="#0D0D0D" opacity="1.000000" stroke="none" 
	d="
M340.046753,586.620544 
	C338.711853,593.291077 335.951691,594.773193 327.671509,593.532288 
	C326.738190,595.452698 328.958405,596.712891 328.687500,598.592773 
	C328.149994,602.322998 323.866608,606.297668 320.441223,605.922180 
	C316.775116,605.520386 312.792816,600.779358 313.023254,597.090881 
	C313.277527,593.020874 316.996002,589.452820 321.156342,590.170837 
	C324.412964,590.732788 325.306732,590.032104 325.023865,586.893555 
	C324.650604,582.752014 326.606567,579.910034 330.710876,578.145142 
	C331.515747,577.871399 331.946259,577.957458 332.496643,578.610596 
	C333.341858,580.875061 332.318085,582.387390 331.360931,583.929749 
	C330.725922,584.952942 330.332764,586.075684 331.228210,587.108521 
	C332.333679,588.383728 333.578522,587.874756 334.754486,587.137939 
	C335.865021,586.442200 336.944427,585.689941 338.629913,585.469177 
	C339.452881,585.600708 339.820892,585.873901 340.046753,586.620544 
z"/>
<path fill="#0E0E0E" opacity="1.000000" stroke="none" 
	d="
M421.333893,307.867615 
	C423.094879,308.389771 424.514709,309.121918 426.285309,309.089966 
	C427.699554,309.064423 428.884369,309.766296 428.626923,311.564270 
	C428.097198,315.263580 430.466949,316.440063 433.435852,316.976959 
	C435.077698,317.273834 437.319763,317.262390 436.376953,319.652283 
	C435.741852,321.262177 434.323975,323.632507 431.862732,322.331604 
	C427.792572,320.180328 427.784302,322.612427 428.017670,325.420135 
	C428.371338,329.675018 425.135559,331.532898 422.436554,333.579956 
	C421.085968,334.604279 419.313446,333.610077 418.591949,332.320099 
	C417.851929,330.997040 419.345337,330.407440 420.349121,329.848114 
	C421.217987,329.363983 422.129639,328.935089 422.927704,328.352142 
	C423.618561,327.847534 423.999817,327.078552 423.747009,326.173889 
	C423.469086,325.179352 422.605835,324.956970 421.782593,325.065033 
	C420.485352,325.235321 419.146667,325.437469 417.944916,325.922150 
	C414.377655,327.360840 411.661804,326.364777 410.205658,322.947906 
	C408.799530,319.648499 411.541656,314.592743 414.880585,313.562775 
	C415.730286,313.300690 416.460480,313.140686 417.151581,313.843689 
	C418.069763,314.777740 417.722076,315.640991 416.996033,316.454559 
	C416.332916,317.197601 415.601349,317.879913 414.944427,318.628052 
	C414.254181,319.414124 413.758362,320.351929 414.465942,321.311676 
	C415.030273,322.077118 415.916595,321.884186 416.741425,321.606964 
	C418.310852,321.079590 419.862854,320.439636 421.476318,320.121582 
	C423.015594,319.818207 424.623962,319.865265 427.417664,319.675781 
	C422.438049,316.539673 418.443817,313.786163 421.333893,307.867615 
z"/>
<path fill="#0D0D0D" opacity="1.000000" stroke="none" 
	d="
M379.017731,369.630951 
	C381.405853,372.804626 381.564911,375.199585 378.596802,378.073029 
	C375.420227,381.148315 372.323914,382.045441 368.439423,379.938232 
	C364.178101,377.626678 364.290161,373.539154 365.403107,369.965302 
	C366.174500,367.488068 367.369415,365.626862 365.341675,363.298370 
	C364.733246,362.599701 364.772858,361.289948 365.644104,360.580994 
	C366.845306,359.603577 368.117462,359.983795 369.262573,360.851593 
	C371.744843,362.732727 373.260590,365.735077 376.672028,366.977417 
	C378.856079,366.721985 378.778564,368.158844 379.017731,369.630951 
z"/>
<path fill="#0D0D0D" opacity="1.000000" stroke="none" 
	d="
M583.328857,337.819092 
	C586.286621,340.181305 586.934326,342.900024 584.645447,345.387665 
	C582.134766,348.116394 578.868652,350.215088 574.925110,348.355835 
	C571.746765,346.857361 569.717957,344.222626 570.126343,340.455933 
	C570.283081,339.010223 570.755615,337.453247 571.551758,336.258331 
	C572.605530,334.676727 573.179565,333.451904 571.506348,331.972412 
	C570.481628,331.066376 569.518738,329.914795 571.055786,328.666351 
	C572.589661,327.420532 573.832581,328.341705 574.955566,329.459412 
	C577.664429,332.155548 580.365601,334.859375 583.328857,337.819092 
z"/>
<path fill="#0C0C0C" opacity="1.000000" stroke="none" 
	d="
M616.094299,473.641235 
	C616.555969,478.125092 618.483887,482.314117 613.408020,485.485748 
	C609.899292,487.678162 607.149353,487.204437 604.396729,484.815338 
	C601.579041,482.369843 599.874329,479.407257 601.759155,475.574463 
	C603.511536,472.010925 606.367310,470.478027 610.331543,471.255157 
	C611.301453,471.445312 612.251038,471.739288 613.611084,471.994690 
	C615.237915,471.586273 615.779846,472.327271 616.094299,473.641235 
z"/>
<path fill="#0C0C0C" opacity="1.000000" stroke="none" 
	d="
M660.070801,602.593628 
	C661.053894,606.877747 662.258179,610.833191 658.229675,613.841309 
	C654.936096,616.300598 651.478821,616.495117 648.295532,613.714905 
	C645.483948,611.259338 643.833740,608.238220 645.816711,604.477417 
	C648.125122,600.099304 651.765442,599.070435 656.659546,600.848022 
	C658.611023,599.957275 659.475952,600.821106 660.070801,602.593628 
z"/>
<path fill="#0C0C0C" opacity="1.000000" stroke="none" 
	d="
M444.986023,302.653351 
	C444.681000,305.421234 446.905029,307.653748 445.391022,310.224640 
	C443.440552,313.536682 441.134674,316.375488 436.861176,315.762909 
	C433.212280,315.239838 429.687469,310.418243 430.028748,307.002625 
	C430.417877,303.107605 433.927399,300.076172 438.150879,300.000336 
	C439.145752,299.982452 440.141357,300.004120 441.572754,300.009613 
	C443.608429,299.992767 444.512909,300.871124 444.986023,302.653351 
z"/>
<path fill="#0C0C0C" opacity="1.000000" stroke="none" 
	d="
M489.219116,432.643860 
	C490.079376,436.435577 490.597015,439.726379 487.266449,442.443970 
	C484.253815,444.902100 481.291718,445.964630 477.839966,443.268402 
	C474.198425,440.423950 473.058411,436.544312 475.275970,432.758423 
	C477.290894,429.318542 480.394470,428.202667 484.264587,429.591492 
	C484.880707,429.812561 485.559692,429.858551 486.610901,429.994812 
	C488.824432,429.715149 489.399292,430.730438 489.219116,432.643860 
z"/>
<path fill="#0C0C0C" opacity="1.000000" stroke="none" 
	d="
M766.998779,496.997986 
	C768.369751,500.868042 768.307495,504.536346 764.931885,507.375977 
	C761.809570,510.002533 757.799561,509.480011 754.810547,506.313171 
	C751.416199,502.716919 751.091370,498.926270 753.898804,495.675049 
	C756.631165,492.510773 760.456848,492.142609 764.132751,494.741608 
	C764.939514,495.311981 765.634766,496.039978 766.692688,496.849548 
	C767.003967,497.003662 767.000000,497.000000 766.998779,496.997986 
z"/>
<path fill="#0C0C0C" opacity="1.000000" stroke="none" 
	d="
M422.389099,498.002045 
	C421.665466,497.894531 421.411285,497.712341 421.112274,497.233154 
	C420.918152,496.206757 420.955841,495.354187 420.718048,494.587006 
	C419.651245,491.145447 419.238373,487.975372 422.332458,485.124329 
	C425.708221,482.013794 428.920898,483.269684 432.632446,484.961029 
	C433.003754,485.002441 433.000000,485.000000 432.998779,484.998108 
	C433.657867,486.633636 434.618530,488.216644 434.926331,489.917816 
	C436.240723,497.182465 431.715851,500.158569 422.389099,498.002045 
z"/>
<path fill="#0C0C0C" opacity="1.000000" stroke="none" 
	d="
M592.765686,322.929474 
	C593.568237,322.946838 593.965576,322.943176 594.661987,322.944489 
	C595.200378,324.072021 595.172302,325.351898 595.724487,326.290405 
	C598.388672,330.818176 596.144409,333.888763 592.759460,336.525177 
	C589.769226,338.854187 586.852173,338.149384 584.241699,335.713745 
	C581.314636,332.982758 579.754333,329.812347 582.057129,325.985474 
	C584.346069,322.181702 587.698792,321.082184 591.875000,322.799622 
	C592.026184,322.861755 592.198242,322.873322 592.765686,322.929474 
z"/>
<path fill="#0E0E0E" opacity="1.000000" stroke="none" 
	d="
M559.890137,343.158325 
	C564.889160,345.443390 569.495850,347.725769 574.161987,349.879547 
	C575.391541,350.447052 577.010193,350.697083 576.538940,352.430847 
	C576.129211,353.937958 574.635010,354.018158 573.206177,353.895050 
	C567.464661,353.400452 566.532959,354.322968 566.901001,360.193085 
	C566.990540,361.620605 566.940918,363.036774 565.448669,363.551575 
	C564.045471,364.035645 563.409119,362.804169 562.895386,361.731293 
	C560.893311,357.550018 558.906494,353.361389 556.916260,349.174438 
	C555.487122,346.167816 556.096375,344.032867 559.890137,343.158325 
z"/>
<path fill="#0C0C0C" opacity="1.000000" stroke="none" 
	d="
M379.414062,369.991577 
	C378.489075,369.119598 378.001648,368.250031 377.266785,367.196350 
	C376.212280,363.374512 374.611298,359.776154 378.016144,356.394684 
	C380.301971,354.124542 382.596252,353.185425 385.501953,354.798706 
	C388.996918,356.739166 391.784973,359.241333 390.963837,363.778961 
	C390.346497,367.190155 388.189484,369.327606 384.798096,369.937164 
	C383.197540,370.224823 381.503387,369.991364 379.414062,369.991577 
z"/>
<path fill="#0E0E0E" opacity="1.000000" stroke="none" 
	d="
M371.502625,384.670837 
	C370.256683,386.315033 369.197205,387.290863 367.141632,386.537781 
	C363.197601,385.092804 360.718262,387.160645 361.063538,391.400970 
	C361.186340,392.909119 362.735291,394.841248 360.334015,395.641571 
	C357.719635,396.512970 357.408783,393.920044 356.813446,392.436432 
	C355.205566,388.429321 353.536621,384.449371 351.183167,380.841064 
	C350.143616,379.247284 350.156342,378.199310 351.496307,377.000793 
	C352.585785,376.026276 353.491943,374.618195 355.292511,375.666687 
	C360.629974,378.774628 366.824554,380.269745 371.502625,384.670837 
z"/>
<path fill="#0C0C0C" opacity="1.000000" stroke="none" 
	d="
M604.632935,655.999878 
	C605.332703,656.104614 605.587830,656.287292 605.887817,656.768311 
	C605.657104,660.047729 606.907959,663.302063 605.174744,666.182983 
	C602.612122,670.442322 600.295532,670.729492 592.387329,668.003967 
	C591.997559,667.997559 592.000000,668.000000 592.001221,668.001221 
	C591.733093,666.724854 591.430725,665.453186 591.200928,664.168457 
	C590.683289,661.274414 590.803772,658.363220 593.332031,656.507812 
	C595.841675,654.666016 598.648438,653.032349 601.897949,655.376526 
	C602.510864,655.818787 603.456543,655.799744 604.632935,655.999878 
z"/>
<path fill="#0E0E0E" opacity="1.000000" stroke="none" 
	d="
M296.365692,457.974060 
	C295.893951,457.656586 295.715118,457.405151 295.243835,457.106506 
	C292.223389,455.894104 290.454407,453.552612 288.235168,451.229919 
	C287.998779,450.995087 288.000000,451.000000 288.002472,451.000610 
	C287.967957,448.686707 286.007202,447.681366 284.721680,446.231476 
	C283.591156,444.956390 282.202423,443.658844 283.780701,441.979431 
	C285.609650,440.033295 287.109436,441.515259 288.351349,442.899017 
	C289.788239,444.500061 291.064423,446.245270 292.794189,448.407654 
	C294.973083,445.097351 292.500458,441.150452 296.634186,439.648651 
	C296.876709,444.843323 298.876129,448.441956 304.784119,448.061005 
	C305.323242,448.026245 306.154266,448.396545 306.402222,448.833008 
	C306.907837,449.722839 306.061188,450.326263 305.503540,450.907593 
	C303.627350,452.863586 301.002747,451.412659 298.748749,452.370941 
	C299.681030,454.792938 301.346161,457.584015 296.365692,457.974060 
z"/>
<path fill="#0E0E0E" opacity="1.000000" stroke="none" 
	d="
M332.206665,579.231079 
	C331.897369,578.656799 331.715942,578.406799 331.243073,578.112915 
	C330.070862,576.877014 329.159241,575.695923 328.133667,574.623779 
	C326.938812,573.374817 327.174835,572.340576 328.303436,571.209473 
	C329.493439,570.016785 330.606567,570.009155 331.702057,571.237427 
	C333.348145,573.082886 334.954132,574.964050 337.011505,577.329468 
	C338.873962,574.022705 336.545898,570.132141 340.994415,568.560364 
	C339.727844,574.908447 343.025635,577.058594 348.536896,577.028137 
	C349.322662,577.023804 350.454987,576.954895 350.455048,578.044617 
	C350.455078,578.724548 349.857025,579.541809 349.304657,580.059937 
	C347.285065,581.954224 344.932526,580.463928 342.366455,580.441284 
	C342.627930,582.877319 346.400696,586.385986 340.368530,586.977173 
	C339.894928,586.660339 339.715332,586.407349 339.241425,586.107056 
	C336.030548,584.641113 333.881348,582.416382 332.206665,579.231079 
z"/>
<path fill="#0E0E0E" opacity="1.000000" stroke="none" 
	d="
M669.864685,584.722595 
	C670.037048,583.070740 670.024780,581.741821 670.187683,580.434753 
	C670.307617,579.472473 671.091309,579.130493 671.996277,579.126831 
	C672.905884,579.123108 673.912109,579.544128 673.777283,580.421387 
	C672.886169,586.221130 676.928650,586.088440 680.713257,586.445129 
	C681.601501,586.528931 682.444580,587.091187 683.307678,587.432983 
	C681.458130,591.938538 677.938293,591.206665 674.647278,590.291443 
	C674.122620,591.900696 675.173584,592.486572 675.582642,593.334351 
	C676.172974,594.557556 675.943420,595.613708 674.855896,596.388855 
	C673.798218,597.142639 672.977356,596.443298 672.265137,595.734985 
	C668.508423,591.998779 664.758728,588.255188 661.037781,584.483459 
	C660.003174,583.434753 659.609802,582.187561 660.742615,580.965271 
	C662.095032,579.506104 663.104858,580.641663 664.057922,581.567505 
	C665.699036,583.161804 667.307556,584.787292 669.864685,584.722595 
z"/>
<path fill="#0E0E0E" opacity="1.000000" stroke="none" 
	d="
M503.012268,412.117554 
	C502.983826,414.542694 504.213593,415.123901 505.936584,414.973511 
	C508.175934,414.778046 510.168854,415.547974 512.366638,416.331146 
	C510.545410,420.578644 507.309448,420.518829 503.936920,419.265320 
	C502.812134,420.732117 504.039062,421.310516 504.462585,422.089722 
	C505.100006,423.262482 505.080048,424.353210 504.056152,425.238037 
	C502.821625,426.304901 501.909302,425.388733 501.075897,424.559509 
	C497.421692,420.923798 493.778564,417.276855 490.150055,413.615479 
	C488.937347,412.391846 488.510620,410.961914 489.990112,409.735687 
	C491.469208,408.509766 492.371765,409.973511 493.314880,410.822296 
	C494.055450,411.488922 494.689178,412.278320 495.452728,412.914246 
	C496.287292,413.609314 496.894897,415.067810 498.280975,414.400574 
	C499.327606,413.896637 498.977081,412.648560 498.984741,411.698364 
	C498.999268,409.902710 499.480469,407.843781 501.288239,407.831909 
	C503.633911,407.816498 502.785828,410.216797 503.012268,412.117554 
z"/>
<path fill="#0E0E0E" opacity="1.000000" stroke="none" 
	d="
M622.242371,460.748444 
	C620.352051,458.844513 618.694824,457.209198 617.079834,455.533142 
	C616.058777,454.473511 615.598022,453.248810 616.712524,451.999481 
	C618.043152,450.507874 619.145447,451.558838 620.023560,452.566040 
	C621.546753,454.313202 622.938477,456.175018 624.385315,457.988800 
	C624.803955,457.759094 625.222534,457.529388 625.641174,457.299683 
	C625.842468,455.455109 625.937439,453.590057 626.287903,451.774261 
	C626.475342,450.803192 627.227295,450.000824 628.259766,449.710815 
	C629.063965,449.484955 629.743469,450.189270 629.678101,450.708740 
	C628.711548,458.384796 634.961792,457.217010 639.422058,458.378845 
	C637.204895,463.014221 633.678040,462.309814 630.138794,460.908447 
	C629.349792,462.757019 630.936646,463.123444 631.418152,464.015869 
	C632.051270,465.189362 632.128174,466.235229 631.129761,467.173218 
	C629.934631,468.295990 629.005981,467.469696 628.150330,466.629791 
	C626.251831,464.766205 624.377502,462.877991 622.242371,460.748444 
z"/>
<path fill="#0E0E0E" opacity="1.000000" stroke="none" 
	d="
M265.364899,491.127869 
	C264.372559,492.087311 263.746826,492.947144 262.903625,493.415070 
	C261.261871,494.326202 259.209869,496.253815 257.747833,493.793518 
	C256.505127,491.702393 259.375549,491.432587 260.403992,490.412842 
	C261.415405,489.409851 263.496094,488.896240 262.631592,487.110718 
	C261.646332,485.075775 259.828247,486.334259 258.298676,486.774414 
	C255.190033,487.668976 251.822479,489.611786 249.467041,485.600281 
	C247.667358,482.535217 249.431900,477.991180 253.111969,475.362854 
	C254.064774,474.682373 254.890778,473.675018 256.098206,474.819977 
	C257.294281,475.954132 256.530670,476.892670 255.700073,477.790009 
	C255.024277,478.520142 254.319168,479.225342 253.678085,479.984680 
	C253.098007,480.671692 252.897934,481.544586 253.422943,482.276093 
	C253.971939,483.041016 254.852295,482.923828 255.684174,482.634186 
	C256.622253,482.307617 257.604675,482.089905 258.511322,481.695129 
	C261.256653,480.499786 263.687073,480.702942 265.641174,483.173279 
	C267.657776,485.722687 267.632751,488.293945 265.364899,491.127869 
z"/>
<path fill="#0E0E0E" opacity="1.000000" stroke="none" 
	d="
M581.003601,492.036926 
	C580.834717,488.449646 583.585449,487.196442 585.286377,485.262329 
	C586.113281,484.322083 587.173828,483.734802 588.249146,484.962921 
	C589.348694,486.218628 589.048340,487.446564 587.858704,488.434479 
	C586.646606,489.441071 584.219238,490.136871 585.465271,492.070953 
	C586.810303,494.158783 588.556274,492.228607 590.204895,491.605255 
	C592.709900,490.658051 595.426941,490.231171 597.694885,492.310516 
	C599.716187,494.163788 599.421265,496.795227 598.739807,498.868164 
	C597.855591,501.557495 595.539795,503.457184 592.987488,504.791718 
	C592.211182,505.197601 591.349731,504.739807 590.765198,504.068573 
	C590.132446,503.341949 590.155701,502.552979 590.784485,501.833588 
	C591.331238,501.208038 591.963562,500.656769 592.504578,500.026733 
	C593.371521,499.017120 595.801636,498.594025 594.458069,496.702209 
	C593.437927,495.265656 591.750000,496.331604 590.323425,496.766998 
	C584.529968,498.534973 582.628784,497.623444 581.003601,492.036926 
z"/>
<path fill="#0E0E0E" opacity="1.000000" stroke="none" 
	d="
M457.746460,455.344543 
	C452.345215,451.359924 453.111816,445.368378 458.949432,442.645142 
	C460.084381,442.115723 460.893982,442.311615 461.495209,443.252472 
	C462.265839,444.458374 461.810455,445.358856 460.676239,446.171173 
	C459.365204,447.110229 457.394531,448.193359 458.412323,450.035522 
	C459.564270,452.120422 461.442993,450.273926 462.807465,449.838043 
	C466.418335,448.684479 469.852600,448.251770 471.785248,452.208862 
	C473.275146,455.259399 470.199646,460.966583 466.751617,462.542206 
	C465.521484,463.104340 464.467834,462.992615 463.653931,461.930725 
	C462.879456,460.920166 463.572571,460.144958 464.181244,459.306854 
	C465.291351,457.778259 468.438019,456.500519 467.261688,454.830505 
	C465.675262,452.578400 463.115265,455.152527 460.972839,455.554840 
	C459.967896,455.743591 459.052094,455.991547 457.746460,455.344543 
z"/>
<path fill="#0E0E0E" opacity="1.000000" stroke="none" 
	d="
M641.919434,629.582275 
	C640.890259,630.719849 640.167969,631.626404 639.301208,632.362915 
	C637.888000,633.563721 636.202637,634.991150 634.650635,632.856323 
	C632.982971,630.562256 635.378540,630.329590 636.695190,629.499512 
	C637.935547,628.717590 639.481018,627.639587 638.583069,625.946716 
	C637.724243,624.327637 635.780762,624.702637 634.578674,625.376343 
	C630.735962,627.530212 627.258667,627.350586 625.393799,623.235229 
	C623.578796,619.229858 626.191956,616.382385 629.382263,614.102539 
	C630.459167,613.333008 631.408508,612.840393 632.361023,614.079895 
	C633.209778,615.184448 633.025085,616.160706 631.861023,617.046997 
	C630.418335,618.145447 628.557373,619.650818 629.815247,621.415771 
	C630.922241,622.968933 632.855774,621.480103 634.335022,620.840210 
	C636.728882,619.804688 639.276184,619.187256 641.363708,621.047119 
	C643.989746,623.386719 643.363525,626.382874 641.919434,629.582275 
z"/>
<path fill="#0D0D0D" opacity="1.000000" stroke="none" 
	d="
M237.022308,500.112427 
	C239.249435,493.896362 242.183243,491.965240 245.885468,493.972687 
	C248.937042,495.627380 250.187302,497.632721 247.052719,500.495667 
	C246.123703,501.344177 244.845139,502.047058 244.756348,503.619080 
	C246.927185,504.513306 248.183853,503.492767 249.195160,501.689178 
	C249.799469,500.611481 250.726868,499.719452 251.996414,500.742310 
	C253.252106,501.753998 253.213791,503.085266 252.158646,504.235168 
	C250.031509,506.553345 247.913666,509.514435 244.382843,508.801849 
	C240.140137,507.945648 237.489273,505.026306 237.022308,500.112427 
z"/>
<path fill="#0E0E0E" opacity="1.000000" stroke="none" 
	d="
M273.326294,478.381012 
	C275.277985,478.455750 276.330750,479.311279 275.350464,480.873932 
	C274.314484,482.525391 272.972717,484.142517 270.602020,483.946289 
	C269.132019,483.824585 268.022552,482.897949 267.392548,481.807190 
	C265.366302,478.299011 259.260223,478.701050 259.389069,473.013031 
	C259.447571,470.431519 258.625671,469.294037 262.501770,470.075134 
	C265.922546,470.764435 267.863037,470.667725 267.850311,474.939148 
	C267.846405,476.251129 269.998016,479.136871 273.326294,478.381012 
z"/>
<path fill="#0E0E0E" opacity="1.000000" stroke="none" 
	d="
M317.660278,611.812378 
	C316.973938,612.307129 316.547211,612.783142 316.126740,612.777710 
	C312.217682,612.727051 303.823334,605.377991 303.334961,601.586975 
	C303.019104,599.135498 303.247650,597.643311 306.526764,598.895630 
	C309.114166,599.883850 312.451813,599.145142 311.805695,603.907104 
	C311.646057,605.083679 313.967041,607.709900 316.458893,607.641846 
	C321.105621,607.514954 320.368683,609.170715 317.660278,611.812378 
z"/>
<path fill="#0E0E0E" opacity="1.000000" stroke="none" 
	d="
M477.539551,451.630768 
	C473.641876,451.899292 472.786224,448.066437 470.203400,446.917694 
	C467.501099,445.715820 464.625854,445.280090 464.505310,441.307434 
	C464.453094,439.586182 463.940765,437.136963 465.859985,437.573608 
	C468.103302,438.083984 472.458740,436.271301 472.466797,440.540466 
	C472.473450,444.075134 474.252686,445.199677 476.876740,445.920380 
	C478.262024,446.300842 480.183624,445.825592 480.555481,447.658813 
	C480.942780,449.568512 478.970154,450.329498 477.539551,451.630768 
z"/>
<path fill="#0E0E0E" opacity="1.000000" stroke="none" 
	d="
M594.776062,488.057648 
	C590.993591,486.906128 592.106323,483.603546 591.205994,481.318298 
	C590.904785,480.553864 591.683411,479.673584 592.499329,479.426727 
	C594.275513,478.889343 595.318115,481.134399 597.546021,480.497101 
	C599.993469,479.797058 599.242859,482.041809 599.427673,483.718201 
	C599.721985,486.387939 601.791443,487.912567 604.643799,488.012909 
	C606.021362,488.061371 607.484192,488.241882 607.613708,489.951599 
	C607.726624,491.442871 606.301697,492.153412 605.375366,493.047302 
	C604.279053,494.105286 603.014282,494.239410 601.810547,493.205170 
	C599.689087,491.382477 597.989685,489.010681 594.776062,488.057648 
z"/>
<path fill="#0E0E0E" opacity="1.000000" stroke="none" 
	d="
M636.819214,616.099854 
	C636.383362,615.355408 636.044800,614.877869 636.078430,614.428040 
	C636.219482,612.538879 633.788818,610.406982 635.949585,608.888977 
	C638.063171,607.404053 640.301575,610.595764 642.714600,609.497742 
	C642.895508,615.165100 647.145020,616.592163 651.391541,618.512756 
	C652.666016,619.089111 650.462524,620.925354 649.501038,621.925781 
	C648.036255,623.449951 646.526794,623.086975 645.183411,621.662415 
	C642.906921,619.248474 640.642395,616.829163 636.819214,616.099854 
z"/>
<path fill="#0E0E0E" opacity="1.000000" stroke="none" 
	d="
M445.353058,303.152283 
	C444.110504,302.168304 443.229218,301.343597 442.178406,300.265259 
	C442.067719,296.901001 441.428528,293.653259 443.675140,290.956726 
	C444.769379,289.643372 446.038544,288.274902 447.841095,289.611145 
	C449.712219,290.998230 448.243805,292.190582 447.248016,293.265686 
	C445.980103,294.634491 445.483673,296.214813 446.603912,297.759064 
	C447.883362,299.522766 449.852753,299.317627 451.563812,298.556091 
	C453.160431,297.845428 454.852753,295.858307 456.242157,298.100861 
	C457.723389,300.491577 454.920471,301.522736 453.640259,302.708008 
	C451.300964,304.873810 448.451324,304.249329 445.353058,303.152283 
z"/>
<path fill="#0E0E0E" opacity="1.000000" stroke="none" 
	d="
M489.432373,432.984619 
	C489.002563,431.832062 488.556335,430.920868 487.298828,430.144409 
	C485.050995,426.144043 485.759125,422.636047 488.380646,419.356232 
	C489.342896,418.152344 490.498413,417.616821 491.823975,418.574951 
	C493.378387,419.698456 492.599274,420.828308 491.603119,421.901031 
	C490.143158,423.473206 489.077698,425.074249 491.149261,427.014160 
	C493.178040,428.914062 495.105743,429.319031 497.066406,426.947571 
	C497.993774,425.825897 499.074463,425.844543 500.091064,426.794830 
	C501.296722,427.921875 500.387665,428.780304 499.729370,429.796814 
	C497.283051,433.574310 493.527161,433.087830 489.432373,432.984619 
z"/>
<path fill="#0E0E0E" opacity="1.000000" stroke="none" 
	d="
M616.358032,474.152466 
	C615.512024,473.409088 615.026550,472.825531 614.276611,472.122925 
	C612.336548,468.407104 612.439209,464.933777 614.892456,461.720642 
	C615.829346,460.493622 617.097656,459.427887 618.710022,460.506622 
	C620.635803,461.795013 619.421936,463.014679 618.365906,464.148438 
	C616.803711,465.825653 616.313721,467.653473 618.128723,469.379639 
	C619.744202,470.916046 621.598083,471.062439 623.540710,469.722656 
	C624.652771,468.955688 625.871033,467.178101 627.285461,469.063599 
	C628.598755,470.814331 626.647095,471.661774 625.770203,472.711426 
	C623.219299,475.764984 620.032471,475.450104 616.358032,474.152466 
z"/>
<path fill="#0E0E0E" opacity="1.000000" stroke="none" 
	d="
M660.387817,603.042297 
	C659.542542,601.949280 658.821533,601.231018 657.335815,601.026978 
	C657.017578,597.407288 656.411560,593.725464 659.154907,590.645447 
	C660.274353,589.388672 661.340576,588.469727 662.898010,589.643311 
	C664.454346,590.816040 663.575623,591.998108 662.537964,592.935608 
	C660.167542,595.077148 661.110779,597.215454 662.776367,598.984863 
	C664.479858,600.794495 666.365356,600.067810 667.987915,598.504822 
	C668.972900,597.556091 670.081482,596.498657 671.290833,598.043152 
	C672.473206,599.553101 670.915283,600.365417 670.152344,601.356628 
	C667.542480,604.746948 664.264648,604.464417 660.387817,603.042297 
z"/>
<path fill="#FEFEFE" opacity="1.000000" stroke="none" 
	d="
M22.896135,767.077148 
	C23.703264,767.034363 24.239901,767.188049 24.963593,767.550659 
	C24.646124,768.716492 24.146015,769.983398 22.845592,769.540100 
	C21.710424,769.153198 22.018869,768.107727 22.896135,767.077148 
z"/>
<path fill="#000000" opacity="1.000000" stroke="none" 
	d="
M557.224121,531.794800 
	C558.349426,533.971375 558.401794,535.819092 556.299194,536.712463 
	C554.241394,537.586792 552.895752,535.710083 551.663818,534.560608 
	C550.531494,533.504150 550.402039,531.559753 551.695312,530.587952 
	C553.496826,529.234192 555.431030,529.862488 557.224121,531.794800 
z"/>
<path fill="#E2E2E2" opacity="1.000000" stroke="none" 
	d="
M22.235344,935.132935 
	C23.472303,933.744202 23.997704,934.194885 23.964342,935.512451 
	C23.948587,936.134583 24.397619,937.272461 23.208578,937.240173 
	C22.282572,937.215149 22.098364,936.289612 22.235344,935.132935 
z"/>
<path fill="#CFCFCF" opacity="1.000000" stroke="none" 
	d="
M23.021570,981.239014 
	C21.769493,980.935120 20.325666,981.364075 20.307451,980.083008 
	C20.288855,978.775208 21.708635,978.886658 22.563372,978.904175 
	C24.466200,978.943237 24.045704,980.099670 23.021570,981.239014 
z"/>
<path fill="#CFCFCF" opacity="1.000000" stroke="none" 
	d="
M26.547436,966.988525 
	C28.848728,969.264221 27.083603,970.281250 25.405933,970.734863 
	C23.786768,971.172791 22.247553,969.980469 22.329117,968.384094 
	C22.468391,965.658081 24.847935,967.418518 26.547436,966.988525 
z"/>
<path fill="#E2E2E2" opacity="1.000000" stroke="none" 
	d="
M27.317059,807.432251 
	C28.183035,809.484375 27.579649,810.670776 25.650984,810.628174 
	C24.633724,810.605652 23.948381,809.675110 24.107756,808.521118 
	C24.373728,806.595276 25.673668,806.789612 27.317059,807.432251 
z"/>
<path fill="#E2E2E2" opacity="1.000000" stroke="none" 
	d="
M21.879780,808.339722 
	C21.861021,809.977478 21.162901,810.424011 20.034094,809.931580 
	C19.132002,809.538086 19.024181,808.670776 19.534086,807.941895 
	C20.217638,806.964783 21.061945,806.895325 21.879780,808.339722 
z"/>
<path fill="#E2E2E2" opacity="1.000000" stroke="none" 
	d="
M23.659758,799.055054 
	C22.770603,798.394348 22.182495,797.882751 21.594395,797.371155 
	C22.133530,797.192078 22.665237,796.890259 23.213184,796.857117 
	C24.801405,796.761169 25.220570,797.602539 24.736862,799.015991 
	C24.699549,799.125000 24.554512,799.247925 24.442116,799.268250 
	C24.290504,799.295654 24.122026,799.229858 23.659758,799.055054 
z"/>
<path fill="#E2E2E2" opacity="1.000000" stroke="none" 
	d="
M22.894135,839.647705 
	C22.265375,841.364014 21.478579,842.342407 19.947924,841.169373 
	C19.036959,840.471191 18.883461,839.420044 19.717928,838.655090 
	C20.924759,837.548828 22.266682,836.956421 22.894135,839.647705 
z"/>
<path fill="#CFCFCF" opacity="1.000000" stroke="none" 
	d="
M22.901150,818.868408 
	C22.825737,820.910583 22.268440,822.194519 20.280254,821.453247 
	C19.285006,821.082214 18.780741,820.061157 19.326963,819.077454 
	C20.169630,817.559753 21.395761,817.124146 22.901150,818.868408 
z"/>
<path fill="#CFCFCF" opacity="1.000000" stroke="none" 
	d="
M27.691404,786.868652 
	C27.345686,787.455078 27.147255,787.757874 26.867123,787.903503 
	C24.293463,789.240845 21.743898,789.422546 19.504885,787.307312 
	C18.806995,786.648132 19.186054,785.561462 19.993153,785.216125 
	C22.824192,784.004761 25.702139,783.080811 27.691404,786.868652 
z"/>
<path fill="#CFCFCF" opacity="1.000000" stroke="none" 
	d="
M26.427814,955.548584 
	C28.813751,957.532654 28.026936,958.925537 25.947441,959.751465 
	C24.437346,960.351257 22.616085,959.857727 22.332888,958.215088 
	C21.846720,955.395081 23.863024,955.043945 26.427814,955.548584 
z"/>
<path fill="#CFCFCF" opacity="1.000000" stroke="none" 
	d="
M27.820877,904.894775 
	C26.343399,907.288147 24.590895,907.607788 22.790215,905.944397 
	C21.540518,904.790100 22.003571,903.397766 23.333319,902.684082 
	C25.429140,901.559204 27.132841,902.030823 27.820877,904.894775 
z"/>
<path fill="#000000" opacity="1.000000" stroke="none" 
	d="
M442.001831,471.998779 
	C442.125732,472.141357 442.247803,472.285217 442.369873,472.429047 
	C442.282379,472.380219 442.194916,472.331421 442.052490,472.143127 
	C441.997559,472.003662 442.000000,472.000000 442.001831,471.998779 
z"/>
<path fill="#000000" opacity="1.000000" stroke="none" 
	d="
M399.467590,344.446838 
	C399.523987,344.412781 399.411224,344.480865 399.467590,344.446838 
z"/>
<path fill="#000000" opacity="1.000000" stroke="none" 
	d="
M287.960938,451.354614 
	C291.275543,451.512146 292.603455,454.452667 294.880127,456.702698 
	C293.780518,457.748138 292.378418,458.329102 291.307617,459.282318 
	C289.660919,460.748108 288.166443,461.706665 286.294159,459.738556 
	C284.495880,457.848358 284.653076,456.018097 286.351929,454.127350 
	C286.985809,453.421906 287.405670,452.524170 287.960938,451.354614 
z"/>
<path fill="#000000" opacity="1.000000" stroke="none" 
	d="
M331.992340,579.345093 
	C334.240723,581.113586 336.483856,583.261292 338.878784,585.704834 
	C337.644928,586.874207 336.065887,587.549133 334.917847,588.666687 
	C333.074310,590.461121 331.549408,589.524353 330.134521,588.375732 
	C328.625397,587.150635 328.664734,585.482117 329.725555,583.943726 
	C330.642700,582.613708 332.168243,581.636597 331.992340,579.345093 
z"/>
</svg>