<svg version="1.1" id="Layer_1" xmlns="http://www.w3.org/2000/svg" xmlns:xlink="http://www.w3.org/1999/xlink" x="0px" y="0px"
	 width="100%" viewBox="0 0 2700 2700" enable-background="new 0 0 2700 2700" xml:space="preserve">
<path fill="#FFFFFF" opacity="1.000000" stroke="none" 
	d="
M1768.000000,2702.000000 
	C1178.666626,2702.000000 590.333313,2702.000000 2.000000,2702.000000 
	C2.000000,1802.000000 2.000000,902.000000 2.000000,2.000000 
	C902.000000,2.000000 1802.000000,2.000000 2702.000000,2.000000 
	C2702.000000,902.000000 2702.000000,1802.000000 2702.000000,2702.000000 
	C2391.000000,2702.000000 2080.000000,2702.000000 1768.000000,2702.000000 
M2255.554443,1176.509155 
	C2253.377930,1169.536255 2251.308350,1162.527710 2249.007812,1155.595947 
	C2230.523682,1099.897217 2207.332520,1046.233032 2178.560303,995.075378 
	C2168.791260,977.705872 2157.810791,961.017578 2147.121094,942.728210 
	C2113.111084,890.060913 2074.461914,841.088867 2030.087524,796.756165 
	C2013.652344,780.336487 1996.875244,764.310547 1979.429443,748.861572 
	C1958.597534,730.414001 1937.068726,713.082825 1913.956421,695.674500 
	C1878.327026,669.295410 1840.823975,645.862183 1801.671387,625.126343 
	C1727.504028,585.846008 1649.449463,557.009399 1567.512329,538.702454 
	C1502.789917,524.241760 1437.153809,517.857849 1370.974731,516.413086 
	C1360.046997,516.174500 1349.089722,517.207947 1338.148315,517.703613 
	C1324.217407,518.334595 1310.240967,518.502014 1296.369629,519.789490 
	C1271.611328,522.087463 1246.834961,524.484314 1222.213013,527.897827 
	C1172.074219,534.848938 1123.113281,547.127869 1075.029419,562.802002 
	C1021.142334,580.367737 969.263123,602.740417 919.607117,630.064819 
	C883.441467,649.965759 848.277832,671.527588 814.213562,697.370361 
	C764.988403,733.236816 720.201721,774.072144 678.861816,818.716858 
	C670.800415,827.422852 663.530151,836.861511 654.763367,846.661316 
	C630.431458,874.402161 608.303528,903.878418 588.552490,934.970093 
	C571.134766,962.388672 554.777283,990.530518 539.094849,1018.983093 
	C529.696533,1036.034668 522.492981,1054.295898 513.398254,1073.130981 
	C509.248413,1082.913208 504.925720,1092.626099 500.977997,1102.489258 
	C481.551819,1151.024414 466.336395,1200.825684 455.569427,1252.016113 
	C447.781067,1289.044922 441.991211,1326.336304 438.419769,1365.837769 
	C437.510254,1381.396362 435.798492,1396.957886 435.856354,1412.512939 
	C435.981110,1446.053955 436.614685,1479.606323 437.839050,1513.124878 
	C438.491180,1530.978516 440.631805,1548.789673 442.467438,1566.582153 
	C443.141174,1573.112671 444.872101,1579.533936 445.793121,1587.686646 
	C447.066223,1595.489746 448.322968,1603.295532 449.615234,1611.095459 
	C455.757690,1648.171387 464.902924,1684.524292 475.784058,1720.471436 
	C485.117157,1751.304443 496.126007,1781.518311 509.327606,1812.458252 
	C511.949036,1818.490601 514.307434,1824.654175 517.238953,1830.531738 
	C527.857300,1851.821655 538.328735,1873.195557 549.481384,1894.205566 
	C568.849915,1930.693115 591.141602,1965.466675 615.840698,1998.484497 
	C636.023071,2025.464478 657.385986,2051.728271 680.098511,2076.599121 
	C700.672791,2099.128418 723.778503,2119.345703 746.319946,2141.783203 
	C750.837463,2145.657715 755.392395,2149.489502 759.866211,2153.413818 
	C782.260376,2173.057373 805.761780,2191.291504 830.223206,2208.268555 
	C873.964355,2238.625977 919.667847,2265.579590 967.900513,2288.280273 
	C1009.803284,2308.001953 1052.853882,2324.567383 1097.167603,2337.952637 
	C1140.490845,2351.038818 1184.551880,2360.955322 1229.317017,2367.329834 
	C1255.561157,2371.066895 1282.012329,2374.100830 1308.470093,2375.368164 
	C1333.614258,2376.572266 1358.830566,2378.495117 1384.100464,2376.463135 
	C1399.983887,2375.186279 1415.959106,2375.077148 1431.888916,2374.350098 
	C1469.436523,2372.636475 1506.508545,2367.101807 1543.362061,2360.040283 
	C1602.950073,2348.622314 1660.849121,2331.462646 1716.949707,2308.309082 
	C1749.023071,2295.071777 1780.697144,2281.031250 1810.435425,2262.954346 
	C1829.887085,2251.130615 1849.773682,2240.006348 1869.004272,2227.839600 
	C1891.448120,2213.640381 1913.352661,2198.604248 1933.853027,2181.624756 
	C1951.251587,2167.214600 1968.773926,2152.953857 1987.576172,2138.250000 
	C1993.713745,2132.663818 2000.226929,2127.433594 2005.921875,2121.427734 
	C2026.669800,2099.546387 2047.426270,2077.659668 2067.610596,2055.262451 
	C2078.818604,2042.825806 2089.253906,2029.643921 2099.402832,2016.314575 
	C2113.338867,1998.010986 2126.672852,1979.248901 2141.458008,1959.951538 
	C2153.670898,1939.891479 2167.529297,1920.870483 2177.132324,1899.179443 
	C2182.923828,1886.097290 2191.417969,1874.234863 2197.657227,1861.321777 
	C2206.255127,1843.526978 2214.124512,1825.364868 2221.831055,1807.159180 
	C2228.842041,1790.597168 2235.842529,1773.982544 2241.715576,1756.999634 
	C2248.954834,1736.066895 2255.234863,1714.791870 2261.510010,1693.540771 
	C2264.770508,1682.499146 2267.127686,1671.190674 2270.150879,1658.375366 
	C2270.943848,1655.591187 2271.970703,1652.849854 2272.490479,1650.015747 
	C2275.154785,1635.486450 2277.684570,1620.932739 2280.269043,1606.388916 
	C2283.379639,1588.887451 2287.674805,1571.499268 2289.353027,1553.862061 
	C2292.303223,1522.865234 2294.108887,1491.736328 2295.480225,1460.622559 
	C2296.150635,1445.415405 2294.893799,1430.112549 2294.275391,1414.862549 
	C2293.630127,1398.957520 2292.987061,1383.042725 2291.798584,1367.172974 
	C2291.018066,1356.746460 2289.273926,1346.392090 2288.261230,1334.254517 
	C2288.215820,1332.928223 2288.326660,1331.575073 2288.102295,1330.279785 
	C2282.960449,1300.611938 2278.513672,1270.797729 2272.366699,1241.338623 
	C2267.910400,1219.982788 2261.192871,1199.098755 2255.554443,1176.509155 
z"/>
<path fill="#B53427" opacity="1.000000" stroke="none" 
	d="
M1986.241577,2138.626953 
	C1968.773926,2152.953857 1951.251587,2167.214600 1933.853027,2181.624756 
	C1913.352661,2198.604248 1891.448120,2213.640381 1869.004272,2227.839600 
	C1849.773682,2240.006348 1829.887085,2251.130615 1810.435425,2262.954346 
	C1780.697144,2281.031250 1749.023071,2295.071777 1716.949707,2308.309082 
	C1660.849121,2331.462646 1602.950073,2348.622314 1543.362061,2360.040283 
	C1506.508545,2367.101807 1469.436523,2372.636475 1431.888916,2374.350098 
	C1415.959106,2375.077148 1399.983887,2375.186279 1384.100464,2376.463135 
	C1358.830566,2378.495117 1333.614258,2376.572266 1308.470093,2375.368164 
	C1282.012329,2374.100830 1255.561157,2371.066895 1229.317017,2367.329834 
	C1184.551880,2360.955322 1140.490845,2351.038818 1097.167603,2337.952637 
	C1052.853882,2324.567383 1009.803284,2308.001953 967.900513,2288.280273 
	C919.667847,2265.579590 873.964355,2238.625977 830.223206,2208.268555 
	C805.761780,2191.291504 782.260376,2173.057373 759.866211,2153.413818 
	C755.392395,2149.489502 750.837463,2145.657715 746.240906,2140.349121 
	C749.027039,2133.803955 753.921326,2136.109131 757.853943,2136.105225 
	C885.622131,2135.977783 1013.390503,2136.000488 1141.158813,2135.995605 
	C1144.152222,2135.995361 1147.229004,2136.336914 1150.104492,2135.738525 
	C1151.592651,2135.428467 1152.723755,2133.403076 1154.773315,2132.202637 
	C1162.540527,2134.306641 1169.472778,2136.695068 1176.575684,2138.352051 
	C1196.901245,2143.092773 1217.164673,2148.285889 1237.700439,2151.888184 
	C1258.544922,2155.544922 1279.646240,2157.885010 1300.708130,2160.108887 
	C1317.837891,2161.917725 1335.062012,2163.407715 1352.269531,2163.739746 
	C1368.846069,2164.059814 1385.471069,2162.992188 1402.045288,2162.028564 
	C1420.909546,2160.931152 1439.869629,2160.208496 1458.557617,2157.644287 
	C1487.756226,2153.637695 1516.851318,2148.724854 1545.295166,2140.605713 
	C1556.756592,2137.334473 1568.411987,2134.742188 1580.542480,2132.466064 
	C1585.051392,2133.394043 1588.996460,2133.960449 1592.941895,2133.961914 
	C1719.588135,2134.008301 1846.234253,2133.999268 1972.880493,2134.003174 
	C1975.879517,2134.003418 1979.020508,2133.523682 1981.825562,2134.274902 
	C1983.561523,2134.740234 1984.786987,2137.111328 1986.241577,2138.626953 
z"/>
<path fill="#CC4A2A" opacity="1.000000" stroke="none" 
	d="
M2287.961426,1336.005493 
	C2289.273926,1346.392090 2291.018066,1356.746460 2291.798584,1367.172974 
	C2292.987061,1383.042725 2293.630127,1398.957520 2294.275391,1414.862549 
	C2294.893799,1430.112549 2296.150635,1445.415405 2295.480225,1460.622559 
	C2294.108887,1491.736328 2292.303223,1522.865234 2289.353027,1553.862061 
	C2287.674805,1571.499268 2283.379639,1588.887451 2280.269043,1606.388916 
	C2277.684570,1620.932739 2275.154785,1635.486450 2272.490479,1650.015747 
	C2271.970703,1652.849854 2270.943848,1655.591187 2269.091797,1659.187622 
	C2200.863525,1659.999878 2133.694092,1660.091309 2066.525391,1659.872314 
	C2058.994873,1659.847778 2053.515625,1660.955322 2051.796387,1669.411011 
	C2051.014648,1673.255615 2048.189941,1675.668091 2044.092896,1675.267578 
	C2046.580200,1667.984131 2049.543701,1661.592163 2051.307861,1654.884888 
	C2056.862305,1633.765015 2062.893555,1612.705200 2067.011963,1591.289917 
	C2072.221191,1564.202393 2079.334229,1537.269043 2076.188965,1509.071533 
	C2074.576172,1494.616211 2074.929932,1494.006836 2060.409424,1494.002808 
	C2028.101929,1493.993896 1995.794312,1494.000488 1963.486816,1493.999878 
	C1743.995361,1493.995850 1524.504028,1493.991333 1304.817993,1493.077637 
	C1304.623413,1483.611328 1304.623413,1475.054443 1304.623413,1466.426270 
	C1411.138550,1428.643677 1516.786987,1391.168457 1624.390625,1352.999756 
	C1619.323242,1350.912842 1616.353760,1349.537476 1613.282837,1348.448730 
	C1578.824951,1336.230591 1544.322998,1324.136475 1509.892822,1311.841187 
	C1488.334961,1304.142700 1466.879028,1296.158447 1446.125977,1287.977295 
	C1452.963623,1284.550415 1459.443481,1283.882446 1466.210327,1283.935547 
	C1488.182617,1284.108154 1510.156982,1284.000000 1532.130615,1284.000000 
	C1702.259644,1284.000000 1872.388550,1284.003052 2042.517578,1283.982422 
	C2046.719482,1283.981934 2050.921387,1283.720337 2054.668701,1283.595703 
	C2055.933838,1276.930176 2056.971680,1271.462646 2058.568848,1266.493286 
	C2063.413330,1285.310181 2067.535156,1303.669189 2072.049316,1321.931396 
	C2074.511475,1331.891357 2080.239990,1335.997681 2090.379639,1335.999268 
	C2156.240234,1336.009644 2222.100830,1336.005127 2287.961426,1336.005493 
z"/>
<path fill="#E75F2C" opacity="1.000000" stroke="none" 
	d="
M655.895020,845.962219 
	C663.530151,836.861511 670.800415,827.422852 678.861816,818.716858 
	C720.201721,774.072144 764.988403,733.236816 815.322998,697.840271 
	C820.952637,698.873413 825.472839,699.928955 829.993225,699.929932 
	C1186.632080,700.006226 1543.270996,700.000122 1899.909790,699.998047 
	C1902.909302,699.998047 1905.981323,700.358704 1908.883667,699.819641 
	C1910.919922,699.441528 1912.725098,697.818237 1914.633423,696.750977 
	C1937.068726,713.082825 1958.597534,730.414001 1979.429443,748.861572 
	C1996.875244,764.310547 2013.652344,780.336487 2030.087524,796.756165 
	C2074.461914,841.088867 2113.111084,890.060913 2146.357422,943.369446 
	C2061.657227,944.006287 1977.720825,943.966553 1893.784546,944.082092 
	C1888.549072,944.089294 1883.315186,945.313538 1877.476196,945.683044 
	C1868.034912,937.365479 1858.900146,929.637146 1850.422363,921.245361 
	C1832.259521,903.267212 1812.353760,887.415955 1791.384399,871.777405 
	C1763.003906,848.449158 1731.992310,830.408264 1700.417725,813.331848 
	C1671.122070,797.487915 1640.753784,783.801147 1609.277954,772.957764 
	C1584.807983,764.527832 1560.042969,756.643005 1534.926636,750.483337 
	C1507.304688,743.709229 1479.371826,737.880554 1450.847046,735.686096 
	C1430.381226,734.111572 1409.989014,730.984131 1389.508667,730.357727 
	C1368.623413,729.718933 1347.654297,730.962036 1326.752563,731.998901 
	C1310.215942,732.819214 1293.629517,733.865662 1277.238037,736.086609 
	C1254.623291,739.150757 1231.985596,742.552612 1209.688721,747.348633 
	C1166.744141,756.585999 1125.017944,769.828918 1084.632080,787.376221 
	C1057.436890,799.192261 1030.836304,812.027100 1005.347595,827.175842 
	C995.673889,832.925171 985.863220,838.444031 975.260498,844.047668 
	C971.155029,844.522339 967.901978,845.004700 964.653320,845.514893 
	C959.436462,846.334351 954.223633,847.887939 949.007141,847.895996 
	C854.837646,848.041992 760.667786,848.024475 666.498169,847.916382 
	C662.963013,847.912292 659.429382,846.642273 655.895020,845.962219 
z"/>
<path fill="#CC4A2A" opacity="1.000000" stroke="none" 
	d="
M446.120789,1586.005127 
	C444.872101,1579.533936 443.141174,1573.112671 442.467438,1566.582153 
	C440.631805,1548.789673 438.491180,1530.978516 437.839050,1513.124878 
	C436.614685,1479.606323 435.981110,1446.053955 435.856354,1412.512939 
	C435.798492,1396.957886 437.510254,1381.396362 439.485535,1364.928833 
	C505.325653,1364.013306 570.101135,1363.827148 634.873047,1364.228882 
	C642.916443,1364.278687 647.018433,1361.696899 649.818665,1354.621460 
	C654.678345,1342.342651 658.184692,1329.806641 660.152954,1316.717163 
	C661.407654,1308.373535 664.007935,1300.232056 666.655029,1292.352783 
	C672.786072,1297.020020 668.311035,1302.608643 668.964905,1308.860474 
	C673.162476,1309.246338 677.262634,1309.951782 681.362976,1309.952881 
	C883.982605,1310.002686 1086.602295,1309.992310 1289.415771,1310.908447 
	C1289.631348,1356.255493 1289.670654,1400.682617 1289.654663,1445.109741 
	C1289.652466,1451.397217 1289.380371,1457.684570 1288.346436,1463.978271 
	C1081.527344,1463.991333 875.594788,1463.998047 669.662292,1464.005127 
	C666.996521,1464.005249 664.325745,1464.116577 661.665955,1463.991943 
	C656.576172,1463.753540 653.356445,1466.468750 651.767639,1470.844971 
	C650.666260,1473.878906 649.907715,1477.315308 650.113647,1480.499512 
	C651.202576,1497.337158 653.313416,1514.133301 653.779785,1530.979492 
	C654.251831,1548.028809 658.502869,1564.341187 661.387146,1580.928833 
	C663.425110,1592.649292 665.779541,1604.314819 667.255493,1615.860962 
	C665.672363,1614.422485 664.406433,1613.232544 664.053284,1611.815063 
	C662.536011,1605.726440 661.289856,1599.570312 659.939697,1593.439941 
	C658.859436,1588.534668 655.801208,1586.060303 650.779724,1586.023193 
	C648.450378,1586.005981 646.120911,1586.000854 643.791504,1586.000977 
	C577.901245,1586.001465 512.011047,1586.003418 446.120789,1586.005127 
z"/>
<path fill="#EE642D" opacity="1.000000" stroke="none" 
	d="
M1914.294922,696.212769 
	C1912.725098,697.818237 1910.919922,699.441528 1908.883667,699.819641 
	C1905.981323,700.358704 1902.909302,699.998047 1899.909790,699.998047 
	C1543.270996,700.000122 1186.632080,700.006226 829.993225,699.929932 
	C825.472839,699.928955 820.952637,698.873413 815.951660,697.516113 
	C848.277832,671.527588 883.441467,649.965759 919.607117,630.064819 
	C969.263123,602.740417 1021.142334,580.367737 1075.029419,562.802002 
	C1123.113281,547.127869 1172.074219,534.848938 1222.213013,527.897827 
	C1246.834961,524.484314 1271.611328,522.087463 1296.369629,519.789490 
	C1310.240967,518.502014 1324.217407,518.334595 1338.148315,517.703613 
	C1349.089722,517.207947 1360.046997,516.174500 1370.974731,516.413086 
	C1437.153809,517.857849 1502.789917,524.241760 1567.512329,538.702454 
	C1649.449463,557.009399 1727.504028,585.846008 1801.671387,625.126343 
	C1840.823975,645.862183 1878.327026,669.295410 1914.294922,696.212769 
z"/>
<path fill="#BB3A27" opacity="1.000000" stroke="none" 
	d="
M1154.016235,2132.152832 
	C1152.723755,2133.403076 1151.592651,2135.428467 1150.104492,2135.738525 
	C1147.229004,2136.336914 1144.152222,2135.995361 1141.158813,2135.995605 
	C1013.390503,2136.000488 885.622131,2135.977783 757.853943,2136.105225 
	C753.921326,2136.109131 749.027039,2133.803955 745.964966,2139.749023 
	C723.778503,2119.345703 700.672791,2099.128418 680.098511,2076.599121 
	C657.385986,2051.728271 636.023071,2025.464478 615.840698,1998.484497 
	C591.141602,1965.466675 568.849915,1930.693115 549.481384,1894.205566 
	C538.328735,1873.195557 527.857300,1851.821655 517.238953,1830.531738 
	C514.307434,1824.654175 511.949036,1818.490601 509.730621,1811.130615 
	C512.985291,1809.204102 515.836182,1808.086060 518.688660,1808.082153 
	C589.017761,1807.984741 659.347107,1808.063477 729.675964,1807.901123 
	C735.698608,1807.887207 739.347839,1809.946655 742.810974,1814.892822 
	C745.463989,1818.682251 750.197693,1821.014648 754.608398,1824.304199 
	C756.214600,1825.908813 757.252991,1827.179199 758.216309,1828.504028 
	C763.440552,1835.688232 768.646240,1842.885864 773.968506,1850.771362 
	C774.489258,1852.363892 774.787170,1853.338745 775.326721,1854.153564 
	C794.617065,1883.284424 817.154541,1909.878784 840.793762,1935.438110 
	C862.231506,1958.617065 884.983215,1980.584473 910.276672,2000.660645 
	C914.944519,2004.788330 919.192932,2008.464478 923.676147,2011.827637 
	C951.222534,2032.492310 979.620728,2051.803223 1009.448914,2069.146484 
	C1036.483521,2084.865479 1064.501709,2098.348877 1093.421997,2109.969238 
	C1113.370728,2117.984375 1133.801147,2124.800781 1154.016235,2132.152832 
z"/>
<path fill="#C44329" opacity="1.000000" stroke="none" 
	d="
M2044.020142,1676.014648 
	C2048.189941,1675.668091 2051.014648,1673.255615 2051.796387,1669.411011 
	C2053.515625,1660.955322 2058.994873,1659.847778 2066.525391,1659.872314 
	C2133.694092,1660.091309 2200.863525,1659.999878 2268.962891,1660.001343 
	C2267.127686,1671.190674 2264.770508,1682.499146 2261.510010,1693.540771 
	C2255.234863,1714.791870 2248.954834,1736.066895 2241.715576,1756.999634 
	C2235.842529,1773.982544 2228.842041,1790.597168 2221.831055,1807.159180 
	C2214.124512,1825.364868 2206.255127,1843.526978 2197.657227,1861.321777 
	C2191.417969,1874.234863 2182.923828,1886.097290 2177.132324,1899.179443 
	C2167.529297,1920.870483 2153.670898,1939.891479 2140.662109,1959.475098 
	C2137.075439,1953.781372 2132.152100,1956.108643 2128.229248,1956.101685 
	C2047.368164,1955.959961 1966.506714,1956.026978 1885.645386,1955.910889 
	C1881.108032,1955.904297 1876.572510,1954.676636 1872.315430,1953.411621 
	C1881.309692,1943.281738 1890.070068,1933.798706 1898.722900,1924.218506 
	C1904.262329,1918.085327 1909.924194,1912.030640 1915.036987,1905.551025 
	C1925.868896,1891.823242 1936.461548,1877.903809 1946.968628,1863.924805 
	C1950.285400,1859.512085 1953.017456,1854.660156 1956.624268,1849.706177 
	C1967.666016,1832.609009 1978.452026,1816.021240 1988.451660,1798.972168 
	C2002.995850,1774.175049 2016.478027,1748.803589 2026.322998,1721.678589 
	C2028.219849,1716.452148 2030.127075,1711.229370 2032.596924,1705.578613 
	C2036.782837,1695.439819 2040.401489,1685.727173 2044.020142,1676.014648 
z"/>
<path fill="#D6522B" opacity="1.000000" stroke="none" 
	d="
M666.004883,1292.000000 
	C664.007935,1300.232056 661.407654,1308.373535 660.152954,1316.717163 
	C658.184692,1329.806641 654.678345,1342.342651 649.818665,1354.621460 
	C647.018433,1361.696899 642.916443,1364.278687 634.873047,1364.228882 
	C570.101135,1363.827148 505.325653,1364.013306 439.666290,1364.026489 
	C441.991211,1326.336304 447.781067,1289.044922 455.569427,1252.016113 
	C466.336395,1200.825684 481.551819,1151.024414 500.977997,1102.489258 
	C504.925720,1092.626099 509.248413,1082.913208 514.766968,1072.570557 
	C588.434570,1072.008301 660.733459,1071.998047 733.032288,1072.017212 
	C740.949158,1072.019287 748.971252,1072.798828 755.967163,1068.708252 
	C754.577087,1072.255493 753.266113,1075.118896 751.411865,1078.378174 
	C743.727173,1091.506592 736.260437,1104.069824 729.528076,1117.015015 
	C721.418945,1132.607178 712.857788,1148.098999 706.420410,1164.395874 
	C695.713501,1191.501343 686.002991,1219.036865 676.943665,1246.741577 
	C672.134827,1261.447632 669.578186,1276.890015 666.004883,1292.000000 
z"/>
<path fill="#DF592B" opacity="1.000000" stroke="none" 
	d="
M756.046265,1068.024292 
	C748.971252,1072.798828 740.949158,1072.019287 733.032288,1072.017212 
	C660.733459,1071.998047 588.434570,1072.008301 515.219360,1072.011719 
	C522.492981,1054.295898 529.696533,1036.034668 539.094849,1018.983093 
	C554.777283,990.530518 571.134766,962.388672 588.552490,934.970093 
	C608.303528,903.878418 630.431458,874.402161 655.329224,846.311768 
	C659.429382,846.642273 662.963013,847.912292 666.498169,847.916382 
	C760.667786,848.024475 854.837646,848.041992 949.007141,847.895996 
	C954.223633,847.887939 959.436462,846.334351 964.653320,845.514893 
	C967.901978,845.004700 971.155029,844.522339 974.923950,844.636536 
	C962.954285,854.145874 950.466797,863.046082 937.372925,872.245483 
	C917.555481,888.321289 897.577576,903.267822 879.348816,920.107727 
	C861.062317,937.000977 844.336304,955.609619 827.261475,973.781311 
	C807.468079,994.846130 790.233154,1017.963501 774.033752,1041.868652 
	C768.097961,1050.627930 762.045471,1059.307983 756.046265,1068.024292 
z"/>
<path fill="#BB3A27" opacity="1.000000" stroke="none" 
	d="
M1872.036133,1954.017456 
	C1876.572510,1954.676636 1881.108032,1955.904297 1885.645386,1955.910889 
	C1966.506714,1956.026978 2047.368164,1955.959961 2128.229248,1956.101685 
	C2132.152100,1956.108643 2137.075439,1953.781372 2140.065430,1959.840820 
	C2126.672852,1979.248901 2113.338867,1998.010986 2099.402832,2016.314575 
	C2089.253906,2029.643921 2078.818604,2042.825806 2067.610596,2055.262451 
	C2047.426270,2077.659668 2026.669800,2099.546387 2005.921875,2121.427734 
	C2000.226929,2127.433594 1993.713745,2132.663818 1986.908936,2138.438477 
	C1984.786987,2137.111328 1983.561523,2134.740234 1981.825562,2134.274902 
	C1979.020508,2133.523682 1975.879517,2134.003418 1972.880493,2134.003174 
	C1846.234253,2133.999268 1719.588135,2134.008301 1592.941895,2133.961914 
	C1588.996460,2133.960449 1585.051392,2133.394043 1581.023682,2131.945068 
	C1614.305908,2119.571289 1647.312744,2107.347168 1678.752319,2091.452881 
	C1699.776978,2080.823486 1720.484131,2069.460938 1740.707764,2057.379395 
	C1764.607666,2043.101685 1787.408936,2027.106812 1808.358765,2008.642944 
	C1812.297485,2005.171509 1816.148926,2001.600708 1820.730103,1997.995605 
	C1829.421997,1991.142334 1837.493286,1984.448486 1845.409424,1977.575684 
	C1854.357788,1969.806885 1863.166626,1961.877075 1872.036133,1954.017456 
z"/>
<path fill="#DF592B" opacity="1.000000" stroke="none" 
	d="
M1878.080566,945.971558 
	C1883.315186,945.313538 1888.549072,944.089294 1893.784546,944.082092 
	C1977.720825,943.966553 2061.657227,944.006287 2146.488770,944.014282 
	C2157.810791,961.017578 2168.791260,977.705872 2178.560303,995.075378 
	C2207.332520,1046.233032 2230.523682,1099.897217 2249.007812,1155.595947 
	C2251.308350,1162.527710 2253.377930,1169.536255 2254.616699,1177.256836 
	C2189.022949,1178.001343 2124.366699,1178.082031 2059.711426,1177.906250 
	C2049.802734,1177.879395 2039.897217,1176.668579 2029.431519,1175.584473 
	C2023.197510,1163.306030 2017.620483,1151.400024 2011.821411,1139.603271 
	C2004.849243,1125.420166 1997.897339,1111.218872 1990.503418,1097.254761 
	C1987.635132,1091.838135 1983.582275,1087.048828 1979.975586,1081.266113 
	C1976.378540,1074.596436 1972.942993,1068.593262 1969.360229,1062.679077 
	C1948.944336,1028.978394 1924.929810,998.021729 1898.188843,969.119141 
	C1891.251099,961.620728 1884.770996,953.698914 1878.080566,945.971558 
z"/>
<path fill="#C44329" opacity="1.000000" stroke="none" 
	d="
M754.005981,1823.995117 
	C750.197693,1821.014648 745.463989,1818.682251 742.810974,1814.892822 
	C739.347839,1809.946655 735.698608,1807.887207 729.675964,1807.901123 
	C659.347107,1808.063477 589.017761,1807.984741 518.688660,1808.082153 
	C515.836182,1808.086060 512.985291,1809.204102 509.424255,1810.483398 
	C496.126007,1781.518311 485.117157,1751.304443 475.784058,1720.471436 
	C464.902924,1684.524292 455.757690,1648.171387 449.615234,1611.095459 
	C448.322968,1603.295532 447.066223,1595.489746 445.956970,1586.845947 
	C512.011047,1586.003418 577.901245,1586.001465 643.791504,1586.000977 
	C646.120911,1586.000854 648.450378,1586.005981 650.779724,1586.023193 
	C655.801208,1586.060303 658.859436,1588.534668 659.939697,1593.439941 
	C661.289856,1599.570312 662.536011,1605.726440 664.053284,1611.815063 
	C664.406433,1613.232544 665.672363,1614.422485 667.818787,1616.374512 
	C672.426514,1629.392944 675.502686,1641.821899 679.119141,1654.091675 
	C681.698669,1662.843506 685.004211,1671.381348 688.074707,1680.763672 
	C691.500122,1690.891235 694.498169,1700.406860 698.234497,1709.623169 
	C711.219177,1741.653198 725.415161,1773.105713 743.227051,1802.828613 
	C747.287354,1809.604126 750.437134,1816.925171 754.005981,1823.995117 
z"/>
<path fill="#D6522B" opacity="1.000000" stroke="none" 
	d="
M2029.990234,1176.005371 
	C2039.897217,1176.668579 2049.802734,1177.879395 2059.711426,1177.906250 
	C2124.366699,1178.082031 2189.022949,1178.001343 2254.581055,1178.004395 
	C2261.192871,1199.098755 2267.910400,1219.982788 2272.366699,1241.338623 
	C2278.513672,1270.797729 2282.960449,1300.611938 2288.102295,1330.279785 
	C2288.326660,1331.575073 2288.215820,1332.928223 2288.111328,1335.130005 
	C2222.100830,1336.005127 2156.240234,1336.009644 2090.379639,1335.999268 
	C2080.239990,1335.997681 2074.511475,1331.891357 2072.049316,1321.931396 
	C2067.535156,1303.669189 2063.413330,1285.310181 2058.551025,1265.705811 
	C2049.259521,1237.482544 2040.530640,1210.549561 2031.855225,1183.599243 
	C2031.058594,1181.124268 2030.603760,1178.539307 2029.990234,1176.005371 
z"/>
<path fill="#EE642D" opacity="1.000000" stroke="none" 
	d="
M1820.040771,1998.075806 
	C1816.148926,2001.600708 1812.297485,2005.171509 1808.358765,2008.642944 
	C1787.408936,2027.106812 1764.607666,2043.101685 1740.707764,2057.379395 
	C1720.484131,2069.460938 1699.776978,2080.823486 1678.752319,2091.452881 
	C1647.312744,2107.347168 1614.305908,2119.571289 1580.460205,2131.319824 
	C1568.411987,2134.742188 1556.756592,2137.334473 1545.295166,2140.605713 
	C1516.851318,2148.724854 1487.756226,2153.637695 1458.557617,2157.644287 
	C1439.869629,2160.208496 1420.909546,2160.931152 1402.045288,2162.028564 
	C1385.471069,2162.992188 1368.846069,2164.059814 1352.269531,2163.739746 
	C1335.062012,2163.407715 1317.837891,2161.917725 1300.708130,2160.108887 
	C1279.646240,2157.885010 1258.544922,2155.544922 1237.700439,2151.888184 
	C1217.164673,2148.285889 1196.901245,2143.092773 1176.575684,2138.352051 
	C1169.472778,2136.695068 1162.540527,2134.306641 1154.773315,2132.202637 
	C1133.801147,2124.800781 1113.370728,2117.984375 1093.421997,2109.969238 
	C1064.501709,2098.348877 1036.483521,2084.865479 1009.448914,2069.146484 
	C979.620728,2051.803223 951.222534,2032.492310 923.676147,2011.827637 
	C919.192932,2008.464478 914.944519,2004.788330 910.308838,1999.864746 
	C910.274292,1993.630737 913.932495,1992.654297 917.624084,1992.165527 
	C920.573547,1991.775024 923.608643,1992.003906 926.605713,1992.003784 
	C1219.080688,1991.999634 1511.555786,1991.999878 1804.030762,1992.002441 
	C1806.695312,1992.002441 1809.388916,1991.795898 1812.017212,1992.114136 
	C1815.715454,1992.561768 1819.370117,1993.403809 1820.040771,1998.075806 
z"/>
<path fill="#C44329" opacity="1.000000" stroke="none" 
	d="
M2029.431519,1175.584473 
	C2030.603760,1178.539307 2031.058594,1181.124268 2031.855225,1183.599243 
	C2040.530640,1210.549561 2049.259521,1237.482544 2057.991699,1265.207642 
	C2056.971680,1271.462646 2055.933838,1276.930176 2054.668701,1283.595703 
	C2050.921387,1283.720337 2046.719482,1283.981934 2042.517578,1283.982422 
	C1872.388550,1284.003052 1702.259644,1284.000000 1532.130615,1284.000000 
	C1510.156982,1284.000000 1488.182617,1284.108154 1466.210327,1283.935547 
	C1459.443481,1283.882446 1452.963623,1284.550415 1445.389160,1287.950317 
	C1399.794067,1272.705322 1355.682617,1257.167114 1311.577637,1241.610474 
	C1307.791504,1240.274902 1304.391113,1239.003052 1303.763916,1233.848022 
	C1303.304932,1230.075684 1299.554565,1229.004883 1295.919556,1229.474365 
	C1292.093506,1229.968384 1290.036011,1232.359985 1289.798584,1236.171143 
	C1289.633423,1238.823730 1289.689819,1241.490845 1289.671265,1244.151733 
	C1289.518311,1266.097290 1289.370972,1288.042969 1289.221924,1309.988525 
	C1086.602295,1309.992310 883.982605,1310.002686 681.362976,1309.952881 
	C677.262634,1309.951782 673.162476,1309.246338 668.964905,1308.860474 
	C668.311035,1302.608643 672.786072,1297.020020 666.655029,1292.352783 
	C669.578186,1276.890015 672.134827,1261.447632 676.943665,1246.741577 
	C686.002991,1219.036865 695.713501,1191.501343 706.420410,1164.395874 
	C712.857788,1148.098999 721.418945,1132.607178 729.528076,1117.015015 
	C736.260437,1104.069824 743.727173,1091.506592 751.990234,1078.892578 
	C753.839905,1081.140869 754.567932,1083.270752 755.500854,1086.000000 
	C760.043762,1086.000000 764.331055,1086.000000 768.618347,1086.000000 
	C1166.473877,1086.000000 1564.329346,1086.000000 1962.184814,1086.000000 
	C1963.850952,1086.000000 1965.548584,1085.791748 1967.177246,1086.038696 
	C1972.178345,1086.797119 1976.268921,1084.900513 1980.069092,1081.973633 
	C1983.582275,1087.048828 1987.635132,1091.838135 1990.503418,1097.254761 
	C1997.897339,1111.218872 2004.849243,1125.420166 2011.821411,1139.603271 
	C2017.620483,1151.400024 2023.197510,1163.306030 2029.431519,1175.584473 
z"/>
<path fill="#D6522B" opacity="1.000000" stroke="none" 
	d="
M2044.092896,1675.267578 
	C2040.401489,1685.727173 2036.782837,1695.439819 2031.762695,1705.472290 
	C2025.788818,1705.194824 2021.217773,1704.086914 2016.644409,1704.077515 
	C1959.682739,1703.958984 1902.720581,1704.004517 1845.758667,1703.999146 
	C1665.545776,1703.982300 1485.332886,1703.961670 1304.884155,1703.038940 
	C1304.596313,1634.396240 1304.540649,1566.657104 1304.514282,1498.917847 
	C1304.513672,1497.274292 1304.839233,1495.630615 1305.012695,1493.987061 
	C1524.504028,1493.991333 1743.995361,1493.995850 1963.486816,1493.999878 
	C1995.794312,1494.000488 2028.101929,1493.993896 2060.409424,1494.002808 
	C2074.929932,1494.006836 2074.576172,1494.616211 2076.188965,1509.071533 
	C2079.334229,1537.269043 2072.221191,1564.202393 2067.011963,1591.289917 
	C2062.893555,1612.705200 2056.862305,1633.765015 2051.307861,1654.884888 
	C2049.543701,1661.592163 2046.580200,1667.984131 2044.092896,1675.267578 
z"/>
<path fill="#FFFFFF" opacity="1.000000" stroke="none" 
	d="
M1304.818115,1493.077637 
	C1304.839233,1495.630615 1304.513672,1497.274292 1304.514282,1498.917847 
	C1304.540649,1566.657104 1304.596313,1634.396240 1304.637207,1703.951416 
	C1304.584351,1715.431519 1304.539307,1725.095459 1304.501831,1734.759521 
	C1304.458130,1746.040894 1304.461060,1746.040894 1293.332520,1749.566772 
	C1288.715088,1746.366577 1289.782959,1741.392456 1289.735596,1736.919556 
	C1289.484985,1713.271606 1289.380859,1689.622070 1289.407959,1665.054932 
	C1289.627563,1599.393311 1289.669312,1534.650146 1289.682983,1469.906860 
	C1289.683472,1467.928589 1289.389771,1465.950317 1289.233154,1463.972046 
	C1289.380371,1457.684570 1289.652466,1451.397217 1289.654663,1445.109741 
	C1289.670654,1400.682617 1289.631348,1356.255493 1289.415771,1310.908447 
	C1289.370972,1288.042969 1289.518311,1266.097290 1289.671265,1244.151733 
	C1289.689819,1241.490845 1289.633423,1238.823730 1289.798584,1236.171143 
	C1290.036011,1232.359985 1292.093506,1229.968384 1295.919556,1229.474365 
	C1299.554565,1229.004883 1303.304932,1230.075684 1303.763916,1233.848022 
	C1304.391113,1239.003052 1307.791504,1240.274902 1311.577637,1241.610474 
	C1355.682617,1257.167114 1399.794067,1272.705322 1444.640625,1288.275391 
	C1466.879028,1296.158447 1488.334961,1304.142700 1509.892822,1311.841187 
	C1544.322998,1324.136475 1578.824951,1336.230591 1613.282837,1348.448730 
	C1616.353760,1349.537476 1619.323242,1350.912842 1624.390625,1352.999756 
	C1516.786987,1391.168457 1411.138550,1428.643677 1304.623413,1466.426270 
	C1304.623413,1475.054443 1304.623413,1483.611328 1304.818115,1493.077637 
z"/>
<path fill="#BB3A27" opacity="1.000000" stroke="none" 
	d="
M1979.975586,1081.266113 
	C1976.268921,1084.900513 1972.178345,1086.797119 1967.177246,1086.038696 
	C1965.548584,1085.791748 1963.850952,1086.000000 1962.184814,1086.000000 
	C1564.329346,1086.000000 1166.473877,1086.000000 768.618347,1086.000000 
	C764.331055,1086.000000 760.043762,1086.000000 755.500854,1086.000000 
	C754.567932,1083.270752 753.839905,1081.140869 752.533508,1078.496704 
	C753.266113,1075.118896 754.577087,1072.255493 755.967163,1068.708252 
	C762.045471,1059.307983 768.097961,1050.627930 774.033752,1041.868652 
	C790.233154,1017.963501 807.468079,994.846130 827.261475,973.781311 
	C844.336304,955.609619 861.062317,937.000977 879.348816,920.107727 
	C897.577576,903.267822 917.555481,888.321289 937.384521,873.096802 
	C939.680481,879.950012 939.680481,879.995361 948.488159,879.995605 
	C1226.350708,880.003540 1504.213379,880.003662 1782.075928,879.979980 
	C1784.995728,879.979736 1787.915405,879.646851 1791.190063,879.447693 
	C1791.497437,876.598938 1791.740601,874.344849 1791.983887,872.090820 
	C1812.353760,887.415955 1832.259521,903.267212 1850.422363,921.245361 
	C1858.900146,929.637146 1868.034912,937.365479 1877.476196,945.683044 
	C1884.770996,953.698914 1891.251099,961.620728 1898.188843,969.119141 
	C1924.929810,998.021729 1948.944336,1028.978394 1969.360229,1062.679077 
	C1972.942993,1068.593262 1976.378540,1074.596436 1979.975586,1081.266113 
z"/>
<path fill="#B53427" opacity="1.000000" stroke="none" 
	d="
M1791.384399,871.777405 
	C1791.740601,874.344849 1791.497437,876.598938 1791.190063,879.447693 
	C1787.915405,879.646851 1784.995728,879.979736 1782.075928,879.979980 
	C1504.213379,880.003662 1226.350708,880.003540 948.488159,879.995605 
	C939.680481,879.995361 939.680481,879.950012 937.990967,872.797668 
	C950.466797,863.046082 962.954285,854.145874 975.778320,844.656738 
	C985.863220,838.444031 995.673889,832.925171 1005.347595,827.175842 
	C1030.836304,812.027100 1057.436890,799.192261 1084.632080,787.376221 
	C1125.017944,769.828918 1166.744141,756.585999 1209.688721,747.348633 
	C1231.985596,742.552612 1254.623291,739.150757 1277.238037,736.086609 
	C1293.629517,733.865662 1310.215942,732.819214 1326.752563,731.998901 
	C1347.654297,730.962036 1368.623413,729.718933 1389.508667,730.357727 
	C1409.989014,730.984131 1430.381226,734.111572 1450.847046,735.686096 
	C1479.371826,737.880554 1507.304688,743.709229 1534.926636,750.483337 
	C1560.042969,756.643005 1584.807983,764.527832 1609.277954,772.957764 
	C1640.753784,783.801147 1671.122070,797.487915 1700.417725,813.331848 
	C1731.992310,830.408264 1763.003906,848.449158 1791.384399,871.777405 
z"/>
<path fill="#D6522B" opacity="1.000000" stroke="none" 
	d="
M1288.346436,1463.978271 
	C1289.389771,1465.950317 1289.683472,1467.928589 1289.682983,1469.906860 
	C1289.669312,1534.650146 1289.627563,1599.393311 1288.522705,1665.061279 
	C1089.307007,1665.986084 891.158508,1665.986084 694.381897,1665.986084 
	C691.750122,1671.758301 689.867920,1675.886475 687.985779,1680.014648 
	C685.004211,1671.381348 681.698669,1662.843506 679.119141,1654.091675 
	C675.502686,1641.821899 672.426514,1629.392944 668.555969,1616.518433 
	C665.779541,1604.314819 663.425110,1592.649292 661.387146,1580.928833 
	C658.502869,1564.341187 654.251831,1548.028809 653.779785,1530.979492 
	C653.313416,1514.133301 651.202576,1497.337158 650.113647,1480.499512 
	C649.907715,1477.315308 650.666260,1473.878906 651.767639,1470.844971 
	C653.356445,1466.468750 656.576172,1463.753540 661.665955,1463.991943 
	C664.325745,1464.116577 666.996521,1464.005249 669.662292,1464.005127 
	C875.594788,1463.998047 1081.527344,1463.991333 1288.346436,1463.978271 
z"/>
<path fill="#DF592B" opacity="1.000000" stroke="none" 
	d="
M688.074707,1680.763672 
	C689.867920,1675.886475 691.750122,1671.758301 694.381897,1665.986084 
	C891.158508,1665.986084 1089.307007,1665.986084 1288.340820,1665.979614 
	C1289.380859,1689.622070 1289.484985,1713.271606 1289.735596,1736.919556 
	C1289.782959,1741.392456 1288.715088,1746.366577 1293.332520,1749.566772 
	C1304.461060,1746.040894 1304.458130,1746.040894 1304.501831,1734.759521 
	C1304.539307,1725.095459 1304.584351,1715.431519 1304.873047,1704.854980 
	C1485.332886,1703.961670 1665.545776,1703.982300 1845.758667,1703.999146 
	C1902.720581,1704.004517 1959.682739,1703.958984 2016.644409,1704.077515 
	C2021.217773,1704.086914 2025.788818,1705.194824 2031.195312,1705.898560 
	C2030.127075,1711.229370 2028.219849,1716.452148 2026.322998,1721.678589 
	C2016.478027,1748.803589 2002.995850,1774.175049 1988.451660,1798.972168 
	C1978.452026,1816.021240 1967.666016,1832.609009 1956.051636,1849.189453 
	C1954.145996,1846.847046 1953.420166,1844.718262 1952.680420,1842.548584 
	C1560.547241,1842.548584 1168.874268,1842.548584 777.739380,1842.548584 
	C776.221558,1845.493652 775.039917,1847.786255 773.858337,1850.078979 
	C768.646240,1842.885864 763.440552,1835.688232 758.216309,1828.504028 
	C757.252991,1827.179199 756.214600,1825.908813 754.608398,1824.304199 
	C750.437134,1816.925171 747.287354,1809.604126 743.227051,1802.828613 
	C725.415161,1773.105713 711.219177,1741.653198 698.234497,1709.623169 
	C694.498169,1700.406860 691.500122,1690.891235 688.074707,1680.763672 
z"/>
<path fill="#E75F2C" opacity="1.000000" stroke="none" 
	d="
M773.968506,1850.771362 
	C775.039917,1847.786255 776.221558,1845.493652 777.739380,1842.548584 
	C1168.874268,1842.548584 1560.547241,1842.548584 1952.680420,1842.548584 
	C1953.420166,1844.718262 1954.145996,1846.847046 1955.444580,1849.492676 
	C1953.017456,1854.660156 1950.285400,1859.512085 1946.968628,1863.924805 
	C1936.461548,1877.903809 1925.868896,1891.823242 1915.036987,1905.551025 
	C1909.924194,1912.030640 1904.262329,1918.085327 1898.722900,1924.218506 
	C1890.070068,1933.798706 1881.309692,1943.281738 1872.315552,1953.411621 
	C1863.166626,1961.877075 1854.357788,1969.806885 1845.409424,1977.575684 
	C1837.493286,1984.448486 1829.421997,1991.142334 1820.730103,1997.995605 
	C1819.370117,1993.403809 1815.715454,1992.561768 1812.017212,1992.114136 
	C1809.388916,1991.795898 1806.695312,1992.002441 1804.030762,1992.002441 
	C1511.555786,1991.999878 1219.080688,1991.999634 926.605713,1992.003784 
	C923.608643,1992.003906 920.573547,1991.775024 917.624084,1992.165527 
	C913.932495,1992.654297 910.274292,1993.630737 909.997925,1999.268555 
	C884.983215,1980.584473 862.231506,1958.617065 840.793762,1935.438110 
	C817.154541,1909.878784 794.617065,1883.284424 775.326721,1854.153564 
	C774.787170,1853.338745 774.489258,1852.363892 773.968506,1850.771362 
z"/>
</svg>