<svg version="1.1" id="Layer_1" xmlns="http://www.w3.org/2000/svg" xmlns:xlink="http://www.w3.org/1999/xlink" x="0px" y="0px"
	 width="100%" viewBox="0 0 196 258" enable-background="new 0 0 196 258" xml:space="preserve">
<path fill="#FEFEFF" opacity="1.000000" stroke="none" 
	d="
M99.000000,259.000000 
	C66.000000,259.000000 33.500004,259.000000 1.000004,259.000000 
	C1.000003,173.000000 1.000003,87.000015 1.000001,1.000016 
	C66.333321,1.000011 131.666641,1.000011 196.999969,1.000005 
	C196.999985,86.999977 196.999985,172.999954 197.000000,258.999969 
	C164.500000,259.000000 132.000000,259.000000 99.000000,259.000000 
M23.519646,142.886154 
	C59.481091,142.925476 95.442688,142.925552 131.403748,143.062912 
	C135.129013,143.077133 135.909592,141.334457 135.881851,138.171021 
	C135.803024,129.180817 135.733963,120.187126 135.909424,111.199661 
	C135.987076,107.221992 134.353638,106.055000 130.538742,106.066055 
	C95.907433,106.166435 61.275646,106.100418 26.644373,106.205681 
	C25.136333,106.210258 23.631914,107.405182 21.923353,108.957825 
	C21.905306,118.707558 21.846178,128.457581 21.916454,138.206680 
	C21.926247,139.565063 22.572969,140.918854 23.519646,142.886154 
M159.453857,91.038689 
	C159.441696,115.174271 159.400558,139.309891 159.429367,163.445419 
	C159.444260,175.921249 159.583267,188.396957 159.503494,201.377899 
	C159.511276,201.554642 159.519058,201.731369 159.190628,202.534256 
	C158.296173,206.214050 155.437515,206.174500 152.493942,206.172684 
	C117.495285,206.151077 82.496590,206.165283 47.497910,206.151794 
	C41.352997,206.149429 40.319901,205.112396 40.306583,198.827469 
	C40.274456,183.661438 40.296219,168.495300 40.296246,153.329208 
	C40.296249,151.581100 40.296242,149.832993 40.296242,148.213654 
	C37.246567,148.213654 34.998497,148.213654 32.195801,148.213654 
	C32.195801,150.501602 32.195793,152.470413 32.195801,154.439209 
	C32.195869,169.105316 32.189503,183.771439 32.198093,198.437546 
	C32.204773,209.835602 36.528496,214.251984 47.762173,214.256836 
	C82.427521,214.271820 117.092896,214.268890 151.758255,214.258850 
	C163.409088,214.255478 167.312866,210.345642 167.316681,198.657440 
	C167.328873,161.325516 167.387909,123.993217 167.179428,86.662453 
	C167.164886,84.060158 165.769714,80.778053 163.894135,78.988350 
	C153.823151,69.378403 143.458252,60.071484 133.037064,50.838001 
	C131.105499,49.126583 128.462189,47.146000 126.129692,47.123497 
	C99.299881,46.864697 72.466515,46.912384 45.634415,46.989853 
	C37.359810,47.013744 32.330124,52.087391 32.234291,60.502171 
	C32.095749,72.666809 32.187355,84.834198 32.210270,97.000359 
	C32.212700,98.290237 32.412388,99.579735 32.518875,100.849243 
	C35.228718,100.849243 37.622375,100.849243 40.296165,100.849243 
	C40.296165,87.823906 40.279835,75.175957 40.303055,62.528084 
	C40.314663,56.206593 41.504967,55.051395 47.952656,55.048481 
	C71.618431,55.037785 95.284203,55.044254 118.949982,55.044262 
	C120.531555,55.044262 122.113129,55.044262 123.906769,55.044262 
	C123.906769,64.149658 123.894012,72.470818 123.910751,80.791916 
	C123.924454,87.604271 124.433342,88.087219 131.438995,88.092155 
	C139.272034,88.097672 147.105743,88.040115 154.937546,88.138557 
	C156.493683,88.158112 158.042526,88.759071 159.513748,89.622070 
	C159.563675,89.793716 159.613602,89.965363 159.453857,91.038689 
M129.727524,161.430038 
	C126.956223,162.196075 123.996773,162.574539 121.453033,163.809357 
	C116.263451,166.328568 113.437630,172.595932 114.284103,178.576630 
	C115.210533,185.122177 119.196495,189.986206 125.726913,190.660492 
	C131.018341,191.206863 136.462402,190.274765 141.722702,190.004410 
	C141.722702,185.166595 141.722702,180.701965 141.722702,176.098724 
	C139.434311,176.485123 137.375565,176.832748 135.134964,177.211060 
	C134.529510,180.070862 135.995697,184.114182 131.055618,184.404831 
	C127.628853,184.606445 124.667801,183.951096 123.168022,180.529343 
	C121.562546,176.866409 121.869537,173.304733 124.735283,170.345657 
	C127.806931,167.173965 131.588394,167.413574 137.581039,170.983124 
	C139.124054,169.610382 140.698929,168.209290 143.726746,165.515579 
	C138.438156,163.874908 134.471863,162.644455 129.727524,161.430038 
M70.553688,167.856735 
	C72.977364,168.284515 75.401031,168.712296 77.810394,169.137558 
	C81.062752,164.252869 80.608238,162.644592 75.218567,162.097595 
	C72.110764,161.782181 68.896690,162.652512 65.721558,162.830704 
	C60.522167,163.122513 57.590427,166.218353 57.887348,171.264343 
	C58.199139,176.563065 62.244930,177.753555 66.300804,179.013031 
	C68.909233,179.823029 71.465858,180.799866 74.964638,182.023239 
	C69.082565,187.185822 64.459351,183.147644 59.578503,182.790070 
	C58.900970,184.453445 58.241287,186.072983 57.434307,188.054153 
	C63.783485,191.345428 70.113106,192.592667 76.226784,189.497406 
	C78.722740,188.233734 80.884674,184.864395 81.670609,182.029449 
	C82.688019,178.359512 79.414406,176.147217 76.402626,174.761230 
	C74.183441,173.740021 71.581589,173.580841 69.271873,172.713608 
	C68.029762,172.247238 67.043877,171.098450 65.942383,170.257568 
	C67.192238,169.457321 68.442093,168.657089 70.553688,167.856735 
M108.767509,161.988083 
	C107.537506,163.042542 105.814568,163.857925 105.166260,165.194519 
	C102.856819,169.955826 100.912918,174.894409 98.555351,180.409851 
	C96.593483,175.824203 94.889755,171.900314 93.233025,167.956665 
	C90.337021,161.063080 90.349129,161.057999 82.445763,162.682877 
	C85.977699,170.972519 89.372429,179.251450 93.039192,187.408096 
	C94.740944,191.193604 101.274269,192.126968 102.803505,188.807571 
	C106.796211,180.140854 110.364174,171.278458 114.317841,161.985596 
	C112.242523,161.985596 110.923897,161.985596 108.767509,161.988083 
z"/>
<path fill="#339EFF" opacity="1.000000" stroke="none" 
	d="
M159.594727,89.091934 
	C158.042526,88.759071 156.493683,88.158112 154.937546,88.138557 
	C147.105743,88.040115 139.272034,88.097672 131.438995,88.092155 
	C124.433342,88.087219 123.924454,87.604271 123.910751,80.791916 
	C123.894012,72.470818 123.906769,64.149658 123.906769,55.044262 
	C122.113129,55.044262 120.531555,55.044262 118.949982,55.044262 
	C95.284203,55.044254 71.618431,55.037785 47.952656,55.048481 
	C41.504967,55.051395 40.314663,56.206593 40.303055,62.528084 
	C40.279835,75.175957 40.296165,87.823906 40.296165,100.849243 
	C37.622375,100.849243 35.228718,100.849243 32.518875,100.849243 
	C32.412388,99.579735 32.212700,98.290237 32.210270,97.000359 
	C32.187355,84.834198 32.095749,72.666809 32.234291,60.502171 
	C32.330124,52.087391 37.359810,47.013744 45.634415,46.989853 
	C72.466515,46.912384 99.299881,46.864697 126.129692,47.123497 
	C128.462189,47.146000 131.105499,49.126583 133.037064,50.838001 
	C143.458252,60.071484 153.823151,69.378403 163.894135,78.988350 
	C165.769714,80.778053 167.164886,84.060158 167.179428,86.662453 
	C167.387909,123.993217 167.328873,161.325516 167.316681,198.657440 
	C167.312866,210.345642 163.409088,214.255478 151.758255,214.258850 
	C117.092896,214.268890 82.427521,214.271820 47.762173,214.256836 
	C36.528496,214.251984 32.204773,209.835602 32.198093,198.437546 
	C32.189503,183.771439 32.195869,169.105316 32.195801,154.439209 
	C32.195793,152.470413 32.195801,150.501602 32.195801,148.213654 
	C34.998497,148.213654 37.246567,148.213654 40.296242,148.213654 
	C40.296242,149.832993 40.296249,151.581100 40.296246,153.329208 
	C40.296219,168.495300 40.274456,183.661438 40.306583,198.827469 
	C40.319901,205.112396 41.352997,206.149429 47.497910,206.151794 
	C82.496590,206.165283 117.495285,206.151077 152.493942,206.172684 
	C155.437515,206.174500 158.296173,206.214050 159.597488,202.175873 
	C160.121475,201.709930 160.238586,201.602341 160.355713,201.494751 
	C160.125870,201.287415 159.896027,201.080063 159.666199,200.872711 
	C159.583267,188.396957 159.444260,175.921249 159.429367,163.445419 
	C159.400558,139.309891 159.441696,115.174271 159.775024,90.478638 
	C159.929031,89.643044 159.761871,89.367485 159.594727,89.091934 
z"/>
<path fill="#7126E1" opacity="1.000000" stroke="none" 
	d="
M22.125809,108.045616 
	C23.631914,107.405182 25.136333,106.210258 26.644373,106.205681 
	C61.275646,106.100418 95.907433,106.166435 130.538742,106.066055 
	C134.353638,106.055000 135.987076,107.221992 135.909424,111.199661 
	C135.733963,120.187126 135.803024,129.180817 135.881851,138.171021 
	C135.909592,141.334457 135.129013,143.077133 131.403748,143.062912 
	C95.442688,142.925552 59.481091,142.925476 23.246490,142.093430 
	C22.983389,132.922211 23.064272,124.542862 22.962748,116.165726 
	C22.929907,113.456039 22.418373,110.752151 22.125809,108.045616 
M112.585121,127.855301 
	C112.842834,127.227440 113.100540,126.599586 113.644173,125.313332 
	C111.346603,120.086624 109.491974,119.483757 103.351013,122.146683 
	C102.564262,121.864189 101.777504,121.581688 100.420937,120.887741 
	C99.360847,119.889679 98.300758,118.891617 97.552116,118.186768 
	C95.658424,119.858856 94.328629,121.033028 92.323746,121.924744 
	C89.667892,121.764801 86.289024,120.569084 84.578369,121.763199 
	C83.135002,122.770729 82.513977,128.103165 83.483170,128.798874 
	C85.884277,130.522415 89.404243,130.687210 93.024170,131.619827 
	C93.024170,127.981194 93.024170,125.523575 93.825684,123.030388 
	C94.526604,124.196251 95.785027,125.343689 95.824272,126.531410 
	C95.943649,130.143814 97.429970,131.607193 101.651955,130.754608 
	C102.435333,130.374161 103.218712,129.993698 104.669640,129.959030 
	C107.112907,130.631256 109.555984,132.986481 112.428452,129.839188 
	C112.297569,129.528519 112.166687,129.217834 112.021400,128.453659 
	C112.021400,128.453659 112.001198,128.000366 112.585121,127.855301 
M126.018372,125.439232 
	C126.018372,122.676170 126.018372,119.913116 126.018372,117.150055 
	C125.546127,116.979782 125.073883,116.809517 124.601646,116.639244 
	C123.848213,117.970795 123.094780,119.302338 122.271194,120.757874 
	C117.188164,120.383667 115.002594,121.815475 114.929550,125.809914 
	C114.846985,130.324234 117.361336,131.486832 125.776009,130.642761 
	C125.854752,129.260941 125.936554,127.825294 126.018372,125.439232 
M63.844398,127.336014 
	C64.333298,128.532532 64.822205,129.729065 65.311104,130.925583 
	C65.842056,129.768799 66.338326,128.594452 66.912796,127.459702 
	C67.623871,126.055122 68.399834,124.683388 69.147758,123.297462 
	C69.763367,124.669182 70.434067,126.019493 70.977966,127.419083 
	C71.453102,128.641724 71.785500,129.919830 72.180954,131.173431 
	C72.690277,131.041473 73.199600,130.909500 73.708931,130.777527 
	C73.801323,129.826599 73.694366,128.797729 74.029068,127.941521 
	C74.658142,126.332275 75.542297,124.822746 76.320389,123.271759 
	C76.890694,124.813370 77.435532,126.365051 78.039742,127.893257 
	C78.484604,129.018463 79.007080,130.112991 79.494972,131.221191 
	C80.014046,131.073563 80.533127,130.925934 81.052200,130.778305 
	C81.052200,128.667496 81.530373,126.398727 80.901711,124.495575 
	C80.393929,122.958366 78.619995,120.846138 77.288841,120.756592 
	C72.935364,120.463715 68.527542,120.978607 63.847004,121.196564 
	C63.847004,123.131447 63.847004,124.776344 63.844398,127.336014 
M40.555191,123.906029 
	C39.795750,122.259109 39.348297,120.312309 38.160778,119.076866 
	C37.439289,118.326248 34.605606,118.166695 34.374454,118.607933 
	C32.210159,122.739319 30.403704,127.058167 28.493744,131.322784 
	C28.838970,131.962891 29.184195,132.602982 29.529419,133.243073 
	C33.483234,124.823563 38.440853,128.564865 44.069454,131.976883 
	C42.566399,128.506348 41.716190,126.543221 40.555191,123.906029 
M54.014359,121.641525 
	C51.083553,121.322609 48.152748,121.003693 45.397079,120.703827 
	C45.397079,124.951851 45.397079,128.407364 45.397079,131.862885 
	C45.857826,131.928162 46.318577,131.993439 46.779324,132.058716 
	C47.172394,130.522095 47.516792,128.970871 47.972282,127.452980 
	C48.424099,125.947334 48.987793,124.475273 49.502419,122.988480 
	C50.111179,123.111214 50.719940,123.233948 51.328697,123.356689 
	C51.605770,125.235161 51.762943,127.143402 52.218235,128.977631 
	C52.403370,129.723480 53.236542,130.308441 53.774853,130.966614 
	C54.333866,130.325378 55.384300,129.668106 55.364002,129.045776 
	C55.289356,126.757294 54.859531,124.480400 54.014359,121.641525 
M60.979553,127.326385 
	C60.979553,125.228889 60.979553,123.131386 60.979553,121.033890 
	C60.328320,120.956711 59.677082,120.879539 59.025848,120.802361 
	C57.098377,123.826347 58.286613,127.394447 59.522709,131.226089 
	C60.007614,130.229523 60.492516,129.232971 60.979553,127.326385 
z"/>
<path fill="#319DFF" opacity="1.000000" stroke="none" 
	d="
M130.116547,161.422028 
	C134.471863,162.644455 138.438156,163.874908 143.726746,165.515579 
	C140.698929,168.209290 139.124054,169.610382 137.581039,170.983124 
	C131.588394,167.413574 127.806931,167.173965 124.735283,170.345657 
	C121.869537,173.304733 121.562546,176.866409 123.168022,180.529343 
	C124.667801,183.951096 127.628853,184.606445 131.055618,184.404831 
	C135.995697,184.114182 134.529510,180.070862 135.134964,177.211060 
	C137.375565,176.832748 139.434311,176.485123 141.722702,176.098724 
	C141.722702,180.701965 141.722702,185.166595 141.722702,190.004410 
	C136.462402,190.274765 131.018341,191.206863 125.726913,190.660492 
	C119.196495,189.986206 115.210533,185.122177 114.284103,178.576630 
	C113.437630,172.595932 116.263451,166.328568 121.453033,163.809357 
	C123.996773,162.574539 126.956223,162.196075 130.116547,161.422028 
z"/>
<path fill="#329EFF" opacity="1.000000" stroke="none" 
	d="
M70.122818,167.856781 
	C68.442093,168.657089 67.192238,169.457321 65.942383,170.257568 
	C67.043877,171.098450 68.029762,172.247238 69.271873,172.713608 
	C71.581589,173.580841 74.183441,173.740021 76.402626,174.761230 
	C79.414406,176.147217 82.688019,178.359512 81.670609,182.029449 
	C80.884674,184.864395 78.722740,188.233734 76.226784,189.497406 
	C70.113106,192.592667 63.783485,191.345428 57.434307,188.054153 
	C58.241287,186.072983 58.900970,184.453445 59.578503,182.790070 
	C64.459351,183.147644 69.082565,187.185822 74.964638,182.023239 
	C71.465858,180.799866 68.909233,179.823029 66.300804,179.013031 
	C62.244930,177.753555 58.199139,176.563065 57.887348,171.264343 
	C57.590427,166.218353 60.522167,163.122513 65.721558,162.830704 
	C68.896690,162.652512 72.110764,161.782181 75.218567,162.097595 
	C80.608238,162.644592 81.062752,164.252869 77.810394,169.137558 
	C75.401031,168.712296 72.977364,168.284515 70.122818,167.856781 
z"/>
<path fill="#319DFF" opacity="1.000000" stroke="none" 
	d="
M109.186386,161.986847 
	C110.923897,161.985596 112.242523,161.985596 114.317841,161.985596 
	C110.364174,171.278458 106.796211,180.140854 102.803505,188.807571 
	C101.274269,192.126968 94.740944,191.193604 93.039192,187.408096 
	C89.372429,179.251450 85.977699,170.972519 82.445763,162.682877 
	C90.349129,161.057999 90.337021,161.063080 93.233025,167.956665 
	C94.889755,171.900314 96.593483,175.824203 98.555351,180.409851 
	C100.912918,174.894409 102.856819,169.955826 105.166260,165.194519 
	C105.814568,163.857925 107.537506,163.042542 109.186386,161.986847 
z"/>
<path fill="#6500DF" opacity="1.000000" stroke="none" 
	d="
M22.024582,108.501724 
	C22.418373,110.752151 22.929907,113.456039 22.962748,116.165726 
	C23.064272,124.542862 22.983389,132.922211 22.949093,141.787750 
	C22.572969,140.918854 21.926247,139.565063 21.916454,138.206680 
	C21.846178,128.457581 21.905306,118.707558 22.024582,108.501724 
z"/>
<path fill="#1F98FF" opacity="1.000000" stroke="none" 
	d="
M159.554230,89.357002 
	C159.761871,89.367485 159.929031,89.643044 159.879852,90.027802 
	C159.613602,89.965363 159.563675,89.793716 159.554230,89.357002 
z"/>
<path fill="#1F98FF" opacity="1.000000" stroke="none" 
	d="
M159.584839,201.125305 
	C159.896027,201.080063 160.125870,201.287415 160.355713,201.494751 
	C160.238586,201.602341 160.121475,201.709930 159.765594,201.862793 
	C159.519058,201.731369 159.511276,201.554642 159.584839,201.125305 
z"/>
<path fill="#F3EFFC" opacity="1.000000" stroke="none" 
	d="
M100.996254,130.830521 
	C97.429970,131.607193 95.943649,130.143814 95.824272,126.531410 
	C95.785027,125.343689 94.526604,124.196251 93.417191,122.833527 
	C93.008705,122.636658 92.998833,122.207207 92.998833,122.207207 
	C94.328629,121.033028 95.658424,119.858856 97.552116,118.186768 
	C98.300758,118.891617 99.360847,119.889679 100.716316,121.429642 
	C101.552299,122.597000 102.092903,123.222466 102.633499,123.847931 
	C103.089287,123.291512 103.545059,122.735092 104.000839,122.178680 
	C109.491974,119.483757 111.346603,120.086624 113.120392,125.651566 
	C110.505821,126.119850 108.415016,126.249893 106.324219,126.379944 
	C106.338860,126.920082 106.353500,127.460228 106.368141,128.000366 
	C108.245827,128.000366 110.123512,128.000366 112.001198,128.000366 
	C112.001198,128.000366 112.021400,128.453659 112.016106,128.943481 
	C112.007095,129.608826 112.003387,129.784332 111.999672,129.959854 
	C109.555984,132.986481 107.112907,130.631256 104.253120,129.476929 
	C101.141914,126.902214 101.123077,128.949905 100.996254,130.830521 
z"/>
<path fill="#F6F3FD" opacity="1.000000" stroke="none" 
	d="
M126.018364,125.914444 
	C125.936554,127.825294 125.854752,129.260941 125.776009,130.642761 
	C117.361336,131.486832 114.846985,130.324234 114.929550,125.809914 
	C115.002594,121.815475 117.188164,120.383667 122.271194,120.757874 
	C123.094780,119.302338 123.848213,117.970795 124.601646,116.639244 
	C125.073883,116.809517 125.546127,116.979782 126.018372,117.150055 
	C126.018372,119.913116 126.018372,122.676170 126.018364,125.914444 
z"/>
<path fill="#F9F7FE" opacity="1.000000" stroke="none" 
	d="
M63.845703,126.878632 
	C63.847004,124.776344 63.847004,123.131447 63.847004,121.196564 
	C68.527542,120.978607 72.935364,120.463715 77.288841,120.756592 
	C78.619995,120.846138 80.393929,122.958366 80.901711,124.495575 
	C81.530373,126.398727 81.052200,128.667496 81.052200,130.778305 
	C80.533127,130.925934 80.014046,131.073563 79.494972,131.221191 
	C79.007080,130.112991 78.484604,129.018463 78.039742,127.893257 
	C77.435532,126.365051 76.890694,124.813370 76.320389,123.271759 
	C75.542297,124.822746 74.658142,126.332275 74.029068,127.941521 
	C73.694366,128.797729 73.801323,129.826599 73.708931,130.777527 
	C73.199600,130.909500 72.690277,131.041473 72.180954,131.173431 
	C71.785500,129.919830 71.453102,128.641724 70.977966,127.419083 
	C70.434067,126.019493 69.763367,124.669182 69.147766,123.297462 
	C68.399834,124.683388 67.623871,126.055122 66.912796,127.459702 
	C66.338326,128.594452 65.842056,129.768799 65.311104,130.925583 
	C64.822205,129.729065 64.333298,128.532532 63.845703,126.878632 
z"/>
<path fill="#F4EFFD" opacity="1.000000" stroke="none" 
	d="
M40.710587,124.243057 
	C41.716190,126.543221 42.566399,128.506348 44.069454,131.976883 
	C38.440853,128.564865 33.483234,124.823563 29.529419,133.243073 
	C29.184195,132.602982 28.838970,131.962891 28.493744,131.322784 
	C30.403704,127.058167 32.210159,122.739319 34.374454,118.607933 
	C34.605606,118.166695 37.439289,118.326248 38.160778,119.076866 
	C39.348297,120.312309 39.795750,122.259109 40.710587,124.243057 
z"/>
<path fill="#F4EFFC" opacity="1.000000" stroke="none" 
	d="
M92.661285,122.065979 
	C92.998833,122.207207 93.008705,122.636658 93.016434,122.851303 
	C93.024170,125.523575 93.024170,127.981194 93.024170,131.619827 
	C89.404243,130.687210 85.884277,130.522415 83.483170,128.798874 
	C82.513977,128.103165 83.135002,122.770729 84.578369,121.763199 
	C86.289024,120.569084 89.667892,121.764801 92.661285,122.065979 
z"/>
<path fill="#F4EFFC" opacity="1.000000" stroke="none" 
	d="
M54.288857,121.920334 
	C54.859531,124.480400 55.289356,126.757294 55.364002,129.045776 
	C55.384300,129.668106 54.333866,130.325378 53.774857,130.966614 
	C53.236542,130.308441 52.403370,129.723480 52.218235,128.977631 
	C51.762943,127.143402 51.605770,125.235161 51.328697,123.356689 
	C50.719940,123.233948 50.111179,123.111214 49.502419,122.988480 
	C48.987793,124.475273 48.424099,125.947334 47.972282,127.452980 
	C47.516792,128.970871 47.172394,130.522095 46.779324,132.058716 
	C46.318577,131.993439 45.857826,131.928162 45.397079,131.862885 
	C45.397079,128.407364 45.397079,124.951851 45.397079,120.703827 
	C48.152748,121.003693 51.083553,121.322609 54.288857,121.920334 
z"/>
<path fill="#FFFFFF" opacity="1.000000" stroke="none" 
	d="
M60.978485,127.781403 
	C60.492516,129.232971 60.007614,130.229523 59.522709,131.226089 
	C58.286613,127.394447 57.098377,123.826347 59.025848,120.802361 
	C59.677082,120.879539 60.328320,120.956711 60.979553,121.033890 
	C60.979553,123.131386 60.979553,125.228889 60.978485,127.781403 
z"/>
<path fill="#F1ECFC" opacity="1.000000" stroke="none" 
	d="
M112.293159,127.927834 
	C110.123512,128.000366 108.245827,128.000366 106.368141,128.000366 
	C106.353500,127.460228 106.338860,126.920082 106.324219,126.379944 
	C108.415016,126.249893 110.505821,126.119850 112.977432,125.980774 
	C113.100540,126.599586 112.842834,127.227440 112.293159,127.927834 
z"/>
<path fill="#F1ECFC" opacity="1.000000" stroke="none" 
	d="
M103.675926,122.162682 
	C103.545059,122.735092 103.089287,123.291512 102.633499,123.847931 
	C102.092903,123.222466 101.552299,122.597000 101.001221,121.635361 
	C101.777504,121.581688 102.564262,121.864189 103.675926,122.162682 
z"/>
<path fill="#F1ECFC" opacity="1.000000" stroke="none" 
	d="
M101.324104,130.792572 
	C101.123077,128.949905 101.141914,126.902214 103.919342,129.304031 
	C103.218712,129.993698 102.435333,130.374161 101.324104,130.792572 
z"/>
<path fill="#F1ECFC" opacity="1.000000" stroke="none" 
	d="
M112.214066,129.899521 
	C112.003387,129.784332 112.007095,129.608826 112.023300,129.170242 
	C112.166687,129.217834 112.297569,129.528519 112.214066,129.899521 
z"/>
</svg>