<svg version="1.1" id="Layer_1" xmlns="http://www.w3.org/2000/svg" xmlns:xlink="http://www.w3.org/1999/xlink" x="0px" y="0px"
	 width="100%" viewBox="0 0 1024 1024" enable-background="new 0 0 1024 1024" xml:space="preserve">
<path fill="#000000" opacity="1.000000" stroke="none" 
	d="
M645.967651,300.965881 
	C685.161499,300.454132 712.466187,318.467804 729.511475,352.595337 
	C734.157043,361.896637 736.146118,372.099518 736.150208,382.585968 
	C736.186890,476.395081 735.834534,570.206787 736.466675,664.011902 
	C736.691650,697.392517 705.866150,743.748596 660.466858,747.489136 
	C655.641724,747.886719 650.843689,748.153137 646.018127,748.151245 
	C556.208069,748.115967 466.396790,747.777039 376.588501,748.155029 
	C328.845612,748.355896 297.746429,711.232788 291.297791,678.312866 
	C290.275879,673.095886 289.842682,667.778320 289.841766,662.427002 
	C289.826294,570.450806 289.954468,478.473969 289.638062,386.498718 
	C289.531555,355.540619 303.506409,332.775024 328.052368,315.483551 
	C343.180420,304.826599 360.250610,300.907135 378.541992,300.922302 
	C467.519073,300.996002 556.496277,300.961121 645.967651,300.965881 
M332.242218,479.500000 
	C332.224609,539.316711 332.290222,599.133606 332.125122,658.949890 
	C332.088318,672.268127 336.802307,683.264160 346.193573,692.451782 
	C355.936096,701.983032 367.884796,705.688354 381.234406,705.633972 
	C423.206573,705.463196 465.178680,705.149841 507.150879,705.143799 
	C552.965515,705.137146 598.781494,705.252014 644.594360,705.621399 
	C674.220215,705.860168 694.040588,682.747498 693.870728,656.716980 
	C693.285706,567.078918 693.674133,477.434601 693.650696,387.792694 
	C693.644165,363.023010 675.868591,344.643494 651.206665,344.185150 
	C626.890137,343.733185 602.566711,343.495361 578.245972,343.471863 
	C549.603699,343.444183 520.961304,343.829773 492.318604,343.887970 
	C453.496216,343.966858 414.669342,344.237732 375.853027,343.745148 
	C359.540100,343.538147 337.938782,355.750214 333.958557,375.187531 
	C332.955353,380.086792 332.244476,384.997162 332.250000,390.024475 
	C332.282410,419.516266 332.250977,449.008148 332.242218,479.500000 
z"/>
<path fill="#000000" opacity="1.000000" stroke="none" 
	d="
M363.763519,664.879700 
	C362.067780,661.848816 361.620605,658.966858 361.621857,655.890808 
	C361.658051,567.895081 361.643311,479.899384 361.664490,391.903656 
	C361.667175,380.810760 367.768585,374.360504 378.985352,373.526337 
	C389.634460,372.734344 400.298645,372.906891 410.951263,373.433777 
	C419.456818,373.854462 427.938995,373.166260 436.430511,373.155334 
	C504.760406,373.067596 573.090393,373.053162 641.420349,373.026703 
	C643.418091,373.025940 645.430542,373.005829 647.411194,373.222656 
	C658.048157,374.387085 664.255676,381.149017 664.289612,391.851715 
	C664.383728,421.516663 664.333008,451.182098 664.428833,480.847046 
	C664.522461,509.840546 664.343262,538.832458 664.678101,567.828674 
	C665.020569,597.483582 664.500305,627.148682 664.327454,656.809204 
	C664.276184,665.613403 658.671936,672.206177 649.341553,674.182434 
	C646.274719,674.831970 643.064270,675.049866 639.919495,675.049622 
	C555.090515,675.042603 470.261566,674.961121 385.432587,674.960327 
	C376.704681,674.960205 368.742462,673.691650 363.763519,664.879700 
M476.327057,520.499939 
	C476.324524,545.989990 476.287201,571.480103 476.336090,596.970032 
	C476.356445,607.570374 481.748566,612.898499 492.388184,612.917419 
	C505.549377,612.940857 518.712036,612.959045 531.871643,612.790710 
	C540.330078,612.682617 545.862183,607.517700 545.723267,600.279846 
	C545.592590,593.471191 539.741333,588.456665 531.693054,588.393799 
	C523.030334,588.326172 514.363098,588.217651 505.705170,588.428650 
	C501.743317,588.525269 500.527161,587.060303 500.572144,583.186951 
	C500.748138,568.028259 500.647675,552.866455 500.680176,537.705872 
	C500.682922,536.424927 500.334900,535.007385 501.949738,533.628540 
	C503.857910,533.628540 506.171173,533.634705 508.484406,533.626892 
	C510.983307,533.618530 513.491272,533.729065 515.979309,533.557007 
	C523.755432,533.019287 528.738464,527.970093 528.658264,520.850769 
	C528.577637,513.693176 523.585083,509.115631 515.526428,508.905334 
	C511.697327,508.805389 507.863159,508.900360 504.033966,508.802032 
	C501.734009,508.742981 500.472229,507.812744 500.496155,505.111420 
	C500.638000,489.119019 500.678467,473.124908 500.609314,457.132019 
	C500.594604,453.734314 502.092316,452.839081 505.180420,452.965088 
	C509.337219,453.134613 513.513977,453.148285 517.669189,452.952454 
	C525.739319,452.572113 530.776367,447.801605 530.670654,440.888519 
	C530.561035,433.720398 524.695984,428.424896 516.679016,428.371368 
	C508.515900,428.316895 500.351654,428.299622 492.188873,428.374054 
	C481.620422,428.470459 476.321442,433.874725 476.314392,444.529633 
	C476.297882,469.519714 476.320160,494.509796 476.327057,520.499939 
M564.583618,533.022461 
	C569.748108,533.012207 574.924622,533.215149 580.073486,532.926575 
	C584.438171,532.681946 585.998840,534.385681 585.953796,538.687744 
	C585.807190,552.680115 586.136658,566.680420 585.808899,580.666565 
	C585.652710,587.333618 586.044678,593.972656 585.950195,600.625488 
	C585.895752,604.460754 586.963196,607.919250 590.030823,610.422974 
	C593.775940,613.479736 597.865479,614.626831 602.554443,612.460510 
	C607.577087,610.140015 609.581848,606.001831 609.619751,600.811768 
	C609.713379,587.984558 609.655701,575.156250 609.655823,562.328369 
	C609.656250,527.842957 609.722168,493.357269 609.570618,458.872559 
	C609.551392,454.503998 610.659241,452.735199 615.221619,453.467651 
	C619.034363,454.079742 622.901611,453.432526 626.607666,452.461945 
	C635.416992,450.154907 638.600830,439.046600 632.353821,432.541534 
	C629.687927,429.765503 626.168884,428.474915 622.432678,428.449860 
	C604.940979,428.332581 587.447815,428.344269 569.955933,428.437500 
	C568.019104,428.447815 565.985657,429.024261 564.171204,429.764862 
	C558.947510,431.897064 556.400269,437.193909 557.379883,443.383850 
	C558.223389,448.713806 562.399963,452.485413 568.088928,452.776855 
	C571.744812,452.964142 575.439087,453.095673 579.076050,452.784088 
	C583.740417,452.384491 585.541870,453.865082 585.450989,458.849243 
	C585.180786,473.669739 585.168701,488.504791 585.545715,503.321686 
	C585.671265,508.257294 583.812500,509.248840 579.494141,509.104523 
	C572.840942,508.882172 566.154358,508.829407 559.515015,509.240082 
	C551.811340,509.716614 547.162842,516.675476 549.086670,524.155273 
	C550.837280,530.961914 554.135620,532.974792 564.583618,533.022461 
M464.544525,442.039886 
	C464.426697,433.273224 459.526764,428.466095 450.317993,428.411407 
	C435.328552,428.322357 420.337952,428.344086 405.348480,428.427490 
	C403.048340,428.440277 400.673615,428.765961 398.467896,429.408569 
	C392.374969,431.183563 389.357971,436.230347 390.101654,442.933136 
	C390.764771,448.909943 394.755676,452.538422 401.229156,452.881744 
	C404.052948,453.031494 406.890015,452.935913 409.721039,452.944153 
	C416.113525,452.962830 416.236053,453.033020 416.235138,459.298462 
	C416.230621,489.944580 416.183228,520.590698 416.181458,551.236816 
	C416.180511,567.725586 416.105011,584.216187 416.326050,600.702393 
	C416.452362,610.126404 425.232269,616.092896 433.171143,612.453308 
	C439.443115,609.577820 440.656830,604.052368 440.627228,597.893005 
	C440.408813,552.429077 440.200134,506.965118 439.998383,461.501099 
	C439.963806,453.712677 439.985840,453.712646 447.967773,453.604767 
	C457.531433,453.475525 461.264191,451.014893 464.544525,442.039886 
z"/>
</svg>